{
copyright = "Copyright (c) 2024 by Vladimir Nikolic. All rights reserved.";
designer = "Vladimir Nikolic";
designerURL = "https://www.coroflot.com/vladimirnikolic";
familyName = Eggfont;
customParameters = (
{
name = glyphOrder;
value = (
.notdef,
space,
E,
F,
N,
R,
G,
H,
I,
J,
K,
L,
O,
M,
Y,
Q,
P,
S,
T,
U,
V,
W,
X,
Z,
a,
b,
c,
e,
f,
g,
i,
j,
k,
l,
m,
n,
o,
p,
q,
r,
s,
t,
u,
v,
w,
x,
y,
z,
zero,
one,
two,
three,
four,
five,
six,
seven,
eight,
nine,
exclam,
question,
colon,
semicolon,
period,
comma,
D,
B,
C,
A,
at,
ordfeminine,
quotedbl,
quotesingle,
bar,
dollar,
slash,
Oslash,
oslash,
cent,
hyphenminus,
macron,
h,
sterling,
exclamdown,
minus,
bullet,
equal,
yen,
plus,
bracketleft,
bracketright,
backslash,
cedilla,
Ccedilla,
ccedilla,
underscore,
questiondown,
percent,
AE,
ae,
germandbls,
section,
ordmasculine,
ogonekmod,
aogonek,
Aogonek,
paragraph,
dieresis,
circumflexmod,
acute,
aacute,
iacute,
Iacute,
uacute,
Uacute,
eacute,
Eacute,
acircumflex,
Acircumflex,
ecircumflex,
Aacute,
grave,
agrave,
Agrave,
egrave,
Egrave,
cacute,
Cacute,
ccircumflex,
Ccircumflex,
idieresis,
Idieresis,
adieresis,
Adieresis,
udieresis,
Udieresis,
ucircumflex,
Ucircumflex,
ugrave,
Ugrave,
odieresis,
Odieresis,
ograve,
Ograve,
oacute,
Oacute,
ocircumflex,
Ocircumflex,
Ecircumflex,
hcircumflex,
Hcircumflex,
dotaccentmod,
gdotaccent,
Gdotaccent,
zdotaccent,
Zdotaccent,
nacute,
Nacute,
edotaccent,
Edotaccent,
gcircumflex,
Gcircumflex,
ydieresis,
edieresis,
Edieresis,
igrave,
Igrave,
icircumflex,
Icircumflex,
zacute,
Zacute,
Ydieresis,
ycircumflex,
Ycircumflex,
wcircumflex,
Wcircumflex,
uogonek,
Uogonek,
doubleacutemod,
udoubleacute,
Udoubleacute,
odoubleacute,
Odoubleacute,
oe,
OE,
racute,
Racute,
caronmod,
ncaron,
Ncaron,
d,
dcroat,
Dcroat,
eth,
Eth,
yacute,
Yacute,
ecaron,
Ecaron,
eogonek,
Eogonek,
brevemod,
jcircumflex,
Jcircumflex,
ij,
IJ,
iogonek,
Iogonek,
ccaron,
Ccaron,
gbreve,
Gbreve,
ebreve,
Ebreve,
multiply,
scaron,
Scaron,
obreve,
Obreve,
scedilla,
Scedilla,
scircumflex,

glyphs = (
{
glyphname = E;
layers = (
{
layerId = "4FF56D86-EDA3-44A7-BEE3-77B51CD88509";
paths = (
{
nodes = (
"423 0 LINE",
"423 149 LINE",
"238 149 LINE SMOOTH",
"222 149 OFFCURVE",
"210 152 OFFCURVE",
"201 159 CURVE SMOOTH",
"192 166 OFFCURVE",
"186 177 OFFCURVE",
"181 192 CURVE SMOOTH",
"178 202 OFFCURVE",
"177 212 OFFCURVE",
"177 222 CURVE SMOOTH",
"177 231 LINE",
"178 243 OFFCURVE",
"179 255 OFFCURVE",
"179 268 CURVE",
"387 268 LINE",
"387 417 LINE",
"179 417 LINE",
"179 430 OFFCURVE",
"178 442 OFFCURVE",
"177 455 CURVE",
"177 464 LINE SMOOTH",
"177 473 OFFCURVE",
"178 483 OFFCURVE",
"181 493 CURVE SMOOTH",
"186 508 OFFCURVE",
"192 519 OFFCURVE",
"201 526 CURVE SMOOTH",
"210 533 OFFCURVE",
"222 536 OFFCURVE",
"238 536 CURVE SMOOTH",
"423 536 LINE",
"423 684 LINE",
"238 684 LINE SMOOTH",
"196 684 OFFCURVE",
"158 673 OFFCURVE",
"123 650 CURVE SMOOTH",
"88 627 OFFCURVE",
"62 595 OFFCURVE",
"46 556 CURVE",
"44 547 LINE",
"44 540 OFFCURVE",
"49 536 OFFCURVE",
"60 536 CURVE SMOOTH",
"79 536 OFFCURVE",
"89 526 OFFCURVE",
"89 506 CURVE SMOOTH",
"89 446 LINE SMOOTH",
"89 427 OFFCURVE",
"79 417 OFFCURVE",
"60 417 CURVE SMOOTH",
"40 417 OFFCURVE",
"30 407 OFFCURVE",
"30 387 CURVE SMOOTH",
"30 252 LINE",
"31 228 OFFCURVE",
"32 206 OFFCURVE",
"34 185 CURVE SMOOTH",
"36 164 OFFCURVE",
"39 147 OFFCURVE",
"43 136 CURVE SMOOTH",
"58 95 OFFCURVE",
"84 62 OFFCURVE",
"119 37 CURVE SMOOTH",
"154 12 OFFCURVE",
"194 0 OFFCURVE",
"238 0 CURVE SMOOTH"
);
}
);
width = 457;
}
);
unicode = 0045;
},
{
glyphname = F;
layers = (
{
layerId = "4FF56D86-EDA3-44A7-BEE3-77B51CD88509";
paths = (
{
nodes = (
"185 0 LINE",
"185 268 LINE",
"374 268 LINE",
"374 416 LINE",
"185 416 LINE",
"185 429 OFFCURVE",
"185 442 OFFCURVE",
"184 455 CURVE",
"184 464 LINE SMOOTH",
"184 473 OFFCURVE",
"185 482 OFFCURVE",
"187 492 CURVE",
"192 507 OFFCURVE",
"198 518 OFFCURVE",
"207 525 CURVE SMOOTH",
"216 532 OFFCURVE",
"228 535 OFFCURVE",
"245 535 CURVE SMOOTH",
"406 535 LINE",
"406 684 LINE",
"245 684 LINE SMOOTH",
"202 684 OFFCURVE",
"164 672 OFFCURVE",
"129 649 CURVE SMOOTH",
"94 626 OFFCURVE",
"69 595 OFFCURVE",
"52 556 CURVE",
"51 552 OFFCURVE",
"50 549 OFFCURVE",
"50 546 CURVE SMOOTH",
"50 539 OFFCURVE",
"55 535 OFFCURVE",
"66 535 CURVE SMOOTH",
"86 535 OFFCURVE",
"96 525 OFFCURVE",
"96 505 CURVE SMOOTH",
"96 446 LINE SMOOTH",
"96 426 OFFCURVE",
"86 416 OFFCURVE",
"66 416 CURVE SMOOTH",
"46 416 OFFCURVE",
"36 406 OFFCURVE",
"36 387 CURVE SMOOTH",
"36 0 LINE"
);
}
);
width = 423;
}
);
unicode = 0046;
},
{
glyphname = N;
layers = (
{
layerId = "4FF56D86-EDA3-44A7-BEE3-77B51CD88509";
paths = (
{
nodes = (
"451 0 LINE",
"451 471 LINE",
"450 488 OFFCURVE",
"448 504 OFFCURVE",
"445 521 CURVE SMOOTH",
"442 537 OFFCURVE",
"436 553 OFFCURVE",
"429 568 CURVE SMOOTH",
"422 583 OFFCURVE",
"411 599 OFFCURVE",
"398 614 CURVE SMOOTH",
"373 643 OFFCURVE",
"343 662 OFFCURVE",
"309 673 CURVE SMOOTH",
"287 680 OFFCURVE",
"264 684 OFFCURVE",
"242 684 CURVE SMOOTH",
"231 684 OFFCURVE",
"219 683 OFFCURVE",
"208 681 CURVE SMOOTH",
"175 675 OFFCURVE",
"144 662 OFFCURVE",
"116 641 CURVE SMOOTH",
"87 620 OFFCURVE",
"66 591 OFFCURVE",
"51 556 CURVE SMOOTH",
"49 552 OFFCURVE",
"48 549 OFFCURVE",
"48 546 CURVE",
"48 544 OFFCURVE",
"49 542 OFFCURVE",
"50 541 CURVE",
"53 537 OFFCURVE",
"58 535 OFFCURVE",
"65 535 CURVE SMOOTH",
"85 535 OFFCURVE",
"95 525 OFFCURVE",
"95 505 CURVE SMOOTH",
"95 446 LINE SMOOTH",
"95 426 OFFCURVE",
"85 416 OFFCURVE",
"65 416 CURVE SMOOTH",
"45 416 OFFCURVE",
"35 406 OFFCURVE",
"35 386 CURVE SMOOTH",
"35 0 LINE",
"184 0 LINE",
"184 427 LINE SMOOTH",
"184 438 OFFCURVE",
"183 450 OFFCURVE",
"182 462 CURVE",
"182 470 LINE SMOOTH",
"182 478 OFFCURVE",
"183 487 OFFCURVE",
"187 496 CURVE",
"192 511 OFFCURVE",
"199 521 OFFCURVE",
"208 527 CURVE SMOOTH",
"216 532 OFFCURVE",
"228 535 OFFCURVE",
"243 535 CURVE SMOOTH",
"258 535 OFFCURVE",
"270 532 OFFCURVE",
"279 527 CURVE",
"287 521 OFFCURVE",
"294 511 OFFCURVE",
"299 496 CURVE",
"303 487 OFFCURVE",
"304 478 OFFCURVE",
"304 470 CURVE SMOOTH",
"304 462 LINE",
"303 450 OFFCURVE",
"302 438 OFFCURVE",
"302 427 CURVE SMOOTH",
"302 0 LINE"
);
}
);
width = 485;
}
);
unicode = 004E;
},
{
glyphname = R;
layers = (
{
layerId = "4FF56D86-EDA3-44A7-BEE3-77B51CD88509";
paths = (
{
nodes = (
"452 0 LINE",
"452 208 LINE SMOOTH",
"452 263 OFFCURVE",
"437 302 OFFCURVE",
"404 342 CURVE",
"437 382 OFFCURVE",
"452 421 OFFCURVE",
"452 476 CURVE SMOOTH",
"452 590 OFFCURVE",
"359 684 OFFCURVE",
"245 684 CURVE SMOOTH",
"36 684 LINE",
"36 565 LINE SMOOTH",
"36 545 OFFCURVE",
"46 535 OFFCURVE",
"66 535 CURVE SMOOTH",
"86 535 OFFCURVE",
"96 525 OFFCURVE",
"96 505 CURVE SMOOTH",
"96 446 LINE SMOOTH",
"96 426 OFFCURVE",
"86 416 OFFCURVE",
"66 416 CURVE SMOOTH",
"46 416 OFFCURVE",
"36 406 OFFCURVE",
"36 387 CURVE SMOOTH",
"36 0 LINE",
"185 0 LINE",
"185 268 LINE",
"245 268 LINE SMOOTH",
"276 268 OFFCURVE",
"304 242 OFFCURVE",
"304 208 CURVE SMOOTH",
"304 0 LINE"
);
},
{
nodes = (
"185 416 LINE",
"185 535 LINE",
"245 535 LINE SMOOTH",
"276 535 OFFCURVE",
"304 510 OFFCURVE",
"304 476 CURVE SMOOTH",
"304 442 OFFCURVE",
"276 416 OFFCURVE",
"245 416 CURVE SMOOTH"
);
}
);
width = 482;
}
);
unicode = 0052;
},
{
glyphname = G;
layers = (
{
layerId = "4FF56D86-EDA3-44A7-BEE3-77B51CD88509";
paths = (
{
nodes = (
"254 0 LINE",
"287 2 OFFCURVE",
"316 10 OFFCURVE",
"341 24 CURVE SMOOTH",
"365 37 OFFCURVE",
"385 55 OFFCURVE",
"401 76 CURVE SMOOTH",
"417 97 OFFCURVE",
"429 122 OFFCURVE",
"437 150 CURVE SMOOTH",
"444 177 OFFCURVE",
"448 206 OFFCURVE",
"448 237 CURVE SMOOTH",
"448 386 LINE",
"239 386 LINE",
"239 237 LINE",
"299 237 LINE",
"299 209 LINE SMOOTH",
"299 200 OFFCURVE",
"298 191 OFFCURVE",
"295 184 CURVE SMOOTH",
"292 176 OFFCURVE",
"288 169 OFFCURVE",
"282 163 CURVE SMOOTH",
"276 157 OFFCURVE",
"267 153 OFFCURVE",
"254 150 CURVE",
"249 148 OFFCURVE",
"244 148 OFFCURVE",
"239 148 CURVE SMOOTH",
"235 148 OFFCURVE",
"231 148 OFFCURVE",
"227 149 CURVE SMOOTH",
"218 151 OFFCURVE",
"211 155 OFFCURVE",
"204 160 CURVE SMOOTH",
"197 165 OFFCURVE",
"191 172 OFFCURVE",
"187 180 CURVE SMOOTH",
"182 188 OFFCURVE",
"180 197 OFFCURVE",
"180 207 CURVE SMOOTH",
"180 480 LINE SMOOTH",
"180 489 OFFCURVE",
"183 499 OFFCURVE",
"190 508 CURVE SMOOTH",
"197 518 OFFCURVE",
"204 525 OFFCURVE",
"212 529 CURVE SMOOTH",
"219 532 OFFCURVE",
"227 534 OFFCURVE",
"236 534 CURVE SMOOTH",
"242 534 LINE",
"257 533 OFFCURVE",
"268 531 OFFCURVE",
"276 526 CURVE SMOOTH",
"283 521 OFFCURVE",
"289 514 OFFCURVE",
"293 506 CURVE SMOOTH",
"296 498 OFFCURVE",
"298 489 OFFCURVE",
"299 478 CURVE",
"299 445 LINE",
"448 445 LINE",
"448 472 OFFCURVE",
"445 497 OFFCURVE",
"440 522 CURVE SMOOTH",
"435 546 OFFCURVE",
"426 568 OFFCURVE",
"414 589 CURVE SMOOTH",
"402 609 OFFCURVE",
"386 626 OFFCURVE",
"367 641 CURVE SMOOTH",
"347 656 OFFCURVE",
"323 667 OFFCURVE",
"295 675 CURVE SMOOTH",
"276 680 OFFCURVE",
"257 683 OFFCURVE",
"238 683 CURVE",
"220 682 LINE",
"195 679 OFFCURVE",
"171 673 OFFCURVE",
"149 662 CURVE SMOOTH",
"126 651 OFFCURVE",
"106 637 OFFCURVE",
"89 619 CURVE SMOOTH",
"71 600 OFFCURVE",
"57 579 OFFCURVE",
"47 555 CURVE",
"46 551 OFFCURVE",
"45 548 OFFCURVE",
"45 545 CURVE SMOOTH",
"45 538 OFFCURVE",
"50 534 OFFCURVE",
"61 534 CURVE SMOOTH",
"81 534 OFFCURVE",
"91 524 OFFCURVE",
"91 505 CURVE SMOOTH",
"91 445 LINE SMOOTH",
"91 425 OFFCURVE",
"81 415 OFFCURVE",
"61 415 CURVE SMOOTH",
"41 415 OFFCURVE",
"31 405 OFFCURVE",
"31 386 CURVE SMOOTH",
"31 207 LINE SMOOTH",
"31 177 OFFCURVE",
"37 149 OFFCURVE",
"49 123 CURVE SMOOTH",
"61 96 OFFCURVE",
"77 74 OFFCURVE",
"98 55 CURVE SMOOTH",
"118 36 OFFCURVE",
"142 21 OFFCURVE",
"169 12 CURVE SMOOTH",
"192 4 OFFCURVE",
"215 0 OFFCURVE",
"239 0 CURVE SMOOTH"
);
}
);
width = 477;
}
);
unicode = 0047;
},
{
glyphname = H;
layers = (
{
layerId = "4FF56D86-EDA3-44A7-BEE3-77B51CD88509";
paths = (
{
nodes = (
"450 0 LINE",
"450 684 LINE",
"301 684 LINE",
"301 326 LINE",
"182 326 LINE",
"182 684 LINE",
"34 684 LINE",
"34 297 LINE SMOOTH",
"34 278 OFFCURVE",
"44 268 OFFCURVE",
"64 268 CURVE SMOOTH",
"83 268 OFFCURVE",
"93 258 OFFCURVE",
"93 238 CURVE SMOOTH",
"93 179 LINE SMOOTH",
"93 156 OFFCURVE",
"85 149 OFFCURVE",
"64 149 CURVE SMOOTH",
"44 149 OFFCURVE",
"34 139 OFFCURVE",
"34 119 CURVE SMOOTH",
"34 0 LINE",
"182 0 LINE",
"182 177 LINE",
"301 177 LINE",
"301 0 LINE"
);
}
);
width = 485;
}
);
unicode = 0048;
},
{
glyphname = I;
layers = (
{
layerId = "4FF56D86-EDA3-44A7-BEE3-77B51CD88509";
paths = (
{
nodes = (
"185 0 LINE",
"185 684 LINE",
"37 684 LINE",
"37 565 LINE SMOOTH",
"37 545 OFFCURVE",
"47 535 OFFCURVE",
"66 535 CURVE SMOOTH",
"86 535 OFFCURVE",
"96 525 OFFCURVE",
"96 505 CURVE SMOOTH",
"96 446 LINE SMOOTH",
"96 426 OFFCURVE",
"86 416 OFFCURVE",
"66 416 CURVE SMOOTH",
"47 416 OFFCURVE",
"37 406 OFFCURVE",
"37 387 CURVE SMOOTH",
"37 0 LINE"
);
}
);
width = 224;
}
);
unicode = 0049;
},
{
glyphname = J;
layers = (
{
layerId = "4FF56D86-EDA3-44A7-BEE3-77B51CD88509";
paths = (
{
nodes = (
"269 0 OFFCURVE",
"306 11 OFFCURVE",
"341 33 CURVE SMOOTH",
"361 46 OFFCURVE",
"377 59 OFFCURVE",
"390 74 CURVE SMOOTH",
"403 89 OFFCURVE",
"412 105 OFFCURVE",
"419 122 CURVE SMOOTH",
"426 139 OFFCURVE",
"430 157 OFFCURVE",
"433 176 CURVE SMOOTH",
"435 195 OFFCURVE",
"436 216 OFFCURVE",
"436 238 CURVE SMOOTH",
"436 684 LINE",
"288 684 LINE",
"288 565 LINE SMOOTH",
"288 545 OFFCURVE",
"298 535 OFFCURVE",
"318 535 CURVE SMOOTH",
"337 535 OFFCURVE",
"347 525 OFFCURVE",
"347 506 CURVE SMOOTH",
"347 446 LINE SMOOTH",
"347 426 OFFCURVE",
"337 416 OFFCURVE",
"318 416 CURVE SMOOTH",
"298 416 OFFCURVE",
"288 406 OFFCURVE",
"288 387 CURVE SMOOTH",
"288 288 LINE SMOOTH",
"288 271 OFFCURVE",
"289 255 OFFCURVE",
"291 239 CURVE",
"291 231 LINE SMOOTH",
"291 217 OFFCURVE",
"289 203 OFFCURVE",
"285 189 CURVE SMOOTH",
"280 172 OFFCURVE",
"269 161 OFFCURVE",
"253 154 CURVE SMOOTH",
"245 151 OFFCURVE",
"237 149 OFFCURVE",
"229 149 CURVE SMOOTH",
"221 149 OFFCURVE",
"213 151 OFFCURVE",
"205 154 CURVE SMOOTH",
"194 159 OFFCURVE",
"187 164 OFFCURVE",
"182 170 CURVE SMOOTH",
"177 176 OFFCURVE",
"173 183 OFFCURVE",
"171 190 CURVE SMOOTH",
"170 195 OFFCURVE",
"169 200 OFFCURVE",
"169 206 CURVE SMOOTH",
"169 238 LINE",
"20 238 LINE",
"20 216 OFFCURVE",
"21 195 OFFCURVE",
"24 176 CURVE SMOOTH",
"26 157 OFFCURVE",
"31 139 OFFCURVE",
"38 122 CURVE SMOOTH",
"45 105 OFFCURVE",
"54 89 OFFCURVE",
"67 74 CURVE SMOOTH",
"79 59 OFFCURVE",
"95 46 OFFCURVE",
"116 33 CURVE SMOOTH",
"150 11 OFFCURVE",
"187 0 OFFCURVE",
"228 0 CURVE SMOOTH"
);
}
);
width = 470;
}
);
unicode = 004A;
},
{
glyphname = K;
layers = (
{
layerId = "4FF56D86-EDA3-44A7-BEE3-77B51CD88509";
paths = (
{
nodes = (
"451 0 LINE",
"451 208 LINE SMOOTH",
"451 263 OFFCURVE",
"436 302 OFFCURVE",
"402 342 CURVE",
"436 382 OFFCURVE",
"451 421 OFFCURVE",
"451 476 CURVE SMOOTH",
"451 684 LINE",
"302 684 LINE",
"302 476 LINE SMOOTH",
"302 443 OFFCURVE",
"277 416 OFFCURVE",
"243 416 CURVE SMOOTH",
"184 416 LINE",
"184 684 LINE",
"35 684 LINE",
"35 565 LINE SMOOTH",
"35 545 OFFCURVE",
"45 535 OFFCURVE",
"65 535 CURVE SMOOTH",
"84 535 OFFCURVE",
"94 525 OFFCURVE",
"94 506 CURVE SMOOTH",
"94 446 LINE SMOOTH",
"94 426 OFFCURVE",
"84 416 OFFCURVE",
"65 416 CURVE SMOOTH",
"45 416 OFFCURVE",
"35 406 OFFCURVE",
"35 387 CURVE SMOOTH",
"35 0 LINE",
"184 0 LINE",
"184 267 LINE",
"243 267 LINE SMOOTH",
"276 267 OFFCURVE",
"302 242 OFFCURVE",
"302 208 CURVE SMOOTH",
"302 0 LINE"
);
}
);
width = 490;
}
);
unicode = 004B;
},
{
glyphname = L;
layers = (
{
layerId = "4FF56D86-EDA3-44A7-BEE3-77B51CD88509";
paths = (
{
nodes = (
"335 0 LINE",
"335 148 LINE",
"186 148 LINE",
"186 684 LINE",
"38 684 LINE",
"38 565 LINE SMOOTH",
"38 545 OFFCURVE",
"48 535 OFFCURVE",
"67 535 CURVE SMOOTH",
"87 535 OFFCURVE",
"97 525 OFFCURVE",
"97 505 CURVE SMOOTH",
"97 446 LINE SMOOTH",
"97 426 OFFCURVE",
"87 416 OFFCURVE",
"67 416 CURVE SMOOTH",
"48 416 OFFCURVE",
"38 406 OFFCURVE",
"38 386 CURVE SMOOTH",
"38 0 LINE"
);
}
);
width = 355;
}
);
unicode = 004C;
},
{
glyphname = O;
layers = (
{
layerId = "4FF56D86-EDA3-44A7-BEE3-77B51CD88509";
paths = (
{
nodes = (
"250 1 OFFCURVE",
"265 3 OFFCURVE",
"281 6 CURVE SMOOTH",
"316 14 OFFCURVE",
"345 27 OFFCURVE",
"367 44 CURVE SMOOTH",
"388 61 OFFCURVE",
"407 86 OFFCURVE",
"423 118 CURVE SMOOTH",
"438 149 OFFCURVE",
"445 179 OFFCURVE",
"446 209 CURVE SMOOTH",
"447 239 OFFCURVE",
"447 270 OFFCURVE",
"447 302 CURVE SMOOTH",
"447 329 OFFCURVE",
"448 358 OFFCURVE",
"450 389 CURVE",
"450 411 LINE SMOOTH",
"450 435 OFFCURVE",
"449 459 OFFCURVE",
"446 483 CURVE SMOOTH",
"442 514 OFFCURVE",
"433 544 OFFCURVE",
"420 573 CURVE SMOOTH",
"407 601 OFFCURVE",
"385 625 OFFCURVE",
"356 646 CURVE SMOOTH",
"329 665 OFFCURVE",
"300 677 OFFCURVE",
"269 682 CURVE SMOOTH",
"258 684 OFFCURVE",
"246 685 OFFCURVE",
"235 685 CURVE SMOOTH",
"216 685 OFFCURVE",
"197 682 OFFCURVE",
"179 677 CURVE SMOOTH",
"150 668 OFFCURVE",
"123 654 OFFCURVE",
"99 633 CURVE SMOOTH",
"74 612 OFFCURVE",
"56 587 OFFCURVE",
"43 556 CURVE",
"41 547 LINE",
"41 540 OFFCURVE",
"46 536 OFFCURVE",
"57 536 CURVE SMOOTH",
"77 536 OFFCURVE",
"87 526 OFFCURVE",
"87 506 CURVE SMOOTH",
"87 447 LINE SMOOTH",
"87 427 OFFCURVE",
"77 417 OFFCURVE",
"57 417 CURVE SMOOTH",
"37 417 OFFCURVE",
"27 407 OFFCURVE",
"27 387 CURVE SMOOTH",
"27 209 LINE SMOOTH",
"27 176 OFFCURVE",
"34 145 OFFCURVE",
"49 117 CURVE",
"63 88 OFFCURVE",
"82 65 OFFCURVE",
"106 46 CURVE SMOOTH",
"129 27 OFFCURVE",
"156 14 OFFCURVE",
"187 7 CURVE SMOOTH",
"203 3 OFFCURVE",
"218 1 OFFCURVE",
"234 1 CURVE SMOOTH"
);
},
{
nodes = (
"226 150 LINE",
"217 151 OFFCURVE",
"208 155 OFFCURVE",
"201 160 CURVE SMOOTH",
"194 165 OFFCURVE",
"188 172 OFFCURVE",
"183 181 CURVE SMOOTH",
"178 190 OFFCURVE",
"176 199 OFFCURVE",
"176 209 CURVE SMOOTH",
"176 436 LINE SMOOTH",
"176 446 OFFCURVE",
"176 456 OFFCURVE",
"175 466 CURVE",
"175 473 LINE SMOOTH",
"175 480 OFFCURVE",
"176 486 OFFCURVE",
"177 493 CURVE SMOOTH",
"179 501 OFFCURVE",
"183 509 OFFCURVE",
"189 516 CURVE SMOOTH",
"194 523 OFFCURVE",
"203 528 OFFCURVE",
"216 533 CURVE SMOOTH",
"223 535 OFFCURVE",
"230 536 OFFCURVE",
"237 536 CURVE SMOOTH",
"244 536 LINE",
"253 534 OFFCURVE",
"262 530 OFFCURVE",
"270 525 CURVE SMOOTH",
"277 520 OFFCURVE",
"283 513 OFFCURVE",
"288 504 CURVE SMOOTH",
"293 495 OFFCURVE",
"295 486 OFFCURVE",
"295 476 CURVE SMOOTH",
"295 249 LINE SMOOTH",
"295 239 OFFCURVE",
"295 229 OFFCURVE",
"296 220 CURVE",
"296 212 LINE SMOOTH",
"296 205 OFFCURVE",
"295 199 OFFCURVE",
"294 193 CURVE SMOOTH",
"292 184 OFFCURVE",
"288 177 OFFCURVE",
"283 170 CURVE SMOOTH",
"277 163 OFFCURVE",
"268 158 OFFCURVE",
"255 153 CURVE SMOOTH",
"248 151 OFFCURVE",
"240 150 OFFCURVE",
"233 150 CURVE SMOOTH"
);
}
);
width = 475;
}
);
unicode = 004F;
},
{
glyphname = M;
layers = (
{
layerId = "4FF56D86-EDA3-44A7-BEE3-77B51CD88509";
paths = (
{
nodes = (
"717 0 LINE",
"717 393 LINE SMOOTH",
"717 408 OFFCURVE",
"717 424 OFFCURVE",
"718 439 CURVE",
"718 454 OFFCURVE",
"718 470 OFFCURVE",
"717 485 CURVE SMOOTH",
"716 500 OFFCURVE",
"713 514 OFFCURVE",
"710 529 CURVE SMOOTH",
"707 544 OFFCURVE",
"701 559 OFFCURVE",
"693 574 CURVE SMOOTH",
"677 603 OFFCURVE",
"656 626 OFFCURVE",
"631 644 CURVE SMOOTH",
"606 662 OFFCURVE",
"578 674 OFFCURVE",
"549 680 CURVE",
"535 682 OFFCURVE",
"522 684 OFFCURVE",
"508 684 CURVE SMOOTH",
"492 684 OFFCURVE",
"475 682 OFFCURVE",
"459 678 CURVE SMOOTH",
"428 671 OFFCURVE",
"400 656 OFFCURVE",
"375 635 CURVE",
"348 658 OFFCURVE",
"319 672 OFFCURVE",
"287 679 CURVE SMOOTH",
"272 682 OFFCURVE",
"257 684 OFFCURVE",
"242 684 CURVE SMOOTH",
"225 684 OFFCURVE",
"209 682 OFFCURVE",
"192 678 CURVE SMOOTH",
"161 670 OFFCURVE",
"133 656 OFFCURVE",
"108 635 CURVE SMOOTH",
"83 614 OFFCURVE",
"63 588 OFFCURVE",
"50 556 CURVE SMOOTH",
"48 552 OFFCURVE",
"47 548 OFFCURVE",
"47 545 CURVE SMOOTH",
"47 538 OFFCURVE",
"52 535 OFFCURVE",
"63 535 CURVE SMOOTH",
"83 535 OFFCURVE",
"93 525 OFFCURVE",
"93 505 CURVE SMOOTH",
"93 446 LINE SMOOTH",
"93 426 OFFCURVE",
"83 416 OFFCURVE",
"63 416 CURVE SMOOTH",
"44 416 OFFCURVE",
"34 406 OFFCURVE",
"34 387 CURVE SMOOTH",
"34 0 LINE",
"182 0 LINE",
"182 427 LINE SMOOTH",
"182 438 OFFCURVE",
"182 450 OFFCURVE",
"181 462 CURVE",
"181 470 LINE SMOOTH",
"181 478 OFFCURVE",
"182 488 OFFCURVE",
"186 497 CURVE SMOOTH",
"191 511 OFFCURVE",
"198 521 OFFCURVE",
"207 527 CURVE SMOOTH",
"215 532 OFFCURVE",
"227 535 OFFCURVE",
"242 535 CURVE SMOOTH",
"257 535 OFFCURVE",
"269 532 OFFCURVE",
"277 527 CURVE SMOOTH",
"285 521 OFFCURVE",
"292 511 OFFCURVE",
"297 497 CURVE SMOOTH",
"301 487 OFFCURVE",
"303 477 OFFCURVE",
"303 468 CURVE SMOOTH",
"303 462 LINE",
"302 450 OFFCURVE",
"301 438 OFFCURVE",
"301 427 CURVE SMOOTH",
"301 0 LINE",
"450 0 LINE",
"450 427 LINE SMOOTH",
"450 438 OFFCURVE",
"450 450 OFFCURVE",
"449 462 CURVE",
"449 470 LINE SMOOTH",
"449 479 OFFCURVE",
"450 488 OFFCURVE",
"453 497 CURVE SMOOTH",
"458 511 OFFCURVE",
"465 521 OFFCURVE",
"474 527 CURVE SMOOTH",
"482 532 OFFCURVE",
"494 535 OFFCURVE",
"509 535 CURVE SMOOTH",
"524 535 OFFCURVE",
"536 532 OFFCURVE",
"545 527 CURVE",
"553 521 OFFCURVE",
"560 511 OFFCURVE",
"565 497 CURVE SMOOTH",
"569 487 OFFCURVE",
"571 477 OFFCURVE",
"571 468 CURVE SMOOTH",
"571 462 LINE",
"570 450 OFFCURVE",
"569 438 OFFCURVE",
"569 427 CURVE SMOOTH",
"569 0 LINE"
);
}
);
width = 752;
}
);
unicode = 004D;
},
{
glyphname = Y;
layers = (
{
layerId = "4FF56D86-EDA3-44A7-BEE3-77B51CD88509";
paths = (
{
nodes = (
"307 0 LINE",
"307 251 LINE",
"327 258 OFFCURVE",
"345 268 OFFCURVE",
"361 281 CURVE SMOOTH",
"377 294 OFFCURVE",
"391 308 OFFCURVE",
"403 325 CURVE SMOOTH",
"414 341 OFFCURVE",
"423 359 OFFCURVE",
"430 378 CURVE SMOOTH",
"437 397 OFFCURVE",
"440 418 OFFCURVE",
"441 439 CURVE",
"442 526 LINE",
"442 562 LINE",
"441 602 OFFCURVE",
"441 643 OFFCURVE",
"441 684 CURVE",
"292 684 LINE",
"292 518 LINE SMOOTH",
"292 505 OFFCURVE",
"293 491 OFFCURVE",
"294 476 CURVE SMOOTH",
"295 460 LINE",
"295 450 OFFCURVE",
"294 441 OFFCURVE",
"292 433 CURVE SMOOTH",
"289 420 OFFCURVE",
"284 409 OFFCURVE",
"276 400 CURVE SMOOTH",
"267 391 OFFCURVE",
"253 386 OFFCURVE",
"233 386 CURVE SMOOTH",
"213 386 OFFCURVE",
"199 391 OFFCURVE",
"191 400 CURVE SMOOTH",
"182 409 OFFCURVE",
"177 420 OFFCURVE",
"174 433 CURVE SMOOTH",
"172 441 OFFCURVE",
"171 450 OFFCURVE",
"171 460 CURVE",
"172 476 LINE SMOOTH",
"173 491 OFFCURVE",
"174 505 OFFCURVE",
"174 518 CURVE SMOOTH",
"174 684 LINE",
"25 684 LINE",
"25 565 LINE SMOOTH",
"25 545 OFFCURVE",
"35 535 OFFCURVE",
"55 535 CURVE SMOOTH",
"74 535 OFFCURVE",
"84 525 OFFCURVE",
"84 505 CURVE SMOOTH",
"84 446 LINE SMOOTH",
"84 426 OFFCURVE",
"74 416 OFFCURVE",
"55 416 CURVE SMOOTH",
"48 416 OFFCURVE",
"42 414 OFFCURVE",
"37 410 CURVE SMOOTH",
"34 407 OFFCURVE",
"32 404 OFFCURVE",
"32 399 CURVE",
"33 385 LINE",
"34 380 OFFCURVE",
"36 375 OFFCURVE",
"38 370 CURVE SMOOTH",
"43 360 LINE",
"50 343 OFFCURVE",
"59 328 OFFCURVE",
"71 313 CURVE SMOOTH",
"83 298 OFFCURVE",
"96 285 OFFCURVE",
"111 276 CURVE SMOOTH",
"125 267 OFFCURVE",
"141 258 OFFCURVE",
"159 251 CURVE",
"159 0 LINE"
);
}
);
width = 469;
}
);
unicode = 0059;
},
{
glyphname = Q;
layers = (
{
layerId = "4FF56D86-EDA3-44A7-BEE3-77B51CD88509";
paths = (
{
nodes = (
"310 -55 LINE",
"310 18 LINE",
"358 37 OFFCURVE",
"392 65 OFFCURVE",
"413 104 CURVE SMOOTH",
"433 142 OFFCURVE",
"443 185 OFFCURVE",
"443 234 CURVE SMOOTH",
"443 370 LINE SMOOTH",
"443 393 OFFCURVE",
"444 416 OFFCURVE",
"445 439 CURVE",
"445 456 LINE SMOOTH",
"445 472 OFFCURVE",
"444 489 OFFCURVE",
"442 506 CURVE SMOOTH",
"437 541 OFFCURVE",
"426 572 OFFCURVE",
"409 598 CURVE",
"391 623 OFFCURVE",
"370 643 OFFCURVE",
"345 658 CURVE SMOOTH",
"320 673 OFFCURVE",
"292 682 OFFCURVE",
"263 686 CURVE SMOOTH",
"253 687 OFFCURVE",
"243 688 OFFCURVE",
"233 688 CURVE SMOOTH",
"214 688 OFFCURVE",
"195 686 OFFCURVE",
"177 681 CURVE SMOOTH",
"149 673 OFFCURVE",
"123 659 OFFCURVE",
"99 639 CURVE SMOOTH",
"75 619 OFFCURVE",
"56 593 OFFCURVE",
"43 560 CURVE SMOOTH",
"42 556 OFFCURVE",
"41 553 OFFCURVE",
"41 550 CURVE SMOOTH",
"41 543 OFFCURVE",
"46 539 OFFCURVE",
"57 539 CURVE SMOOTH",
"77 539 OFFCURVE",
"87 529 OFFCURVE",
"87 510 CURVE SMOOTH",
"87 450 LINE SMOOTH",
"87 430 OFFCURVE",
"77 420 OFFCURVE",
"57 420 CURVE SMOOTH",
"37 420 OFFCURVE",
"27 410 OFFCURVE",
"27 391 CURVE SMOOTH",
"27 212 LINE SMOOTH",
"27 191 OFFCURVE",
"30 170 OFFCURVE",
"37 150 CURVE SMOOTH",
"43 130 OFFCURVE",
"52 112 OFFCURVE",
"64 95 CURVE SMOOTH",
"75 78 OFFCURVE",
"89 63 OFFCURVE",
"106 50 CURVE SMOOTH",
"123 37 OFFCURVE",
"141 26 OFFCURVE",
"161 18 CURVE",
"161 -55 LINE"
);
},
{
nodes = (
"226 154 LINE SMOOTH",
"217 155 OFFCURVE",
"208 159 OFFCURVE",
"201 164 CURVE SMOOTH",
"194 169 OFFCURVE",
"188 176 OFFCURVE",
"183 185 CURVE SMOOTH",
"178 193 OFFCURVE",
"176 202 OFFCURVE",
"176 212 CURVE SMOOTH",
"176 440 LINE SMOOTH",
"176 450 OFFCURVE",
"176 460 OFFCURVE",
"175 469 CURVE",
"175 476 LINE SMOOTH",
"175 483 OFFCURVE",
"176 489 OFFCURVE",
"177 496 CURVE SMOOTH",
"178 505 OFFCURVE",
"182 512 OFFCURVE",
"188 519 CURVE SMOOTH",
"193 526 OFFCURVE",
"202 531 OFFCURVE",
"215 536 CURVE",
"223 538 OFFCURVE",
"230 539 OFFCURVE",
"237 539 CURVE SMOOTH",
"244 539 LINE",
"253 538 OFFCURVE",
"262 534 OFFCURVE",
"270 529 CURVE SMOOTH",
"277 524 OFFCURVE",
"283 517 OFFCURVE",
"288 508 CURVE SMOOTH",
"293 499 OFFCURVE",
"295 490 OFFCURVE",
"295 480 CURVE SMOOTH",
"295 253 LINE SMOOTH",
"295 243 OFFCURVE",
"295 233 OFFCURVE",
"296 224 CURVE",
"296 216 LINE SMOOTH",
"296 209 OFFCURVE",
"295 203 OFFCURVE",
"294 196 CURVE SMOOTH",
"292 187 OFFCURVE",
"288 180 OFFCURVE",
"283 173 CURVE SMOOTH",
"277 166 OFFCURVE",
"268 161 OFFCURVE",
"255 156 CURVE SMOOTH",
"249 154 OFFCURVE",
"242 153 OFFCURVE",
"236 153 CURVE"
);
}
);
width = 471;
}
);
unicode = 0051;
},
{
glyphname = P;
layers = (
{
layerId = "4FF56D86-EDA3-44A7-BEE3-77B51CD88509";
paths = (
{
nodes = (
"184 0 LINE",
"184 268 LINE",
"243 268 LINE SMOOTH",
"357 268 OFFCURVE",
"451 361 OFFCURVE",
"451 476 CURVE SMOOTH",
"451 590 OFFCURVE",
"358 684 OFFCURVE",
"243 684 CURVE SMOOTH",
"35 684 LINE",
"35 565 LINE SMOOTH",
"35 545 OFFCURVE",
"45 535 OFFCURVE",
"65 535 CURVE SMOOTH",
"84 535 OFFCURVE",
"94 525 OFFCURVE",
"94 506 CURVE SMOOTH",
"94 446 LINE SMOOTH",
"94 427 OFFCURVE",
"84 417 OFFCURVE",
"65 417 CURVE SMOOTH",
"45 417 OFFCURVE",
"35 407 OFFCURVE",
"35 387 CURVE SMOOTH",
"35 0 LINE"
);
},
{
nodes = (
"184 417 LINE",
"184 535 LINE",
"243 535 LINE SMOOTH",
"276 535 OFFCURVE",
"303 510 OFFCURVE",
"303 476 CURVE SMOOTH",
"303 442 OFFCURVE",
"276 417 OFFCURVE",
"243 417 CURVE SMOOTH"
);
}
);
width = 464;
}
);
unicode = 0050;
},
{
glyphname = S;
layers = (
{
layerId = "4FF56D86-EDA3-44A7-BEE3-77B51CD88509";
paths = (
{
nodes = (
"266 0 OFFCURVE",
"293 6 OFFCURVE",
"318 17 CURVE SMOOTH",
"343 28 OFFCURVE",
"366 43 OFFCURVE",
"385 62 CURVE SMOOTH",
"404 81 OFFCURVE",
"419 103 OFFCURVE",
"430 128 CURVE SMOOTH",
"441 153 OFFCURVE",
"446 180 OFFCURVE",
"446 209 CURVE SMOOTH",
"446 238 OFFCURVE",
"441 265 OFFCURVE",
"430 290 CURVE SMOOTH",
"419 315 OFFCURVE",
"404 337 OFFCURVE",
"385 356 CURVE SMOOTH",
"366 375 OFFCURVE",
"343 390 OFFCURVE",
"318 401 CURVE SMOOTH",
"293 412 OFFCURVE",
"266 417 OFFCURVE",
"237 417 CURVE SMOOTH",
"218 417 OFFCURVE",
"203 424 OFFCURVE",
"192 438 CURVE SMOOTH",
"182 450 OFFCURVE",
"178 463 OFFCURVE",
"178 478 CURVE SMOOTH",
"178 483 LINE",
"183 500 LINE",
"185 505 LINE SMOOTH",
"187 509 OFFCURVE",
"190 513 OFFCURVE",
"193 516 CURVE SMOOTH",
"195 518 OFFCURVE",
"194 518 OFFCURVE",
"196 518 CURVE",
"200 523 OFFCURVE",
"206 528 OFFCURVE",
"215 531 CURVE",
"218 533 OFFCURVE",
"221 534 OFFCURVE",
"226 534 CURVE",
"239 536 LINE",
"252 534 LINE",
"253 533 OFFCURVE",
"254 533 OFFCURVE",
"255 533 CURVE",
"256 533 OFFCURVE",
"257 533 OFFCURVE",
"258 532 CURVE",
"259 531 LINE",
"272 527 OFFCURVE",
"282 521 OFFCURVE",
"287 513 CURVE SMOOTH",
"292 505 OFFCURVE",
"295 496 OFFCURVE",
"296 486 CURVE",
"297 484 OFFCURVE",
"297 481 OFFCURVE",
"297 477 CURVE SMOOTH",
"297 446 LINE",
"446 446 LINE",
"446 473 OFFCURVE",
"443 498 OFFCURVE",
"438 523 CURVE SMOOTH",
"433 547 OFFCURVE",
"424 569 OFFCURVE",
"412 590 CURVE SMOOTH",
"400 610 OFFCURVE",
"384 628 OFFCURVE",
"365 643 CURVE SMOOTH",
"345 658 OFFCURVE",
"321 669 OFFCURVE",
"293 677 CURVE SMOOTH",
"274 682 OFFCURVE",
"255 685 OFFCURVE",
"236 685 CURVE",
"218 684 LINE",
"193 681 OFFCURVE",
"169 675 OFFCURVE",
"147 664 CURVE SMOOTH",
"125 653 OFFCURVE",
"105 639 OFFCURVE",
"88 621 CURVE SMOOTH",
"70 603 OFFCURVE",
"56 582 OFFCURVE",
"46 558 CURVE",
"45 551 LINE",
"45 546 OFFCURVE",
"47 542 OFFCURVE",
"53 538 CURVE",
"56 537 OFFCURVE",
"60 536 OFFCURVE",
"66 536 CURVE SMOOTH",
"85 536 OFFCURVE",
"95 526 OFFCURVE",
"95 506 CURVE SMOOTH",
"95 446 LINE SMOOTH",
"95 427 OFFCURVE",
"85 417 OFFCURVE",
"66 417 CURVE SMOOTH",
"61 417 OFFCURVE",
"57 416 OFFCURVE",
"53 414 CURVE SMOOTH",
"47 411 OFFCURVE",
"44 408 OFFCURVE",
"44 403 CURVE",
"46 395 LINE",
"54 376 OFFCURVE",
"65 358 OFFCURVE",
"78 343 CURVE SMOOTH",
"91 327 OFFCURVE",
"105 314 OFFCURVE",
"122 303 CURVE SMOOTH",
"139 292 OFFCURVE",
"157 283 OFFCURVE",
"177 277 CURVE SMOOTH",
"196 271 OFFCURVE",
"216 268 OFFCURVE",
"237 268 CURVE SMOOTH",
"254 268 OFFCURVE",
"268 262 OFFCURVE",
"280 251 CURVE",
"291 239 OFFCURVE",
"297 225 OFFCURVE",
"297 209 CURVE SMOOTH",
"297 192 OFFCURVE",
"291 178 OFFCURVE",
"280 167 CURVE SMOOTH",
"268 155 OFFCURVE",
"254 149 OFFCURVE",
"237 149 CURVE SMOOTH",
"221 149 OFFCURVE",
"207 155 OFFCURVE",
"196 167 CURVE",
"184 178 OFFCURVE",
"178 192 OFFCURVE",
"178 209 CURVE SMOOTH",
"178 238 LINE",
"29 238 LINE",
"29 209 LINE SMOOTH",
"29 180 OFFCURVE",
"35 153 OFFCURVE",
"46 128 CURVE SMOOTH",
"57 103 OFFCURVE",
"71 81 OFFCURVE",
"90 62 CURVE SMOOTH",
"109 43 OFFCURVE",
"131 28 OFFCURVE",
"156 17 CURVE SMOOTH",
"181 6 OFFCURVE",
"208 0 OFFCURVE",
"237 0 CURVE SMOOTH"
);
}
);
width = 480;
}
);
unicode = 0053;
},
{
glyphname = T;
layers = (
{
layerId = "4FF56D86-EDA3-44A7-BEE3-77B51CD88509";
paths = (
{
nodes = (
"279 0 LINE",
"279 535 LINE",
"398 535 LINE",
"398 684 LINE",
"12 684 LINE",
"12 535 LINE",
"160 535 LINE SMOOTH",
"180 535 OFFCURVE",
"190 525 OFFCURVE",
"190 505 CURVE SMOOTH",
"190 446 LINE SMOOTH",
"190 426 OFFCURVE",
"180 416 OFFCURVE",
"160 416 CURVE SMOOTH",
"141 416 OFFCURVE",
"131 406 OFFCURVE",
"131 386 CURVE SMOOTH",
"131 0 LINE"
);
}
);
width = 415;
}
);
unicode = 0054;
},
{
glyphname = U;
layers = (
{
layerId = "4FF56D86-EDA3-44A7-BEE3-77B51CD88509";
paths = (
{
nodes = (
"238 0 LINE",
"259 0 OFFCURVE",
"280 4 OFFCURVE",
"302 11 CURVE SMOOTH",
"328 19 OFFCURVE",
"352 33 OFFCURVE",
"373 52 CURVE SMOOTH",
"397 73 OFFCURVE",
"414 96 OFFCURVE",
"425 121 CURVE SMOOTH",
"435 146 OFFCURVE",
"442 172 OFFCURVE",
"445 199 CURVE SMOOTH",
"447 216 OFFCURVE",
"448 233 OFFCURVE",
"448 250 CURVE",
"447 280 LINE SMOOTH",
"446 307 OFFCURVE",
"445 333 OFFCURVE",
"445 358 CURVE SMOOTH",
"445 685 LINE",
"296 685 LINE",
"296 258 LINE SMOOTH",
"296 246 OFFCURVE",
"297 234 OFFCURVE",
"298 223 CURVE",
"298 215 LINE SMOOTH",
"298 207 OFFCURVE",
"297 197 OFFCURVE",
"293 188 CURVE SMOOTH",
"288 174 OFFCURVE",
"281 164 OFFCURVE",
"273 158 CURVE SMOOTH",
"264 152 OFFCURVE",
"252 149 OFFCURVE",
"237 149 CURVE SMOOTH",
"222 149 OFFCURVE",
"210 152 OFFCURVE",
"202 158 CURVE SMOOTH",
"193 164 OFFCURVE",
"186 174 OFFCURVE",
"181 188 CURVE SMOOTH",
"177 197 OFFCURVE",
"176 207 OFFCURVE",
"176 215 CURVE SMOOTH",
"176 223 LINE",
"177 234 OFFCURVE",
"178 246 OFFCURVE",
"178 258 CURVE SMOOTH",
"178 685 LINE",
"29 685 LINE",
"29 566 LINE SMOOTH",
"29 546 OFFCURVE",
"39 536 OFFCURVE",
"59 536 CURVE SMOOTH",
"78 536 OFFCURVE",
"88 526 OFFCURVE",
"88 506 CURVE SMOOTH",
"88 447 LINE SMOOTH",
"88 427 OFFCURVE",
"78 417 OFFCURVE",
"59 417 CURVE SMOOTH",
"39 417 OFFCURVE",
"29 407 OFFCURVE",
"29 387 CURVE SMOOTH",
"29 366 OFFCURVE",
"29 341 OFFCURVE",
"28 314 CURVE SMOOTH",
"27 279 LINE",
"29 229 LINE",
"31 200 OFFCURVE",
"36 171 OFFCURVE",
"43 144 CURVE SMOOTH",
"50 117 OFFCURVE",
"63 93 OFFCURVE",
"80 73 CURVE SMOOTH",
"99 51 OFFCURVE",
"121 34 OFFCURVE",
"146 22 CURVE SMOOTH",
"171 10 OFFCURVE",
"196 3 OFFCURVE",
"223 1 CURVE SMOOTH"
);
}
);
width = 475;
}
);
unicode = 0055;
},
{
glyphname = V;
layers = (
{
layerId = "4FF56D86-EDA3-44A7-BEE3-77B51CD88509";
paths = (
{
nodes = (
"312 0 LINE",
"446 147 OFFCURVE",
"446 238 OFFCURVE",
"446 327 CURVE SMOOTH",
"446 684 LINE",
"297 684 LINE",
"297 279 LINE",
"294 259 OFFCURVE",
"292 238 OFFCURVE",
"283 218 CURVE SMOOTH",
"270 190 OFFCURVE",
"258 165 OFFCURVE",
"238 143 CURVE",
"220 164 OFFCURVE",
"204 194 OFFCURVE",
"193 218 CURVE SMOOTH",
"184 237 OFFCURVE",
"182 259 OFFCURVE",
"179 279 CURVE",
"179 684 LINE",
"30 684 LINE",
"30 565 LINE SMOOTH",
"30 545 OFFCURVE",
"40 535 OFFCURVE",
"60 535 CURVE SMOOTH",
"79 535 OFFCURVE",
"89 525 OFFCURVE",
"89 505 CURVE SMOOTH",
"89 446 LINE SMOOTH",
"89 426 OFFCURVE",
"79 416 OFFCURVE",
"60 416 CURVE SMOOTH",
"40 416 OFFCURVE",
"30 406 OFFCURVE",
"30 386 CURVE SMOOTH",
"30 327 LINE SMOOTH",
"30 235 OFFCURVE",
"33 144 OFFCURVE",
"164 0 CURVE"
);
}
);
width = 475;
}
);
unicode = 0056;
},
{
glyphname = W;
layers = (
{
layerId = "4FF56D86-EDA3-44A7-BEE3-77B51CD88509";
paths = (
{
nodes = (
"581 0 LINE",
"715 150 OFFCURVE",
"715 238 OFFCURVE",
"715 327 CURVE SMOOTH",
"715 684 LINE",
"566 684 LINE",
"566 307 LINE SMOOTH",
"566 290 OFFCURVE",
"565 274 OFFCURVE",
"563 255 CURVE SMOOTH",
"558 217 OFFCURVE",
"532 171 OFFCURVE",
"507 143 CURVE",
"488 165 OFFCURVE",
"473 194 OFFCURVE",
"462 218 CURVE SMOOTH",
"449 247 OFFCURVE",
"451 279 OFFCURVE",
"447 307 CURVE",
"447 684 LINE",
"299 684 LINE",
"299 314 LINE SMOOTH",
"299 285 OFFCURVE",
"298 261 OFFCURVE",
"289 231 CURVE SMOOTH",
"280 200 OFFCURVE",
"257 165 OFFCURVE",
"239 143 CURVE",
"214 179 LINE",
"192 213 OFFCURVE",
"180 254 OFFCURVE",
"180 293 CURVE SMOOTH",
"180 684 LINE",
"31 684 LINE",
"31 565 LINE SMOOTH",
"31 545 OFFCURVE",
"41 535 OFFCURVE",
"61 535 CURVE SMOOTH",
"81 535 OFFCURVE",
"91 525 OFFCURVE",
"91 506 CURVE SMOOTH",
"91 446 LINE SMOOTH",
"91 426 OFFCURVE",
"81 416 OFFCURVE",
"61 416 CURVE SMOOTH",
"41 416 OFFCURVE",
"31 406 OFFCURVE",
"31 387 CURVE SMOOTH",
"31 327 LINE SMOOTH",
"31 235 OFFCURVE",
"32 149 OFFCURVE",
"165 0 CURVE",
"314 0 LINE",
"337 26 OFFCURVE",
"357 51 OFFCURVE",
"373 74 CURVE",
"389 51 OFFCURVE",
"409 27 OFFCURVE",
"433 0 CURVE"
);
}
);
width = 745;
}
);
unicode = 0057;
},
{
glyphname = X;
layers = (
{
layerId = "4FF56D86-EDA3-44A7-BEE3-77B51CD88509";
paths = (
{
nodes = (
"446 0 LINE",
"446 21 OFFCURVE",
"447 45 OFFCURVE",
"448 73 CURVE",
"448 95 LINE SMOOTH",
"448 116 OFFCURVE",
"447 137 OFFCURVE",
"446 158 CURVE SMOOTH",
"444 187 OFFCURVE",
"440 215 OFFCURVE",
"433 242 CURVE SMOOTH",
"426 269 OFFCURVE",
"414 293 OFFCURVE",
"397 312 CURVE",
"409 326 OFFCURVE",
"418 340 OFFCURVE",
"425 355 CURVE SMOOTH",
"431 369 OFFCURVE",
"436 384 OFFCURVE",
"439 399 CURVE SMOOTH",
"442 414 OFFCURVE",
"444 429 OFFCURVE",
"445 444 CURVE SMOOTH",
"446 459 OFFCURVE",
"446 475 OFFCURVE",
"446 492 CURVE SMOOTH",
"446 684 LINE",
"297 684 LINE",
"297 518 LINE SMOOTH",
"297 505 OFFCURVE",
"298 492 OFFCURVE",
"299 477 CURVE",
"299 465 LINE SMOOTH",
"299 454 OFFCURVE",
"298 444 OFFCURVE",
"297 434 CURVE",
"294 421 OFFCURVE",
"289 410 OFFCURVE",
"280 401 CURVE SMOOTH",
"271 392 OFFCURVE",
"257 387 OFFCURVE",
"237 387 CURVE SMOOTH",
"218 387 OFFCURVE",
"204 392 OFFCURVE",
"195 401 CURVE SMOOTH",
"186 410 OFFCURVE",
"181 421 OFFCURVE",
"178 434 CURVE SMOOTH",
"176 442 OFFCURVE",
"175 451 OFFCURVE",
"175 461 CURVE",
"176 477 LINE SMOOTH",
"177 492 OFFCURVE",
"178 505 OFFCURVE",
"178 518 CURVE SMOOTH",
"178 684 LINE",
"29 684 LINE",
"29 565 LINE SMOOTH",
"29 545 OFFCURVE",
"39 535 OFFCURVE",
"59 535 CURVE SMOOTH",
"79 535 OFFCURVE",
"89 525 OFFCURVE",
"89 506 CURVE SMOOTH",
"89 446 LINE SMOOTH",
"89 426 OFFCURVE",
"79 416 OFFCURVE",
"59 416 CURVE SMOOTH",
"52 416 OFFCURVE",
"46 414 OFFCURVE",
"41 410 CURVE SMOOTH",
"37 408 OFFCURVE",
"35 404 OFFCURVE",
"35 400 CURVE",
"36 395 LINE",
"40 380 OFFCURVE",
"45 365 OFFCURVE",
"52 352 CURVE SMOOTH",
"59 338 OFFCURVE",
"67 325 OFFCURVE",
"78 312 CURVE",
"61 293 OFFCURVE",
"50 269 OFFCURVE",
"43 242 CURVE SMOOTH",
"36 215 OFFCURVE",
"31 187 OFFCURVE",
"29 158 CURVE",
"27 107 LINE",
"28 73 LINE SMOOTH",
"29 45 OFFCURVE",
"29 21 OFFCURVE",
"29 0 CURVE",
"178 0 LINE",
"178 136 LINE SMOOTH",
"178 147 OFFCURVE",
"178 159 OFFCURVE",
"177 170 CURVE",
"177 176 LINE SMOOTH",
"177 185 OFFCURVE",
"179 194 OFFCURVE",
"183 203 CURVE SMOOTH",
"189 216 OFFCURVE",
"196 225 OFFCURVE",
"205 230 CURVE SMOOTH",
"213 235 OFFCURVE",
"224 238 OFFCURVE",
"237 238 CURVE SMOOTH",
"251 238 OFFCURVE",
"262 235 OFFCURVE",
"271 230 CURVE SMOOTH",
"279 225 OFFCURVE",
"286 216 OFFCURVE",
"291 203 CURVE SMOOTH",
"295 193 OFFCURVE",
"298 184 OFFCURVE",
"298 174 CURVE SMOOTH",
"298 170 LINE",
"297 159 OFFCURVE",
"297 147 OFFCURVE",
"297 136 CURVE SMOOTH",
"297 0 LINE"
);
}
);
width = 473;
}
);
unicode = 0058;
},
{
glyphname = Z;
layers = (
{
layerId = "4FF56D86-EDA3-44A7-BEE3-77B51CD88509";
paths = (
{
nodes = (
"418 0 LINE",
"418 149 LINE",
"202 149 LINE",
"418 535 LINE",
"418 684 LINE",
"31 684 LINE",
"31 535 LINE",
"242 535 LINE",
"253 534 OFFCURVE",
"262 529 OFFCURVE",
"267 520 CURVE SMOOTH",
"269 516 OFFCURVE",
"270 512 OFFCURVE",
"270 507 CURVE SMOOTH",
"270 502 OFFCURVE",
"269 497 OFFCURVE",
"266 492 CURVE SMOOTH",
"239 439 LINE SMOOTH",
"234 430 OFFCURVE",
"229 424 OFFCURVE",
"223 422 CURVE",
"216 421 LINE",
"211 421 OFFCURVE",
"205 423 OFFCURVE",
"199 426 CURVE",
"194 428 LINE",
"191 428 LINE",
"189 428 OFFCURVE",
"187 427 OFFCURVE",
"186 425 CURVE SMOOTH",
"31 149 LINE",
"31 0 LINE"
);
}
);
width = 449;
}
);
unicode = 005A;
},
{
glyphname = a;
layers = (
{
layerId = "4FF56D86-EDA3-44A7-BEE3-77B51CD88509";
paths = (
{
nodes = (
"447 0 LINE",
"447 471 LINE",
"446 488 OFFCURVE",
"444 505 OFFCURVE",
"441 521 CURVE SMOOTH",
"438 537 OFFCURVE",
"432 553 OFFCURVE",
"425 569 CURVE SMOOTH",
"418 584 OFFCURVE",
"407 600 OFFCURVE",
"394 615 CURVE SMOOTH",
"369 644 OFFCURVE",
"339 663 OFFCURVE",
"305 674 CURVE SMOOTH",
"283 681 OFFCURVE",
"260 685 OFFCURVE",
"238 685 CURVE SMOOTH",
"227 685 OFFCURVE",
"215 684 OFFCURVE",
"204 682 CURVE SMOOTH",
"171 676 OFFCURVE",
"140 662 OFFCURVE",
"112 641 CURVE SMOOTH",
"83 620 OFFCURVE",
"62 591 OFFCURVE",
"47 556 CURVE SMOOTH",
"45 552 OFFCURVE",
"45 549 OFFCURVE",
"45 547 CURVE",
"45 540 OFFCURVE",
"50 536 OFFCURVE",
"61 536 CURVE SMOOTH",
"81 536 OFFCURVE",
"91 526 OFFCURVE",
"91 506 CURVE SMOOTH",
"91 446 LINE SMOOTH",
"91 426 OFFCURVE",
"81 416 OFFCURVE",
"61 416 CURVE SMOOTH",
"41 416 OFFCURVE",
"31 406 OFFCURVE",
"31 387 CURVE SMOOTH",
"31 0 LINE",
"180 0 LINE",
"180 149 LINE",
"298 149 LINE",
"298 0 LINE"
);
},
{
nodes = (
"298 297 LINE",
"180 297 LINE",
"180 433 LINE SMOOTH",
"180 444 OFFCURVE",
"180 456 OFFCURVE",
"179 467 CURVE",
"179 473 LINE SMOOTH",
"179 482 OFFCURVE",
"181 492 OFFCURVE",
"185 501 CURVE SMOOTH",
"191 514 OFFCURVE",
"198 523 OFFCURVE",
"206 528 CURVE SMOOTH",
"214 533 OFFCURVE",
"225 536 OFFCURVE",
"239 536 CURVE SMOOTH",
"253 536 OFFCURVE",
"264 533 OFFCURVE",
"272 528 CURVE SMOOTH",
"280 523 OFFCURVE",
"287 514 OFFCURVE",
"293 501 CURVE SMOOTH",
"297 491 OFFCURVE",
"300 481 OFFCURVE",
"300 471 CURVE SMOOTH",
"300 467 LINE",
"299 456 OFFCURVE",
"298 444 OFFCURVE",
"298 433 CURVE SMOOTH"
);
}
);
width = 481;
}
);
unicode = 0061;
},
{
glyphname = b;
layers = (
{
layerId = "4FF56D86-EDA3-44A7-BEE3-77B51CD88509";
paths = (
{
nodes = (
"240 0 LINE SMOOTH",
"354 0 OFFCURVE",
"448 93 OFFCURVE",
"448 208 CURVE SMOOTH",
"448 263 OFFCURVE",
"432 302 OFFCURVE",
"399 341 CURVE",
"433 381 OFFCURVE",
"448 420 OFFCURVE",
"448 475 CURVE SMOOTH",
"448 589 OFFCURVE",
"355 683 OFFCURVE",
"240 683 CURVE SMOOTH",
"32 683 LINE",
"32 564 LINE SMOOTH",
"32 545 OFFCURVE",
"42 535 OFFCURVE",
"61 535 CURVE SMOOTH",
"81 535 OFFCURVE",
"91 525 OFFCURVE",
"91 505 CURVE SMOOTH",
"91 445 LINE SMOOTH",
"91 426 OFFCURVE",
"81 416 OFFCURVE",
"61 416 CURVE SMOOTH",
"42 416 OFFCURVE",
"32 406 OFFCURVE",
"32 386 CURVE SMOOTH",
"32 0 LINE"
);
},
{
nodes = (
"180 148 LINE",
"180 267 LINE",
"240 267 LINE SMOOTH",
"273 267 OFFCURVE",
"299 242 OFFCURVE",
"299 208 CURVE SMOOTH",
"299 175 OFFCURVE",
"274 148 OFFCURVE",
"240 148 CURVE SMOOTH"
);
},
{
nodes = (
"180 416 LINE",
"180 535 LINE",
"240 535 LINE SMOOTH",
"274 535 OFFCURVE",
"299 508 OFFCURVE",
"299 475 CURVE SMOOTH",
"299 444 OFFCURVE",
"274 416 OFFCURVE",
"240 416 CURVE SMOOTH"
);
}
);
width = 474;
}
);
unicode = 0062;
},
{
glyphname = c;
layers = (
{
layerId = "4FF56D86-EDA3-44A7-BEE3-77B51CD88509";
paths = (
{
nodes = (
"248 0 OFFCURVE",
"259 1 OFFCURVE",
"270 3 CURVE SMOOTH",
"306 9 OFFCURVE",
"338 24 OFFCURVE",
"367 47 CURVE SMOOTH",
"384 60 OFFCURVE",
"397 74 OFFCURVE",
"408 89 CURVE SMOOTH",
"418 103 OFFCURVE",
"426 118 OFFCURVE",
"431 134 CURVE SMOOTH",
"436 149 OFFCURVE",
"440 166 OFFCURVE",
"442 183 CURVE SMOOTH",
"444 200 OFFCURVE",
"445 219 OFFCURVE",
"445 239 CURVE",
"296 239 LINE",
"296 224 OFFCURVE",
"296 209 OFFCURVE",
"295 196 CURVE SMOOTH",
"294 183 OFFCURVE",
"285 171 OFFCURVE",
"270 160 CURVE SMOOTH",
"260 153 OFFCURVE",
"249 149 OFFCURVE",
"238 149 CURVE",
"229 150 LINE SMOOTH",
"214 152 OFFCURVE",
"201 159 OFFCURVE",
"191 171 CURVE SMOOTH",
"181 183 OFFCURVE",
"176 196 OFFCURVE",
"176 209 CURVE SMOOTH",
"176 212 LINE",
"177 226 OFFCURVE",
"177 240 OFFCURVE",
"177 255 CURVE SMOOTH",
"177 376 LINE",
"176 402 LINE",
"177 429 LINE SMOOTH",
"178 448 OFFCURVE",
"179 465 OFFCURVE",
"181 482 CURVE SMOOTH",
"183 499 OFFCURVE",
"186 510 OFFCURVE",
"191 515 CURVE SMOOTH",
"201 526 OFFCURVE",
"214 533 OFFCURVE",
"229 536 CURVE",
"238 537 LINE",
"249 537 OFFCURVE",
"260 533 OFFCURVE",
"270 526 CURVE SMOOTH",
"285 515 OFFCURVE",
"294 503 OFFCURVE",
"295 490 CURVE SMOOTH",
"296 477 OFFCURVE",
"296 462 OFFCURVE",
"296 447 CURVE",
"445 447 LINE",
"445 474 OFFCURVE",
"442 499 OFFCURVE",
"437 524 CURVE SMOOTH",
"432 548 OFFCURVE",
"423 570 OFFCURVE",
"411 591 CURVE SMOOTH",
"399 611 OFFCURVE",
"383 628 OFFCURVE",
"364 643 CURVE SMOOTH",
"344 658 OFFCURVE",
"320 669 OFFCURVE",
"292 677 CURVE SMOOTH",
"273 682 OFFCURVE",
"254 685 OFFCURVE",
"235 685 CURVE",
"217 684 LINE",
"192 681 OFFCURVE",
"168 675 OFFCURVE",
"146 664 CURVE SMOOTH",
"124 653 OFFCURVE",
"104 639 OFFCURVE",
"87 621 CURVE SMOOTH",
"69 602 OFFCURVE",
"55 581 OFFCURVE",
"45 557 CURVE SMOOTH",
"43 553 OFFCURVE",
"42 549 OFFCURVE",
"42 546 CURVE SMOOTH",
"42 539 OFFCURVE",
"47 536 OFFCURVE",
"58 536 CURVE SMOOTH",
"78 536 OFFCURVE",
"88 526 OFFCURVE",
"88 506 CURVE SMOOTH",
"88 447 LINE SMOOTH",
"88 427 OFFCURVE",
"78 417 OFFCURVE",
"58 417 CURVE SMOOTH",
"38 417 OFFCURVE",
"28 407 OFFCURVE",
"28 387 CURVE SMOOTH",
"28 216 LINE SMOOTH",
"28 202 OFFCURVE",
"30 187 OFFCURVE",
"32 172 CURVE",
"39 136 OFFCURVE",
"54 104 OFFCURVE",
"77 76 CURVE SMOOTH",
"100 48 OFFCURVE",
"129 27 OFFCURVE",
"164 14 CURVE SMOOTH",
"188 5 OFFCURVE",
"213 0 OFFCURVE",
"237 0 CURVE SMOOTH"
);
}
);
width = 469;
}
);
unicode = 0063;
},
{
glyphname = e;
layers = (
{
layerId = "4FF56D86-EDA3-44A7-BEE3-77B51CD88509";
paths = (
{
nodes = (
"423 0 LINE",
"423 149 LINE",
"238 149 LINE SMOOTH",
"222 149 OFFCURVE",
"210 152 OFFCURVE",
"201 159 CURVE SMOOTH",
"192 166 OFFCURVE",
"186 177 OFFCURVE",
"181 192 CURVE SMOOTH",
"178 202 OFFCURVE",
"177 212 OFFCURVE",
"177 222 CURVE SMOOTH",
"177 231 LINE",
"178 243 OFFCURVE",
"179 255 OFFCURVE",
"179 268 CURVE",
"387 268 LINE",
"387 417 LINE",
"179 417 LINE",
"179 430 OFFCURVE",
"178 442 OFFCURVE",
"177 455 CURVE",
"177 464 LINE SMOOTH",
"177 473 OFFCURVE",
"178 483 OFFCURVE",
"181 493 CURVE SMOOTH",
"186 508 OFFCURVE",
"192 519 OFFCURVE",
"201 526 CURVE SMOOTH",
"210 533 OFFCURVE",
"222 536 OFFCURVE",
"238 536 CURVE SMOOTH",
"423 536 LINE",
"423 684 LINE",
"238 684 LINE SMOOTH",
"196 684 OFFCURVE",
"158 673 OFFCURVE",
"123 650 CURVE SMOOTH",
"88 627 OFFCURVE",
"62 595 OFFCURVE",
"46 556 CURVE",
"44 547 LINE",
"44 540 OFFCURVE",
"49 536 OFFCURVE",
"60 536 CURVE SMOOTH",
"79 536 OFFCURVE",
"89 526 OFFCURVE",
"89 506 CURVE SMOOTH",
"89 446 LINE SMOOTH",
"89 427 OFFCURVE",
"79 417 OFFCURVE",
"60 417 CURVE SMOOTH",
"40 417 OFFCURVE",
"30 407 OFFCURVE",
"30 387 CURVE SMOOTH",
"30 252 LINE",
"31 228 OFFCURVE",
"32 206 OFFCURVE",
"34 185 CURVE SMOOTH",
"36 164 OFFCURVE",
"39 147 OFFCURVE",
"43 136 CURVE SMOOTH",
"58 95 OFFCURVE",
"84 62 OFFCURVE",
"119 37 CURVE SMOOTH",
"154 12 OFFCURVE",
"194 0 OFFCURVE",
"238 0 CURVE SMOOTH"
);
}
);
width = 457;
}
);
unicode = 0065;
},
{
glyphname = f;
layers = (
{
layerId = "4FF56D86-EDA3-44A7-BEE3-77B51CD88509";
paths = (
{
nodes = (
"185 0 LINE",
"185 268 LINE",
"374 268 LINE",
"374 416 LINE",
"185 416 LINE",
"185 429 OFFCURVE",
"185 442 OFFCURVE",
"184 455 CURVE",
"184 464 LINE SMOOTH",
"184 473 OFFCURVE",
"185 482 OFFCURVE",
"187 492 CURVE",
"192 507 OFFCURVE",
"198 518 OFFCURVE",
"207 525 CURVE SMOOTH",
"216 532 OFFCURVE",
"228 535 OFFCURVE",
"245 535 CURVE SMOOTH",
"406 535 LINE",
"406 684 LINE",
"245 684 LINE SMOOTH",
"202 684 OFFCURVE",
"164 672 OFFCURVE",
"129 649 CURVE SMOOTH",
"94 626 OFFCURVE",
"69 595 OFFCURVE",
"52 556 CURVE",
"51 552 OFFCURVE",
"50 549 OFFCURVE",
"50 546 CURVE SMOOTH",
"50 539 OFFCURVE",
"55 535 OFFCURVE",
"66 535 CURVE SMOOTH",
"86 535 OFFCURVE",
"96 525 OFFCURVE",
"96 505 CURVE SMOOTH",
"96 446 LINE SMOOTH",
"96 426 OFFCURVE",
"86 416 OFFCURVE",
"66 416 CURVE SMOOTH",
"46 416 OFFCURVE",
"36 406 OFFCURVE",
"36 387 CURVE SMOOTH",
"36 0 LINE"
);
}
);
width = 423;
}
);
unicode = 0066;
},
{
glyphname = g;
layers = (
{
layerId = "4FF56D86-EDA3-44A7-BEE3-77B51CD88509";
paths = (
{
nodes = (
"254 0 LINE",
"287 2 OFFCURVE",
"316 10 OFFCURVE",
"341 24 CURVE SMOOTH",
"365 37 OFFCURVE",
"385 55 OFFCURVE",
"401 76 CURVE SMOOTH",
"417 97 OFFCURVE",
"429 122 OFFCURVE",
"437 150 CURVE SMOOTH",
"444 177 OFFCURVE",
"448 206 OFFCURVE",
"448 237 CURVE SMOOTH",
"448 386 LINE",
"239 386 LINE",
"239 237 LINE",
"299 237 LINE",
"299 209 LINE SMOOTH",
"299 200 OFFCURVE",
"298 191 OFFCURVE",
"295 184 CURVE SMOOTH",
"292 176 OFFCURVE",
"288 169 OFFCURVE",
"282 163 CURVE SMOOTH",
"276 157 OFFCURVE",
"267 153 OFFCURVE",
"254 150 CURVE",
"249 148 OFFCURVE",
"244 148 OFFCURVE",
"239 148 CURVE SMOOTH",
"235 148 OFFCURVE",
"231 148 OFFCURVE",
"227 149 CURVE SMOOTH",
"218 151 OFFCURVE",
"211 155 OFFCURVE",
"204 160 CURVE SMOOTH",
"197 165 OFFCURVE",
"191 172 OFFCURVE",
"187 180 CURVE SMOOTH",
"182 188 OFFCURVE",
"180 197 OFFCURVE",
"180 207 CURVE SMOOTH",
"180 480 LINE SMOOTH",
"180 489 OFFCURVE",
"183 499 OFFCURVE",
"190 508 CURVE SMOOTH",
"197 518 OFFCURVE",
"204 525 OFFCURVE",
"212 529 CURVE SMOOTH",
"219 532 OFFCURVE",
"227 534 OFFCURVE",
"236 534 CURVE SMOOTH",
"242 534 LINE",
"257 533 OFFCURVE",
"268 531 OFFCURVE",
"276 526 CURVE SMOOTH",
"283 521 OFFCURVE",
"289 514 OFFCURVE",
"293 506 CURVE SMOOTH",
"296 498 OFFCURVE",
"298 489 OFFCURVE",
"299 478 CURVE",
"299 445 LINE",
"448 445 LINE",
"448 472 OFFCURVE",
"445 497 OFFCURVE",
"440 522 CURVE SMOOTH",
"435 546 OFFCURVE",
"426 568 OFFCURVE",
"414 589 CURVE SMOOTH",
"402 609 OFFCURVE",
"386 626 OFFCURVE",
"367 641 CURVE SMOOTH",
"347 656 OFFCURVE",
"323 667 OFFCURVE",
"295 675 CURVE SMOOTH",
"276 680 OFFCURVE",
"257 683 OFFCURVE",
"238 683 CURVE",
"220 682 LINE",
"195 679 OFFCURVE",
"171 673 OFFCURVE",
"149 662 CURVE SMOOTH",
"126 651 OFFCURVE",
"106 637 OFFCURVE",
"89 619 CURVE SMOOTH",
"71 600 OFFCURVE",
"57 579 OFFCURVE",
"47 555 CURVE",
"46 551 OFFCURVE",
"45 548 OFFCURVE",
"45 545 CURVE SMOOTH",
"45 538 OFFCURVE",
"50 534 OFFCURVE",
"61 534 CURVE SMOOTH",
"81 534 OFFCURVE",
"91 524 OFFCURVE",
"91 505 CURVE SMOOTH",
"91 445 LINE SMOOTH",
"91 425 OFFCURVE",
"81 415 OFFCURVE",
"61 415 CURVE SMOOTH",
"41 415 OFFCURVE",
"31 405 OFFCURVE",
"31 386 CURVE SMOOTH",
"31 207 LINE SMOOTH",
"31 177 OFFCURVE",
"37 149 OFFCURVE",
"49 123 CURVE SMOOTH",
"61 96 OFFCURVE",
"77 74 OFFCURVE",
"98 55 CURVE SMOOTH",
"118 36 OFFCURVE",
"142 21 OFFCURVE",
"169 12 CURVE SMOOTH",
"192 4 OFFCURVE",
"215 0 OFFCURVE",
"239 0 CURVE SMOOTH"
);
}
);
width = 477;
}
);
unicode = 0067;
},
{
glyphname = i;
layers = (
{
layerId = "4FF56D86-EDA3-44A7-BEE3-77B51CD88509";
paths = (
{
nodes = (
"185 0 LINE",
"185 684 LINE",
"37 684 LINE",
"37 565 LINE SMOOTH",
"37 545 OFFCURVE",
"47 535 OFFCURVE",
"66 535 CURVE SMOOTH",
"86 535 OFFCURVE",
"96 525 OFFCURVE",
"96 505 CURVE SMOOTH",
"96 446 LINE SMOOTH",
"96 426 OFFCURVE",
"86 416 OFFCURVE",
"66 416 CURVE SMOOTH",
"47 416 OFFCURVE",
"37 406 OFFCURVE",
"37 387 CURVE SMOOTH",
"37 0 LINE"
);
}
);
width = 224;
}
);
unicode = 0069;
},
{
glyphname = j;
layers = (
{
layerId = "4FF56D86-EDA3-44A7-BEE3-77B51CD88509";
paths = (
{
nodes = (
"269 0 OFFCURVE",
"306 11 OFFCURVE",
"341 33 CURVE SMOOTH",
"361 46 OFFCURVE",
"377 59 OFFCURVE",
"390 74 CURVE SMOOTH",
"403 89 OFFCURVE",
"412 105 OFFCURVE",
"419 122 CURVE SMOOTH",
"426 139 OFFCURVE",
"430 157 OFFCURVE",
"433 176 CURVE SMOOTH",
"435 195 OFFCURVE",
"436 216 OFFCURVE",
"436 238 CURVE SMOOTH",
"436 684 LINE",
"288 684 LINE",
"288 565 LINE SMOOTH",
"288 545 OFFCURVE",
"298 535 OFFCURVE",
"318 535 CURVE SMOOTH",
"337 535 OFFCURVE",
"347 525 OFFCURVE",
"347 506 CURVE SMOOTH",
"347 446 LINE SMOOTH",
"347 426 OFFCURVE",
"337 416 OFFCURVE",
"318 416 CURVE SMOOTH",
"298 416 OFFCURVE",
"288 406 OFFCURVE",
"288 387 CURVE SMOOTH",
"288 288 LINE SMOOTH",
"288 271 OFFCURVE",
"289 255 OFFCURVE",
"291 239 CURVE",
"291 231 LINE SMOOTH",
"291 217 OFFCURVE",
"289 203 OFFCURVE",
"285 189 CURVE SMOOTH",
"280 172 OFFCURVE",
"269 161 OFFCURVE",
"253 154 CURVE SMOOTH",
"245 151 OFFCURVE",
"237 149 OFFCURVE",
"229 149 CURVE SMOOTH",
"221 149 OFFCURVE",
"213 151 OFFCURVE",
"205 154 CURVE SMOOTH",
"194 159 OFFCURVE",
"187 164 OFFCURVE",
"182 170 CURVE SMOOTH",
"177 176 OFFCURVE",
"173 183 OFFCURVE",
"171 190 CURVE SMOOTH",
"170 195 OFFCURVE",
"169 200 OFFCURVE",
"169 206 CURVE SMOOTH",
"169 238 LINE",
"20 238 LINE",
"20 216 OFFCURVE",
"21 195 OFFCURVE",
"24 176 CURVE SMOOTH",
"26 157 OFFCURVE",
"31 139 OFFCURVE",
"38 122 CURVE SMOOTH",
"45 105 OFFCURVE",
"54 89 OFFCURVE",
"67 74 CURVE SMOOTH",
"79 59 OFFCURVE",
"95 46 OFFCURVE",
"116 33 CURVE SMOOTH",
"150 11 OFFCURVE",
"187 0 OFFCURVE",
"228 0 CURVE SMOOTH"
);
}
);
width = 470;
}
);
unicode = 006A;
},
{
glyphname = k;
layers = (
{
layerId = "4FF56D86-EDA3-44A7-BEE3-77B51CD88509";
paths = (
{
nodes = (
"451 0 LINE",
"451 208 LINE SMOOTH",
"451 263 OFFCURVE",
"436 302 OFFCURVE",
"402 342 CURVE",
"436 382 OFFCURVE",
"451 421 OFFCURVE",
"451 476 CURVE SMOOTH",
"451 684 LINE",
"302 684 LINE",
"302 476 LINE SMOOTH",
"302 443 OFFCURVE",
"277 416 OFFCURVE",
"243 416 CURVE SMOOTH",
"184 416 LINE",
"184 684 LINE",
"35 684 LINE",
"35 565 LINE SMOOTH",
"35 545 OFFCURVE",
"45 535 OFFCURVE",
"65 535 CURVE SMOOTH",
"84 535 OFFCURVE",
"94 525 OFFCURVE",
"94 506 CURVE SMOOTH",
"94 446 LINE SMOOTH",
"94 426 OFFCURVE",
"84 416 OFFCURVE",
"65 416 CURVE SMOOTH",
"45 416 OFFCURVE",
"35 406 OFFCURVE",
"35 387 CURVE SMOOTH",
"35 0 LINE",
"184 0 LINE",
"184 267 LINE",
"243 267 LINE SMOOTH",
"276 267 OFFCURVE",
"302 242 OFFCURVE",
"302 208 CURVE SMOOTH",
"302 0 LINE"
);
}
);
width = 490;
}
);
unicode = 006B;
},
{
glyphname = l;
layers = (
{
layerId = "4FF56D86-EDA3-44A7-BEE3-77B51CD88509";
paths = (
{
nodes = (
"335 0 LINE",
"335 148 LINE",
"186 148 LINE",
"186 684 LINE",
"38 684 LINE",
"38 565 LINE SMOOTH",
"38 545 OFFCURVE",
"48 535 OFFCURVE",
"67 535 CURVE SMOOTH",
"87 535 OFFCURVE",
"97 525 OFFCURVE",
"97 505 CURVE SMOOTH",
"97 446 LINE SMOOTH",
"97 426 OFFCURVE",
"87 416 OFFCURVE",
"67 416 CURVE SMOOTH",
"48 416 OFFCURVE",
"38 406 OFFCURVE",
"38 386 CURVE SMOOTH",
"38 0 LINE"
);
}
);
width = 355;
}
);
unicode = 006C;
},
{
glyphname = m;
layers = (
{
layerId = "4FF56D86-EDA3-44A7-BEE3-77B51CD88509";
paths = (
{
nodes = (
"717 0 LINE",
"717 393 LINE SMOOTH",
"717 408 OFFCURVE",
"717 424 OFFCURVE",
"718 439 CURVE",
"718 454 OFFCURVE",
"718 470 OFFCURVE",
"717 485 CURVE SMOOTH",
"716 500 OFFCURVE",
"713 514 OFFCURVE",
"710 529 CURVE SMOOTH",
"707 544 OFFCURVE",
"701 559 OFFCURVE",
"693 574 CURVE SMOOTH",
"677 603 OFFCURVE",
"656 626 OFFCURVE",
"631 644 CURVE SMOOTH",
"606 662 OFFCURVE",
"578 674 OFFCURVE",
"549 680 CURVE",
"535 682 OFFCURVE",
"522 684 OFFCURVE",
"508 684 CURVE SMOOTH",
"492 684 OFFCURVE",
"475 682 OFFCURVE",
"459 678 CURVE SMOOTH",
"428 671 OFFCURVE",
"400 656 OFFCURVE",
"375 635 CURVE",
"348 658 OFFCURVE",
"319 672 OFFCURVE",
"287 679 CURVE SMOOTH",
"272 682 OFFCURVE",
"257 684 OFFCURVE",
"242 684 CURVE SMOOTH",
"225 684 OFFCURVE",
"209 682 OFFCURVE",
"192 678 CURVE SMOOTH",
"161 670 OFFCURVE",
"133 656 OFFCURVE",
"108 635 CURVE SMOOTH",
"83 614 OFFCURVE",
"63 588 OFFCURVE",
"50 556 CURVE SMOOTH",
"48 552 OFFCURVE",
"47 548 OFFCURVE",
"47 545 CURVE SMOOTH",
"47 538 OFFCURVE",
"52 535 OFFCURVE",
"63 535 CURVE SMOOTH",
"83 535 OFFCURVE",
"93 525 OFFCURVE",
"93 505 CURVE SMOOTH",
"93 446 LINE SMOOTH",
"93 426 OFFCURVE",
"83 416 OFFCURVE",
"63 416 CURVE SMOOTH",
"44 416 OFFCURVE",
"34 406 OFFCURVE",
"34 387 CURVE SMOOTH",
"34 0 LINE",
"182 0 LINE",
"182 427 LINE SMOOTH",
"182 438 OFFCURVE",
"182 450 OFFCURVE",
"181 462 CURVE",
"181 470 LINE SMOOTH",
"181 478 OFFCURVE",
"182 488 OFFCURVE",
"186 497 CURVE SMOOTH",
"191 511 OFFCURVE",
"198 521 OFFCURVE",
"207 527 CURVE SMOOTH",
"215 532 OFFCURVE",
"227 535 OFFCURVE",
"242 535 CURVE SMOOTH",
"257 535 OFFCURVE",
"269 532 OFFCURVE",
"277 527 CURVE SMOOTH",
"285 521 OFFCURVE",
"292 511 OFFCURVE",
"297 497 CURVE SMOOTH",
"301 487 OFFCURVE",
"303 477 OFFCURVE",
"303 468 CURVE SMOOTH",
"303 462 LINE",
"302 450 OFFCURVE",
"301 438 OFFCURVE",
"301 427 CURVE SMOOTH",
"301 0 LINE",
"450 0 LINE",
"450 427 LINE SMOOTH",
"450 438 OFFCURVE",
"450 450 OFFCURVE",
"449 462 CURVE",
"449 470 LINE SMOOTH",
"449 479 OFFCURVE",
"450 488 OFFCURVE",
"453 497 CURVE SMOOTH",
"458 511 OFFCURVE",
"465 521 OFFCURVE",
"474 527 CURVE SMOOTH",
"482 532 OFFCURVE",
"494 535 OFFCURVE",
"509 535 CURVE SMOOTH",
"524 535 OFFCURVE",
"536 532 OFFCURVE",
"545 527 CURVE",
"553 521 OFFCURVE",
"560 511 OFFCURVE",
"565 497 CURVE SMOOTH",
"569 487 OFFCURVE",
"571 477 OFFCURVE",
"571 468 CURVE SMOOTH",
"571 462 LINE",
"570 450 OFFCURVE",
"569 438 OFFCURVE",
"569 427 CURVE SMOOTH",
"569 0 LINE"
);
}
);
width = 752;
}
);
unicode = 006D;
},
{
glyphname = n;
layers = (
{
layerId = "4FF56D86-EDA3-44A7-BEE3-77B51CD88509";
paths = (
{
nodes = (
"451 0 LINE",
"451 471 LINE",
"450 488 OFFCURVE",
"448 504 OFFCURVE",
"445 521 CURVE SMOOTH",
"442 537 OFFCURVE",
"436 553 OFFCURVE",
"429 568 CURVE SMOOTH",
"422 583 OFFCURVE",
"411 599 OFFCURVE",
"398 614 CURVE SMOOTH",
"373 643 OFFCURVE",
"343 662 OFFCURVE",
"309 673 CURVE SMOOTH",
"287 680 OFFCURVE",
"264 684 OFFCURVE",
"242 684 CURVE SMOOTH",
"231 684 OFFCURVE",
"219 683 OFFCURVE",
"208 681 CURVE SMOOTH",
"175 675 OFFCURVE",
"144 662 OFFCURVE",
"116 641 CURVE SMOOTH",
"87 620 OFFCURVE",
"66 591 OFFCURVE",
"51 556 CURVE SMOOTH",
"49 552 OFFCURVE",
"48 549 OFFCURVE",
"48 546 CURVE",
"48 544 OFFCURVE",
"49 542 OFFCURVE",
"50 541 CURVE",
"53 537 OFFCURVE",
"58 535 OFFCURVE",
"65 535 CURVE SMOOTH",
"85 535 OFFCURVE",
"95 525 OFFCURVE",
"95 505 CURVE SMOOTH",
"95 446 LINE SMOOTH",
"95 426 OFFCURVE",
"85 416 OFFCURVE",
"65 416 CURVE SMOOTH",
"45 416 OFFCURVE",
"35 406 OFFCURVE",
"35 386 CURVE SMOOTH",
"35 0 LINE",
"184 0 LINE",
"184 427 LINE SMOOTH",
"184 438 OFFCURVE",
"183 450 OFFCURVE",
"182 462 CURVE",
"182 470 LINE SMOOTH",
"182 478 OFFCURVE",
"183 487 OFFCURVE",
"187 496 CURVE",
"192 511 OFFCURVE",
"199 521 OFFCURVE",
"208 527 CURVE SMOOTH",
"216 532 OFFCURVE",
"228 535 OFFCURVE",
"243 535 CURVE SMOOTH",
"258 535 OFFCURVE",
"270 532 OFFCURVE",
"279 527 CURVE",
"287 521 OFFCURVE",
"294 511 OFFCURVE",
"299 496 CURVE",
"303 487 OFFCURVE",
"304 478 OFFCURVE",
"304 470 CURVE SMOOTH",
"304 462 LINE",
"303 450 OFFCURVE",
"302 438 OFFCURVE",
"302 427 CURVE SMOOTH",
"302 0 LINE"
);
}
);
width = 485;
}
);
unicode = 006E;
},
{
glyphname = o;
layers = (
{
layerId = "4FF56D86-EDA3-44A7-BEE3-77B51CD88509";
paths = (
{
nodes = (
"250 1 OFFCURVE",
"265 3 OFFCURVE",
"281 6 CURVE SMOOTH",
"316 14 OFFCURVE",
"345 27 OFFCURVE",
"367 44 CURVE SMOOTH",
"388 61 OFFCURVE",
"407 86 OFFCURVE",
"423 118 CURVE SMOOTH",
"438 149 OFFCURVE",
"445 179 OFFCURVE",
"446 209 CURVE SMOOTH",
"447 239 OFFCURVE",
"447 270 OFFCURVE",
"447 302 CURVE SMOOTH",
"447 329 OFFCURVE",
"448 358 OFFCURVE",
"450 389 CURVE",
"450 411 LINE SMOOTH",
"450 435 OFFCURVE",
"449 459 OFFCURVE",
"446 483 CURVE SMOOTH",
"442 514 OFFCURVE",
"433 544 OFFCURVE",
"420 573 CURVE SMOOTH",
"407 601 OFFCURVE",
"385 625 OFFCURVE",
"356 646 CURVE SMOOTH",
"329 665 OFFCURVE",
"300 677 OFFCURVE",
"269 682 CURVE SMOOTH",
"258 684 OFFCURVE",
"246 685 OFFCURVE",
"235 685 CURVE SMOOTH",
"216 685 OFFCURVE",
"197 682 OFFCURVE",
"179 677 CURVE SMOOTH",
"150 668 OFFCURVE",
"123 654 OFFCURVE",
"99 633 CURVE SMOOTH",
"74 612 OFFCURVE",
"56 587 OFFCURVE",
"43 556 CURVE",
"41 547 LINE",
"41 540 OFFCURVE",
"46 536 OFFCURVE",
"57 536 CURVE SMOOTH",
"77 536 OFFCURVE",
"87 526 OFFCURVE",
"87 506 CURVE SMOOTH",
"87 447 LINE SMOOTH",
"87 427 OFFCURVE",
"77 417 OFFCURVE",
"57 417 CURVE SMOOTH",
"37 417 OFFCURVE",
"27 407 OFFCURVE",
"27 387 CURVE SMOOTH",
"27 209 LINE SMOOTH",
"27 176 OFFCURVE",
"34 145 OFFCURVE",
"49 117 CURVE",
"63 88 OFFCURVE",
"82 65 OFFCURVE",
"106 46 CURVE SMOOTH",
"129 27 OFFCURVE",
"156 14 OFFCURVE",
"187 7 CURVE SMOOTH",
"203 3 OFFCURVE",
"218 1 OFFCURVE",
"234 1 CURVE SMOOTH"
);
},
{
nodes = (
"226 150 LINE",
"217 151 OFFCURVE",
"208 155 OFFCURVE",
"201 160 CURVE SMOOTH",
"194 165 OFFCURVE",
"188 172 OFFCURVE",
"183 181 CURVE SMOOTH",
"178 190 OFFCURVE",
"176 199 OFFCURVE",
"176 209 CURVE SMOOTH",
"176 436 LINE SMOOTH",
"176 446 OFFCURVE",
"176 456 OFFCURVE",
"175 466 CURVE",
"175 473 LINE SMOOTH",
"175 480 OFFCURVE",
"176 486 OFFCURVE",
"177 493 CURVE SMOOTH",
"179 501 OFFCURVE",
"183 509 OFFCURVE",
"189 516 CURVE SMOOTH",
"194 523 OFFCURVE",
"203 528 OFFCURVE",
"216 533 CURVE SMOOTH",
"223 535 OFFCURVE",
"230 536 OFFCURVE",
"237 536 CURVE SMOOTH",
"244 536 LINE",
"253 534 OFFCURVE",
"262 530 OFFCURVE",
"270 525 CURVE SMOOTH",
"277 520 OFFCURVE",
"283 513 OFFCURVE",
"288 504 CURVE SMOOTH",
"293 495 OFFCURVE",
"295 486 OFFCURVE",
"295 476 CURVE SMOOTH",
"295 249 LINE SMOOTH",
"295 239 OFFCURVE",
"295 229 OFFCURVE",
"296 220 CURVE",
"296 212 LINE SMOOTH",
"296 205 OFFCURVE",
"295 199 OFFCURVE",
"294 193 CURVE SMOOTH",
"292 184 OFFCURVE",
"288 177 OFFCURVE",
"283 170 CURVE SMOOTH",
"277 163 OFFCURVE",
"268 158 OFFCURVE",
"255 153 CURVE SMOOTH",
"248 151 OFFCURVE",
"240 150 OFFCURVE",
"233 150 CURVE SMOOTH"
);
}
);
width = 475;
}
);
unicode = 006F;
},
{
glyphname = p;
layers = (
{
layerId = "4FF56D86-EDA3-44A7-BEE3-77B51CD88509";
paths = (
{
nodes = (
"184 0 LINE",
"184 268 LINE",
"243 268 LINE SMOOTH",
"357 268 OFFCURVE",
"451 361 OFFCURVE",
"451 476 CURVE SMOOTH",
"451 590 OFFCURVE",
"358 684 OFFCURVE",
"243 684 CURVE SMOOTH",
"35 684 LINE",
"35 565 LINE SMOOTH",
"35 545 OFFCURVE",
"45 535 OFFCURVE",
"65 535 CURVE SMOOTH",
"84 535 OFFCURVE",
"94 525 OFFCURVE",
"94 506 CURVE SMOOTH",
"94 446 LINE SMOOTH",
"94 427 OFFCURVE",
"84 417 OFFCURVE",
"65 417 CURVE SMOOTH",
"45 417 OFFCURVE",
"35 407 OFFCURVE",
"35 387 CURVE SMOOTH",
"35 0 LINE"
);
},
{
nodes = (
"184 417 LINE",
"184 535 LINE",
"243 535 LINE SMOOTH",
"276 535 OFFCURVE",
"303 510 OFFCURVE",
"303 476 CURVE SMOOTH",
"303 442 OFFCURVE",
"276 417 OFFCURVE",
"243 417 CURVE SMOOTH"
);
}
);
width = 464;
}
);
unicode = 0070;
},
{
glyphname = q;
layers = (
{
layerId = "4FF56D86-EDA3-44A7-BEE3-77B51CD88509";
paths = (
{
nodes = (
"310 -55 LINE",
"310 18 LINE",
"358 37 OFFCURVE",
"392 65 OFFCURVE",
"413 104 CURVE SMOOTH",
"433 142 OFFCURVE",
"443 185 OFFCURVE",
"443 234 CURVE SMOOTH",
"443 370 LINE SMOOTH",
"443 393 OFFCURVE",
"444 416 OFFCURVE",
"445 439 CURVE",
"445 456 LINE SMOOTH",
"445 472 OFFCURVE",
"444 489 OFFCURVE",
"442 506 CURVE SMOOTH",
"437 541 OFFCURVE",
"426 572 OFFCURVE",
"409 598 CURVE",
"391 623 OFFCURVE",
"370 643 OFFCURVE",
"345 658 CURVE SMOOTH",
"320 673 OFFCURVE",
"292 682 OFFCURVE",
"263 686 CURVE SMOOTH",
"253 687 OFFCURVE",
"243 688 OFFCURVE",
"233 688 CURVE SMOOTH",
"214 688 OFFCURVE",
"195 686 OFFCURVE",
"177 681 CURVE SMOOTH",
"149 673 OFFCURVE",
"123 659 OFFCURVE",
"99 639 CURVE SMOOTH",
"75 619 OFFCURVE",
"56 593 OFFCURVE",
"43 560 CURVE SMOOTH",
"42 556 OFFCURVE",
"41 553 OFFCURVE",
"41 550 CURVE SMOOTH",
"41 543 OFFCURVE",
"46 539 OFFCURVE",
"57 539 CURVE SMOOTH",
"77 539 OFFCURVE",
"87 529 OFFCURVE",
"87 510 CURVE SMOOTH",
"87 450 LINE SMOOTH",
"87 430 OFFCURVE",
"77 420 OFFCURVE",
"57 420 CURVE SMOOTH",
"37 420 OFFCURVE",
"27 410 OFFCURVE",
"27 391 CURVE SMOOTH",
"27 212 LINE SMOOTH",
"27 191 OFFCURVE",
"30 170 OFFCURVE",
"37 150 CURVE SMOOTH",
"43 130 OFFCURVE",
"52 112 OFFCURVE",
"64 95 CURVE SMOOTH",
"75 78 OFFCURVE",
"89 63 OFFCURVE",
"106 50 CURVE SMOOTH",
"123 37 OFFCURVE",
"141 26 OFFCURVE",
"161 18 CURVE",
"161 -55 LINE"
);
},
{
nodes = (
"226 154 LINE SMOOTH",
"217 155 OFFCURVE",
"208 159 OFFCURVE",
"201 164 CURVE SMOOTH",
"194 169 OFFCURVE",
"188 176 OFFCURVE",
"183 185 CURVE SMOOTH",
"178 193 OFFCURVE",
"176 202 OFFCURVE",
"176 212 CURVE SMOOTH",
"176 440 LINE SMOOTH",
"176 450 OFFCURVE",
"176 460 OFFCURVE",
"175 469 CURVE",
"175 476 LINE SMOOTH",
"175 483 OFFCURVE",
"176 489 OFFCURVE",
"177 496 CURVE SMOOTH",
"178 505 OFFCURVE",
"182 512 OFFCURVE",
"188 519 CURVE SMOOTH",
"193 526 OFFCURVE",
"202 531 OFFCURVE",
"215 536 CURVE",
"223 538 OFFCURVE",
"230 539 OFFCURVE",
"237 539 CURVE SMOOTH",
"244 539 LINE",
"253 538 OFFCURVE",
"262 534 OFFCURVE",
"270 529 CURVE SMOOTH",
"277 524 OFFCURVE",
"283 517 OFFCURVE",
"288 508 CURVE SMOOTH",
"293 499 OFFCURVE",
"295 490 OFFCURVE",
"295 480 CURVE SMOOTH",
"295 253 LINE SMOOTH",
"295 243 OFFCURVE",
"295 233 OFFCURVE",
"296 224 CURVE",
"296 216 LINE SMOOTH",
"296 209 OFFCURVE",
"295 203 OFFCURVE",
"294 196 CURVE SMOOTH",
"292 187 OFFCURVE",
"288 180 OFFCURVE",
"283 173 CURVE SMOOTH",
"277 166 OFFCURVE",
"268 161 OFFCURVE",
"255 156 CURVE SMOOTH",
"249 154 OFFCURVE",
"242 153 OFFCURVE",
"236 153 CURVE"
);
}
);
width = 471;
}
);
unicode = 0071;
},
{
glyphname = r;
layers = (
{
layerId = "4FF56D86-EDA3-44A7-BEE3-77B51CD88509";
paths = (
{
nodes = (
"452 0 LINE",
"452 208 LINE SMOOTH",
"452 263 OFFCURVE",
"437 302 OFFCURVE",
"404 342 CURVE",
"437 382 OFFCURVE",
"452 421 OFFCURVE",
"452 476 CURVE SMOOTH",
"452 590 OFFCURVE",
"359 684 OFFCURVE",
"245 684 CURVE SMOOTH",
"36 684 LINE",
"36 565 LINE SMOOTH",
"36 545 OFFCURVE",
"46 535 OFFCURVE",
"66 535 CURVE SMOOTH",
"86 535 OFFCURVE",
"96 525 OFFCURVE",
"96 505 CURVE SMOOTH",
"96 446 LINE SMOOTH",
"96 426 OFFCURVE",
"86 416 OFFCURVE",
"66 416 CURVE SMOOTH",
"46 416 OFFCURVE",
"36 406 OFFCURVE",
"36 387 CURVE SMOOTH",
"36 0 LINE",
"185 0 LINE",
"185 268 LINE",
"245 268 LINE SMOOTH",
"276 268 OFFCURVE",
"304 242 OFFCURVE",
"304 208 CURVE SMOOTH",
"304 0 LINE"
);
},
{
nodes = (
"185 416 LINE",
"185 535 LINE",
"245 535 LINE SMOOTH",
"276 535 OFFCURVE",
"304 510 OFFCURVE",
"304 476 CURVE SMOOTH",
"304 442 OFFCURVE",
"276 416 OFFCURVE",
"245 416 CURVE SMOOTH"
);
}
);
width = 482;
}
);
unicode = 0072;
},
{
glyphname = s;
layers = (
{
layerId = "4FF56D86-EDA3-44A7-BEE3-77B51CD88509";
paths = (
{
nodes = (
"266 0 OFFCURVE",
"293 6 OFFCURVE",
"318 17 CURVE SMOOTH",
"343 28 OFFCURVE",
"366 43 OFFCURVE",
"385 62 CURVE SMOOTH",
"404 81 OFFCURVE",
"419 103 OFFCURVE",
"430 128 CURVE SMOOTH",
"441 153 OFFCURVE",
"446 180 OFFCURVE",
"446 209 CURVE SMOOTH",
"446 238 OFFCURVE",
"441 265 OFFCURVE",
"430 290 CURVE SMOOTH",
"419 315 OFFCURVE",
"404 337 OFFCURVE",
"385 356 CURVE SMOOTH",
"366 375 OFFCURVE",
"343 390 OFFCURVE",
"318 401 CURVE SMOOTH",
"293 412 OFFCURVE",
"266 417 OFFCURVE",
"237 417 CURVE SMOOTH",
"218 417 OFFCURVE",
"203 424 OFFCURVE",
"192 438 CURVE SMOOTH",
"182 450 OFFCURVE",
"178 463 OFFCURVE",
"178 478 CURVE SMOOTH",
"178 483 LINE",
"183 500 LINE",
"185 505 LINE SMOOTH",
"187 509 OFFCURVE",
"190 513 OFFCURVE",
"193 516 CURVE SMOOTH",
"195 518 OFFCURVE",
"194 518 OFFCURVE",
"196 518 CURVE",
"200 523 OFFCURVE",
"206 528 OFFCURVE",
"215 531 CURVE",
"218 533 OFFCURVE",
"221 534 OFFCURVE",
"226 534 CURVE",
"239 536 LINE",
"252 534 LINE",
"253 533 OFFCURVE",
"254 533 OFFCURVE",
"255 533 CURVE",
"256 533 OFFCURVE",
"257 533 OFFCURVE",
"258 532 CURVE",
"259 531 LINE",
"272 527 OFFCURVE",
"282 521 OFFCURVE",
"287 513 CURVE SMOOTH",
"292 505 OFFCURVE",
"295 496 OFFCURVE",
"296 486 CURVE",
"297 484 OFFCURVE",
"297 481 OFFCURVE",
"297 477 CURVE SMOOTH",
"297 446 LINE",
"446 446 LINE",
"446 473 OFFCURVE",
"443 498 OFFCURVE",
"438 523 CURVE SMOOTH",
"433 547 OFFCURVE",
"424 569 OFFCURVE",
"412 590 CURVE SMOOTH",
"400 610 OFFCURVE",
"384 628 OFFCURVE",
"365 643 CURVE SMOOTH",
"345 658 OFFCURVE",
"321 669 OFFCURVE",
"293 677 CURVE SMOOTH",
"274 682 OFFCURVE",
"255 685 OFFCURVE",
"236 685 CURVE",
"218 684 LINE",
"193 681 OFFCURVE",
"169 675 OFFCURVE",
"147 664 CURVE SMOOTH",
"125 653 OFFCURVE",
"105 639 OFFCURVE",
"88 621 CURVE SMOOTH",
"70 603 OFFCURVE",
"56 582 OFFCURVE",
"46 558 CURVE",
"45 551 LINE",
"45 546 OFFCURVE",
"47 542 OFFCURVE",
"53 538 CURVE",
"56 537 OFFCURVE",
"60 536 OFFCURVE",
"66 536 CURVE SMOOTH",
"85 536 OFFCURVE",
"95 526 OFFCURVE",
"95 506 CURVE SMOOTH",
"95 446 LINE SMOOTH",
"95 427 OFFCURVE",
"85 417 OFFCURVE",
"66 417 CURVE SMOOTH",
"61 417 OFFCURVE",
"57 416 OFFCURVE",
"53 414 CURVE SMOOTH",
"47 411 OFFCURVE",
"44 408 OFFCURVE",
"44 403 CURVE",
"46 395 LINE",
"54 376 OFFCURVE",
"65 358 OFFCURVE",
"78 343 CURVE SMOOTH",
"91 327 OFFCURVE",
"105 314 OFFCURVE",
"122 303 CURVE SMOOTH",
"139 292 OFFCURVE",
"157 283 OFFCURVE",
"177 277 CURVE SMOOTH",
"196 271 OFFCURVE",
"216 268 OFFCURVE",
"237 268 CURVE SMOOTH",
"254 268 OFFCURVE",
"268 262 OFFCURVE",
"280 251 CURVE",
"291 239 OFFCURVE",
"297 225 OFFCURVE",
"297 209 CURVE SMOOTH",
"297 192 OFFCURVE",
"291 178 OFFCURVE",
"280 167 CURVE SMOOTH",
"268 155 OFFCURVE",
"254 149 OFFCURVE",
"237 149 CURVE SMOOTH",
"221 149 OFFCURVE",
"207 155 OFFCURVE",
"196 167 CURVE",
"184 178 OFFCURVE",
"178 192 OFFCURVE",
"178 209 CURVE SMOOTH",
"178 238 LINE",
"29 238 LINE",
"29 209 LINE SMOOTH",
"29 180 OFFCURVE",
"35 153 OFFCURVE",
"46 128 CURVE SMOOTH",
"57 103 OFFCURVE",
"71 81 OFFCURVE",
"90 62 CURVE SMOOTH",
"109 43 OFFCURVE",
"131 28 OFFCURVE",
"156 17 CURVE SMOOTH",
"181 6 OFFCURVE",
"208 0 OFFCURVE",
"237 0 CURVE SMOOTH"
);
}
);
width = 480;
}
);
unicode = 0073;
},
{
glyphname = t;
layers = (
{
layerId = "4FF56D86-EDA3-44A7-BEE3-77B51CD88509";
paths = (
{
nodes = (
"279 0 LINE",
"279 535 LINE",
"398 535 LINE",
"398 684 LINE",
"12 684 LINE",
"12 535 LINE",
"160 535 LINE SMOOTH",
"180 535 OFFCURVE",
"190 525 OFFCURVE",
"190 505 CURVE SMOOTH",
"190 446 LINE SMOOTH",
"190 426 OFFCURVE",
"180 416 OFFCURVE",
"160 416 CURVE SMOOTH",
"141 416 OFFCURVE",
"131 406 OFFCURVE",
"131 386 CURVE SMOOTH",
"131 0 LINE"
);
}
);
width = 415;
}
);
unicode = 0074;
},
{
glyphname = u;
layers = (
{
layerId = "4FF56D86-EDA3-44A7-BEE3-77B51CD88509";
paths = (
{
nodes = (
"238 0 LINE",
"259 0 OFFCURVE",
"280 4 OFFCURVE",
"302 11 CURVE SMOOTH",
"328 19 OFFCURVE",
"352 33 OFFCURVE",
"373 52 CURVE SMOOTH",
"397 73 OFFCURVE",
"414 96 OFFCURVE",
"425 121 CURVE SMOOTH",
"435 146 OFFCURVE",
"442 172 OFFCURVE",
"445 199 CURVE SMOOTH",
"447 216 OFFCURVE",
"448 233 OFFCURVE",
"448 250 CURVE",
"447 280 LINE SMOOTH",
"446 307 OFFCURVE",
"445 333 OFFCURVE",
"445 358 CURVE SMOOTH",
"445 685 LINE",
"296 685 LINE",
"296 258 LINE SMOOTH",
"296 246 OFFCURVE",
"297 234 OFFCURVE",
"298 223 CURVE",
"298 215 LINE SMOOTH",
"298 207 OFFCURVE",
"297 197 OFFCURVE",
"293 188 CURVE SMOOTH",
"288 174 OFFCURVE",
"281 164 OFFCURVE",
"273 158 CURVE SMOOTH",
"264 152 OFFCURVE",
"252 149 OFFCURVE",
"237 149 CURVE SMOOTH",
"222 149 OFFCURVE",
"210 152 OFFCURVE",
"202 158 CURVE SMOOTH",
"193 164 OFFCURVE",
"186 174 OFFCURVE",
"181 188 CURVE SMOOTH",
"177 197 OFFCURVE",
"176 207 OFFCURVE",
"176 215 CURVE SMOOTH",
"176 223 LINE",
"177 234 OFFCURVE",
"178 246 OFFCURVE",
"178 258 CURVE SMOOTH",
"178 685 LINE",
"29 685 LINE",
"29 566 LINE SMOOTH",
"29 546 OFFCURVE",
"39 536 OFFCURVE",
"59 536 CURVE SMOOTH",
"78 536 OFFCURVE",
"88 526 OFFCURVE",
"88 506 CURVE SMOOTH",
"88 447 LINE SMOOTH",
"88 427 OFFCURVE",
"78 417 OFFCURVE",
"59 417 CURVE SMOOTH",
"39 417 OFFCURVE",
"29 407 OFFCURVE",
"29 387 CURVE SMOOTH",
"29 366 OFFCURVE",
"29 341 OFFCURVE",
"28 314 CURVE SMOOTH",
"27 279 LINE",
"29 229 LINE",
"31 200 OFFCURVE",
"36 171 OFFCURVE",
"43 144 CURVE SMOOTH",
"50 117 OFFCURVE",
"63 93 OFFCURVE",
"80 73 CURVE SMOOTH",
"99 51 OFFCURVE",
"121 34 OFFCURVE",
"146 22 CURVE SMOOTH",
"171 10 OFFCURVE",
"196 3 OFFCURVE",
"223 1 CURVE SMOOTH"
);
}
);
width = 475;
}
);
unicode = 0075;
},
{
glyphname = v;
layers = (
{
layerId = "4FF56D86-EDA3-44A7-BEE3-77B51CD88509";
paths = (
{
nodes = (
"312 0 LINE",
"446 147 OFFCURVE",
"446 238 OFFCURVE",
"446 327 CURVE SMOOTH",
"446 684 LINE",
"297 684 LINE",
"297 279 LINE",
"294 259 OFFCURVE",
"292 238 OFFCURVE",
"283 218 CURVE SMOOTH",
"270 190 OFFCURVE",
"258 165 OFFCURVE",
"238 143 CURVE",
"220 164 OFFCURVE",
"204 194 OFFCURVE",
"193 218 CURVE SMOOTH",
"184 237 OFFCURVE",
"182 259 OFFCURVE",
"179 279 CURVE",
"179 684 LINE",
"30 684 LINE",
"30 565 LINE SMOOTH",
"30 545 OFFCURVE",
"40 535 OFFCURVE",
"60 535 CURVE SMOOTH",
"79 535 OFFCURVE",
"89 525 OFFCURVE",
"89 505 CURVE SMOOTH",
"89 446 LINE SMOOTH",
"89 426 OFFCURVE",
"79 416 OFFCURVE",
"60 416 CURVE SMOOTH",
"40 416 OFFCURVE",
"30 406 OFFCURVE",
"30 386 CURVE SMOOTH",
"30 327 LINE SMOOTH",
"30 235 OFFCURVE",
"33 144 OFFCURVE",
"164 0 CURVE"
);
}
);
width = 475;
}
);
unicode = 0076;
},
{
glyphname = w;
layers = (
{
layerId = "4FF56D86-EDA3-44A7-BEE3-77B51CD88509";
paths = (
{
nodes = (
"581 0 LINE",
"715 150 OFFCURVE",
"715 238 OFFCURVE",
"715 327 CURVE SMOOTH",
"715 684 LINE",
"566 684 LINE",
"566 307 LINE SMOOTH",
"566 290 OFFCURVE",
"565 274 OFFCURVE",
"563 255 CURVE SMOOTH",
"558 217 OFFCURVE",
"532 171 OFFCURVE",
"507 143 CURVE",
"488 165 OFFCURVE",
"473 194 OFFCURVE",
"462 218 CURVE SMOOTH",
"449 247 OFFCURVE",
"451 279 OFFCURVE",
"447 307 CURVE",
"447 684 LINE",
"299 684 LINE",
"299 314 LINE SMOOTH",
"299 285 OFFCURVE",
"298 261 OFFCURVE",
"289 231 CURVE SMOOTH",
"280 200 OFFCURVE",
"257 165 OFFCURVE",
"239 143 CURVE",
"214 179 LINE",
"192 213 OFFCURVE",
"180 254 OFFCURVE",
"180 293 CURVE SMOOTH",
"180 684 LINE",
"31 684 LINE",
"31 565 LINE SMOOTH",
"31 545 OFFCURVE",
"41 535 OFFCURVE",
"61 535 CURVE SMOOTH",
"81 535 OFFCURVE",
"91 525 OFFCURVE",
"91 506 CURVE SMOOTH",
"91 446 LINE SMOOTH",
"91 426 OFFCURVE",
"81 416 OFFCURVE",
"61 416 CURVE SMOOTH",
"41 416 OFFCURVE",
"31 406 OFFCURVE",
"31 387 CURVE SMOOTH",
"31 327 LINE SMOOTH",
"31 235 OFFCURVE",
"32 149 OFFCURVE",
"165 0 CURVE",
"314 0 LINE",
"337 26 OFFCURVE",
"357 51 OFFCURVE",
"373 74 CURVE",
"389 51 OFFCURVE",
"409 27 OFFCURVE",
"433 0 CURVE"
);
}
);
width = 745;
}
);
unicode = 0077;
},
{
glyphname = x;
layers = (
{
layerId = "4FF56D86-EDA3-44A7-BEE3-77B51CD88509";
paths = (
{
nodes = (
"446 0 LINE",
"446 21 OFFCURVE",
"447 45 OFFCURVE",
"448 73 CURVE",
"448 95 LINE SMOOTH",
"448 116 OFFCURVE",
"447 137 OFFCURVE",
"446 158 CURVE SMOOTH",
"444 187 OFFCURVE",
"440 215 OFFCURVE",
"433 242 CURVE SMOOTH",
"426 269 OFFCURVE",
"414 293 OFFCURVE",
"397 312 CURVE",
"409 326 OFFCURVE",
"418 340 OFFCURVE",
"425 355 CURVE SMOOTH",
"431 369 OFFCURVE",
"436 384 OFFCURVE",
"439 399 CURVE SMOOTH",
"442 414 OFFCURVE",
"444 429 OFFCURVE",
"445 444 CURVE SMOOTH",
"446 459 OFFCURVE",
"446 475 OFFCURVE",
"446 492 CURVE SMOOTH",
"446 684 LINE",
"297 684 LINE",
"297 518 LINE SMOOTH",
"297 505 OFFCURVE",
"298 492 OFFCURVE",
"299 477 CURVE",
"299 465 LINE SMOOTH",
"299 454 OFFCURVE",
"298 444 OFFCURVE",
"297 434 CURVE",
"294 421 OFFCURVE",
"289 410 OFFCURVE",
"280 401 CURVE SMOOTH",
"271 392 OFFCURVE",
"257 387 OFFCURVE",
"237 387 CURVE SMOOTH",
"218 387 OFFCURVE",
"204 392 OFFCURVE",
"195 401 CURVE SMOOTH",
"186 410 OFFCURVE",
"181 421 OFFCURVE",
"178 434 CURVE SMOOTH",
"176 442 OFFCURVE",
"175 451 OFFCURVE",
"175 461 CURVE",
"176 477 LINE SMOOTH",
"177 492 OFFCURVE",
"178 505 OFFCURVE",
"178 518 CURVE SMOOTH",
"178 684 LINE",
"29 684 LINE",
"29 565 LINE SMOOTH",
"29 545 OFFCURVE",
"39 535 OFFCURVE",
"59 535 CURVE SMOOTH",
"79 535 OFFCURVE",
"89 525 OFFCURVE",
"89 506 CURVE SMOOTH",
"89 446 LINE SMOOTH",
"89 426 OFFCURVE",
"79 416 OFFCURVE",
"59 416 CURVE SMOOTH",
"52 416 OFFCURVE",
"46 414 OFFCURVE",
"41 410 CURVE SMOOTH",
"37 408 OFFCURVE",
"35 404 OFFCURVE",
"35 400 CURVE",
"36 395 LINE",
"40 380 OFFCURVE",
"45 365 OFFCURVE",
"52 352 CURVE SMOOTH",
"59 338 OFFCURVE",
"67 325 OFFCURVE",
"78 312 CURVE",
"61 293 OFFCURVE",
"50 269 OFFCURVE",
"43 242 CURVE SMOOTH",
"36 215 OFFCURVE",
"31 187 OFFCURVE",
"29 158 CURVE",
"27 107 LINE",
"28 73 LINE SMOOTH",
"29 45 OFFCURVE",
"29 21 OFFCURVE",
"29 0 CURVE",
"178 0 LINE",
"178 136 LINE SMOOTH",
"178 147 OFFCURVE",
"178 159 OFFCURVE",
"177 170 CURVE",
"177 176 LINE SMOOTH",
"177 185 OFFCURVE",
"179 194 OFFCURVE",
"183 203 CURVE SMOOTH",
"189 216 OFFCURVE",
"196 225 OFFCURVE",
"205 230 CURVE SMOOTH",
"213 235 OFFCURVE",
"224 238 OFFCURVE",
"237 238 CURVE SMOOTH",
"251 238 OFFCURVE",
"262 235 OFFCURVE",
"271 230 CURVE SMOOTH",
"279 225 OFFCURVE",
"286 216 OFFCURVE",
"291 203 CURVE SMOOTH",
"295 193 OFFCURVE",
"298 184 OFFCURVE",
"298 174 CURVE SMOOTH",
"298 170 LINE",
"297 159 OFFCURVE",
"297 147 OFFCURVE",
"297 136 CURVE SMOOTH",
"297 0 LINE"
);
}
);
width = 473;
}
);
unicode = 0078;
},
{
glyphname = y;
layers = (
{
layerId = "4FF56D86-EDA3-44A7-BEE3-77B51CD88509";
paths = (
{
nodes = (
"307 0 LINE",
"307 251 LINE",
"327 258 OFFCURVE",
"345 268 OFFCURVE",
"361 281 CURVE SMOOTH",
"377 294 OFFCURVE",
"391 308 OFFCURVE",
"403 325 CURVE SMOOTH",
"414 341 OFFCURVE",
"423 359 OFFCURVE",
"430 378 CURVE SMOOTH",
"437 397 OFFCURVE",
"440 418 OFFCURVE",
"441 439 CURVE",
"442 526 LINE",
"442 562 LINE",
"441 602 OFFCURVE",
"441 643 OFFCURVE",
"441 684 CURVE",
"292 684 LINE",
"292 518 LINE SMOOTH",
"292 505 OFFCURVE",
"293 491 OFFCURVE",
"294 476 CURVE SMOOTH",
"295 460 LINE",
"295 450 OFFCURVE",
"294 441 OFFCURVE",
"292 433 CURVE SMOOTH",
"289 420 OFFCURVE",
"284 409 OFFCURVE",
"276 400 CURVE SMOOTH",
"267 391 OFFCURVE",
"253 386 OFFCURVE",
"233 386 CURVE SMOOTH",
"213 386 OFFCURVE",
"199 391 OFFCURVE",
"191 400 CURVE SMOOTH",
"182 409 OFFCURVE",
"177 420 OFFCURVE",
"174 433 CURVE SMOOTH",
"172 441 OFFCURVE",
"171 450 OFFCURVE",
"171 460 CURVE",
"172 476 LINE SMOOTH",
"173 491 OFFCURVE",
"174 505 OFFCURVE",
"174 518 CURVE SMOOTH",
"174 684 LINE",
"25 684 LINE",
"25 565 LINE SMOOTH",
"25 545 OFFCURVE",
"35 535 OFFCURVE",
"55 535 CURVE SMOOTH",
"74 535 OFFCURVE",
"84 525 OFFCURVE",
"84 505 CURVE SMOOTH",
"84 446 LINE SMOOTH",
"84 426 OFFCURVE",
"74 416 OFFCURVE",
"55 416 CURVE SMOOTH",
"48 416 OFFCURVE",
"42 414 OFFCURVE",
"37 410 CURVE SMOOTH",
"34 407 OFFCURVE",
"32 404 OFFCURVE",
"32 399 CURVE",
"33 385 LINE",
"34 380 OFFCURVE",
"36 375 OFFCURVE",
"38 370 CURVE SMOOTH",
"43 360 LINE",
"50 343 OFFCURVE",
"59 328 OFFCURVE",
"71 313 CURVE SMOOTH",
"83 298 OFFCURVE",
"96 285 OFFCURVE",
"111 276 CURVE SMOOTH",
"125 267 OFFCURVE",
"141 258 OFFCURVE",
"159 251 CURVE",
"159 0 LINE"
);
}
);
width = 469;
}
);
unicode = 0079;
},
{
glyphname = z;
layers = (
{
layerId = "4FF56D86-EDA3-44A7-BEE3-77B51CD88509";
paths = (
{
nodes = (
"418 0 LINE",
"418 149 LINE",
"202 149 LINE",
"418 535 LINE",
"418 684 LINE",
"31 684 LINE",
"31 535 LINE",
"242 535 LINE",
"253 534 OFFCURVE",
"262 529 OFFCURVE",
"267 520 CURVE SMOOTH",
"269 516 OFFCURVE",
"270 512 OFFCURVE",
"270 507 CURVE SMOOTH",
"270 502 OFFCURVE",
"269 497 OFFCURVE",
"266 492 CURVE SMOOTH",
"239 439 LINE SMOOTH",
"234 430 OFFCURVE",
"229 424 OFFCURVE",
"223 422 CURVE",
"216 421 LINE",
"211 421 OFFCURVE",
"205 423 OFFCURVE",
"199 426 CURVE",
"194 428 LINE",
"191 428 LINE",
"189 428 OFFCURVE",
"187 427 OFFCURVE",
"186 425 CURVE SMOOTH",
"31 149 LINE",
"31 0 LINE"
);
}
);
width = 449;
}
);
unicode = 007A;
},
{
glyphname = zero;
layers = (
{
layerId = "4FF56D86-EDA3-44A7-BEE3-77B51CD88509";
paths = (
{
nodes = (
"250 1 OFFCURVE",
"265 3 OFFCURVE",
"281 6 CURVE SMOOTH",
"316 14 OFFCURVE",
"345 27 OFFCURVE",
"367 44 CURVE SMOOTH",
"388 61 OFFCURVE",
"407 86 OFFCURVE",
"423 118 CURVE SMOOTH",
"438 149 OFFCURVE",
"445 179 OFFCURVE",
"446 209 CURVE SMOOTH",
"447 239 OFFCURVE",
"447 270 OFFCURVE",
"447 302 CURVE SMOOTH",
"447 329 OFFCURVE",
"448 358 OFFCURVE",
"450 389 CURVE",
"450 411 LINE SMOOTH",
"450 435 OFFCURVE",
"449 459 OFFCURVE",
"446 483 CURVE SMOOTH",
"442 514 OFFCURVE",
"433 544 OFFCURVE",
"420 573 CURVE SMOOTH",
"407 601 OFFCURVE",
"385 625 OFFCURVE",
"356 646 CURVE SMOOTH",
"329 665 OFFCURVE",
"300 677 OFFCURVE",
"269 682 CURVE SMOOTH",
"258 684 OFFCURVE",
"246 685 OFFCURVE",
"235 685 CURVE SMOOTH",
"216 685 OFFCURVE",
"197 682 OFFCURVE",
"179 677 CURVE SMOOTH",
"150 668 OFFCURVE",
"123 654 OFFCURVE",
"99 633 CURVE SMOOTH",
"74 612 OFFCURVE",
"56 587 OFFCURVE",
"43 556 CURVE",
"41 547 LINE",
"41 540 OFFCURVE",
"46 536 OFFCURVE",
"57 536 CURVE SMOOTH",
"77 536 OFFCURVE",
"87 526 OFFCURVE",
"87 506 CURVE SMOOTH",
"87 447 LINE SMOOTH",
"87 427 OFFCURVE",
"77 417 OFFCURVE",
"57 417 CURVE SMOOTH",
"37 417 OFFCURVE",
"27 407 OFFCURVE",
"27 387 CURVE SMOOTH",
"27 209 LINE SMOOTH",
"27 176 OFFCURVE",
"34 145 OFFCURVE",
"49 117 CURVE",
"63 88 OFFCURVE",
"82 65 OFFCURVE",
"106 46 CURVE SMOOTH",
"129 27 OFFCURVE",
"156 14 OFFCURVE",
"187 7 CURVE SMOOTH",
"203 3 OFFCURVE",
"218 1 OFFCURVE",
"234 1 CURVE SMOOTH"
);
},
{
nodes = (
"226 150 LINE",
"217 151 OFFCURVE",
"208 155 OFFCURVE",
"201 160 CURVE SMOOTH",
"194 165 OFFCURVE",
"188 172 OFFCURVE",
"183 181 CURVE SMOOTH",
"178 190 OFFCURVE",
"176 199 OFFCURVE",
"176 209 CURVE SMOOTH",
"176 436 LINE SMOOTH",
"176 446 OFFCURVE",
"176 456 OFFCURVE",
"175 466 CURVE",
"175 473 LINE SMOOTH",
"175 480 OFFCURVE",
"176 486 OFFCURVE",
"177 493 CURVE SMOOTH",
"179 501 OFFCURVE",
"183 509 OFFCURVE",
"189 516 CURVE SMOOTH",
"194 523 OFFCURVE",
"203 528 OFFCURVE",
"216 533 CURVE SMOOTH",
"223 535 OFFCURVE",
"230 536 OFFCURVE",
"237 536 CURVE SMOOTH",
"244 536 LINE",
"253 534 OFFCURVE",
"262 530 OFFCURVE",
"270 525 CURVE SMOOTH",
"277 520 OFFCURVE",
"283 513 OFFCURVE",
"288 504 CURVE SMOOTH",
"293 495 OFFCURVE",
"295 486 OFFCURVE",
"295 476 CURVE SMOOTH",
"295 249 LINE SMOOTH",
"295 239 OFFCURVE",
"295 229 OFFCURVE",
"296 220 CURVE",
"296 212 LINE SMOOTH",
"296 205 OFFCURVE",
"295 199 OFFCURVE",
"294 193 CURVE SMOOTH",
"292 184 OFFCURVE",
"288 177 OFFCURVE",
"283 170 CURVE SMOOTH",
"277 163 OFFCURVE",
"268 158 OFFCURVE",
"255 153 CURVE SMOOTH",
"248 151 OFFCURVE",
"240 150 OFFCURVE",
"233 150 CURVE SMOOTH"
);
}
);
width = 475;
}
);
unicode = 0030;
},
{
glyphname = one;
layers = (
{
layerId = "4FF56D86-EDA3-44A7-BEE3-77B51CD88509";
paths = (
{
nodes = (
"238 0 LINE",
"238 683 LINE",
"20 683 LINE",
"20 535 LINE",
"119 535 LINE SMOOTH",
"139 535 OFFCURVE",
"149 525 OFFCURVE",
"149 505 CURVE SMOOTH",
"149 446 LINE SMOOTH",
"149 426 OFFCURVE",
"139 416 OFFCURVE",
"119 416 CURVE SMOOTH",
"99 416 OFFCURVE",
"89 406 OFFCURVE",
"89 386 CURVE SMOOTH",
"89 0 LINE"
);
}
);
width = 271;
}
);
unicode = 0031;
},
{
glyphname = two;
layers = (
{
layerId = "4FF56D86-EDA3-44A7-BEE3-77B51CD88509";
paths = (
{
nodes = (
"448 0 LINE",
"448 148 LINE",
"180 148 LINE",
"180 208 LINE SMOOTH",
"180 225 OFFCURVE",
"186 239 OFFCURVE",
"198 250 CURVE SMOOTH",
"209 261 OFFCURVE",
"223 267 OFFCURVE",
"240 267 CURVE SMOOTH",
"282 267 OFFCURVE",
"319 278 OFFCURVE",
"351 299 CURVE SMOOTH",
"383 320 OFFCURVE",
"408 347 OFFCURVE",
"425 380 CURVE SMOOTH",
"441 410 OFFCURVE",
"448 443 OFFCURVE",
"448 479 CURVE SMOOTH",
"448 486 LINE",
"447 524 OFFCURVE",
"434 560 OFFCURVE",
"410 595 CURVE SMOOTH",
"394 618 OFFCURVE",
"375 636 OFFCURVE",
"354 650 CURVE SMOOTH",
"332 664 OFFCURVE",
"309 674 OFFCURVE",
"285 679 CURVE SMOOTH",
"270 682 OFFCURVE",
"255 684 OFFCURVE",
"240 684 CURVE",
"213 682 LINE",
"188 679 OFFCURVE",
"165 672 OFFCURVE",
"144 661 CURVE SMOOTH",
"122 650 OFFCURVE",
"102 634 OFFCURVE",
"85 615 CURVE SMOOTH",
"67 596 OFFCURVE",
"53 573 OFFCURVE",
"44 547 CURVE",
"44 545 LINE",
"44 543 OFFCURVE",
"46 541 OFFCURVE",
"48 539 CURVE SMOOTH",
"51 536 OFFCURVE",
"56 535 OFFCURVE",
"62 535 CURVE SMOOTH",
"81 535 OFFCURVE",
"91 525 OFFCURVE",
"91 505 CURVE SMOOTH",
"91 446 LINE",
"180 446 LINE",
"180 476 LINE",
"180 477 OFFCURVE",
"180 479 OFFCURVE",
"181 481 CURVE",
"181 485 LINE",
"182 495 OFFCURVE",
"186 504 OFFCURVE",
"191 512 CURVE SMOOTH",
"196 520 OFFCURVE",
"205 526 OFFCURVE",
"218 531 CURVE",
"219 532 OFFCURVE",
"221 532 OFFCURVE",
"222 532 CURVE",
"223 532 OFFCURVE",
"224 532 OFFCURVE",
"225 533 CURVE",
"227 534 OFFCURVE",
"230 534 OFFCURVE",
"233 534 CURVE",
"242 535 LINE",
"252 534 LINE",
"253 533 OFFCURVE",
"255 533 OFFCURVE",
"257 533 CURVE",
"273 525 LINE",
"278 522 LINE",
"282 518 LINE",
"283 517 OFFCURVE",
"284 516 OFFCURVE",
"284 515 CURVE",
"287 512 OFFCURVE",
"290 508 OFFCURVE",
"292 504 CURVE",
"293 503 OFFCURVE",
"293 502 OFFCURVE",
"294 502 CURVE",
"294 501 OFFCURVE",
"294 500 OFFCURVE",
"295 499 CURVE",
"298 492 OFFCURVE",
"300 483 OFFCURVE",
"300 476 CURVE SMOOTH",
"300 471 LINE",
"299 461 OFFCURVE",
"296 452 OFFCURVE",
"291 444 CURVE SMOOTH",
"286 436 OFFCURVE",
"279 429 OFFCURVE",
"270 424 CURVE SMOOTH",
"261 419 OFFCURVE",
"251 416 OFFCURVE",
"240 416 CURVE SMOOTH",
"211 416 OFFCURVE",
"184 411 OFFCURVE",
"159 400 CURVE SMOOTH",
"134 389 OFFCURVE",
"112 374 OFFCURVE",
"93 355 CURVE SMOOTH",
"74 336 OFFCURVE",
"60 314 OFFCURVE",
"49 289 CURVE SMOOTH",
"38 264 OFFCURVE",
"32 237 OFFCURVE",
"32 208 CURVE SMOOTH",
"32 0 LINE"
);
}
);
width = 479;
}
);
unicode = 0032;
},
{
glyphname = three;
layers = (
{
layerId = "4FF56D86-EDA3-44A7-BEE3-77B51CD88509";
paths = (
{
nodes = (
"262 0 OFFCURVE",
"289 6 OFFCURVE",
"314 17 CURVE SMOOTH",
"339 28 OFFCURVE",
"361 42 OFFCURVE",
"380 61 CURVE SMOOTH",
"399 80 OFFCURVE",
"414 102 OFFCURVE",
"425 127 CURVE SMOOTH",
"436 152 OFFCURVE",
"441 179 OFFCURVE",
"441 208 CURVE SMOOTH",
"441 235 OFFCURVE",
"437 260 OFFCURVE",
"430 281 CURVE SMOOTH",
"423 302 OFFCURVE",
"410 322 OFFCURVE",
"393 342 CURVE",
"410 363 OFFCURVE",
"423 384 OFFCURVE",
"430 405 CURVE SMOOTH",
"437 426 OFFCURVE",
"441 449 OFFCURVE",
"441 476 CURVE SMOOTH",
"441 515 OFFCURVE",
"433 548 OFFCURVE",
"417 577 CURVE SMOOTH",
"400 606 OFFCURVE",
"379 629 OFFCURVE",
"354 647 CURVE SMOOTH",
"329 664 OFFCURVE",
"301 676 OFFCURVE",
"270 681 CURVE SMOOTH",
"257 683 OFFCURVE",
"244 684 OFFCURVE",
"231 684 CURVE SMOOTH",
"213 684 OFFCURVE",
"196 682 OFFCURVE",
"178 678 CURVE SMOOTH",
"148 670 OFFCURVE",
"121 655 OFFCURVE",
"96 634 CURVE SMOOTH",
"71 613 OFFCURVE",
"51 584 OFFCURVE",
"38 547 CURVE SMOOTH",
"37 544 LINE",
"37 542 OFFCURVE",
"38 540 OFFCURVE",
"41 539 CURVE SMOOTH",
"46 536 OFFCURVE",
"51 535 OFFCURVE",
"55 535 CURVE SMOOTH",
"75 535 OFFCURVE",
"85 525 OFFCURVE",
"85 506 CURVE SMOOTH",
"85 446 LINE",
"174 446 LINE",
"174 462 LINE",
"173 469 LINE",
"173 477 OFFCURVE",
"174 477 OFFCURVE",
"174 486 CURVE",
"175 486 OFFCURVE",
"175 487 OFFCURVE",
"175 488 CURVE",
"176 498 OFFCURVE",
"180 507 OFFCURVE",
"186 515 CURVE SMOOTH",
"191 522 OFFCURVE",
"201 528 OFFCURVE",
"215 532 CURVE",
"219 534 LINE",
"220 534 OFFCURVE",
"222 534 OFFCURVE",
"223 535 CURVE",
"236 535 LINE SMOOTH",
"251 535 OFFCURVE",
"264 529 OFFCURVE",
"275 518 CURVE",
"281 511 LINE SMOOTH",
"282 509 OFFCURVE",
"284 507 OFFCURVE",
"285 504 CURVE SMOOTH",
"290 494 LINE",
"290 493 OFFCURVE",
"290 492 OFFCURVE",
"291 492 CURVE",
"291 491 OFFCURVE",
"291 489 OFFCURVE",
"292 488 CURVE",
"292 483 LINE",
"292 482 OFFCURVE",
"292 481 OFFCURVE",
"293 480 CURVE",
"293 476 LINE SMOOTH",
"293 459 OFFCURVE",
"287 445 OFFCURVE",
"276 434 CURVE SMOOTH",
"264 423 OFFCURVE",
"250 417 OFFCURVE",
"233 417 CURVE SMOOTH",
"204 417 LINE",
"204 268 LINE",
"233 268 LINE SMOOTH",
"250 268 OFFCURVE",
"264 262 OFFCURVE",
"276 251 CURVE",
"287 239 OFFCURVE",
"293 225 OFFCURVE",
"293 208 CURVE SMOOTH",
"293 192 OFFCURVE",
"287 178 OFFCURVE",
"276 167 CURVE SMOOTH",
"264 155 OFFCURVE",
"250 149 OFFCURVE",
"233 149 CURVE SMOOTH",
"216 149 OFFCURVE",
"202 155 OFFCURVE",
"191 167 CURVE SMOOTH",
"180 178 OFFCURVE",
"174 192 OFFCURVE",
"174 208 CURVE SMOOTH",
"174 238 LINE",
"25 238 LINE",
"25 208 LINE SMOOTH",
"25 179 OFFCURVE",
"31 152 OFFCURVE",
"42 127 CURVE SMOOTH",
"53 102 OFFCURVE",
"67 80 OFFCURVE",
"86 61 CURVE SMOOTH",
"105 42 OFFCURVE",
"127 28 OFFCURVE",
"152 17 CURVE SMOOTH",
"177 6 OFFCURVE",
"204 0 OFFCURVE",
"233 0 CURVE SMOOTH"
);
}
);
width = 467;
}
);
unicode = 0033;
},
{
glyphname = four;
layers = (
{
layerId = "4FF56D86-EDA3-44A7-BEE3-77B51CD88509";
paths = (
{
nodes = (
"444 0 LINE",
"444 684 LINE",
"295 684 LINE",
"295 416 LINE",
"236 416 LINE SMOOTH",
"219 416 OFFCURVE",
"205 422 OFFCURVE",
"194 434 CURVE SMOOTH",
"183 445 OFFCURVE",
"177 459 OFFCURVE",
"177 476 CURVE SMOOTH",
"177 684 LINE",
"28 684 LINE",
"28 565 LINE SMOOTH",
"28 545 OFFCURVE",
"38 535 OFFCURVE",
"58 535 CURVE SMOOTH",
"77 535 OFFCURVE",
"87 525 OFFCURVE",
"87 506 CURVE SMOOTH",
"87 446 LINE SMOOTH",
"87 426 OFFCURVE",
"77 416 OFFCURVE",
"58 416 CURVE SMOOTH",
"47 416 OFFCURVE",
"42 412 OFFCURVE",
"42 405 CURVE",
"42 403 OFFCURVE",
"42 400 OFFCURVE",
"44 396 CURVE SMOOTH",
"60 357 OFFCURVE",
"86 326 OFFCURVE",
"121 303 CURVE SMOOTH",
"156 280 OFFCURVE",
"194 268 OFFCURVE",
"236 268 CURVE SMOOTH",
"295 268 LINE",
"295 0 LINE"
);
}
);
width = 477;
}
);
unicode = 0034;
},
{
glyphname = five;
layers = (
{
layerId = "4FF56D86-EDA3-44A7-BEE3-77B51CD88509";
paths = (
{
nodes = (
"353 0 OFFCURVE",
"447 93 OFFCURVE",
"447 208 CURVE SMOOTH",
"447 268 LINE SMOOTH",
"447 382 OFFCURVE",
"354 476 OFFCURVE",
"239 476 CURVE SMOOTH",
"180 476 LINE",
"180 535 LINE",
"447 535 LINE",
"447 684 LINE",
"31 684 LINE",
"31 565 LINE SMOOTH",
"31 545 OFFCURVE",
"41 535 OFFCURVE",
"61 535 CURVE SMOOTH",
"81 535 OFFCURVE",
"91 525 OFFCURVE",
"91 506 CURVE SMOOTH",
"91 446 LINE SMOOTH",
"91 426 OFFCURVE",
"81 416 OFFCURVE",
"61 416 CURVE SMOOTH",
"41 416 OFFCURVE",
"31 406 OFFCURVE",
"31 387 CURVE SMOOTH",
"31 327 LINE",
"239 327 LINE SMOOTH",
"272 327 OFFCURVE",
"299 302 OFFCURVE",
"299 268 CURVE SMOOTH",
"299 208 LINE SMOOTH",
"299 174 OFFCURVE",
"272 149 OFFCURVE",
"239 149 CURVE SMOOTH",
"208 149 OFFCURVE",
"180 174 OFFCURVE",
"180 208 CURVE SMOOTH",
"180 238 LINE",
"31 238 LINE",
"31 208 LINE SMOOTH",
"31 94 OFFCURVE",
"124 0 OFFCURVE",
"239 0 CURVE SMOOTH"
);
}
);
width = 481;
}
);
unicode = 0035;
},
{
glyphname = six;
layers = (
{
layerId = "4FF56D86-EDA3-44A7-BEE3-77B51CD88509";
paths = (
{
nodes = (
"266 0 OFFCURVE",
"293 6 OFFCURVE",
"318 17 CURVE SMOOTH",
"343 28 OFFCURVE",
"366 42 OFFCURVE",
"385 61 CURVE SMOOTH",
"404 80 OFFCURVE",
"419 102 OFFCURVE",
"430 127 CURVE SMOOTH",
"441 152 OFFCURVE",
"446 179 OFFCURVE",
"446 208 CURVE SMOOTH",
"446 237 OFFCURVE",
"441 264 OFFCURVE",
"430 289 CURVE SMOOTH",
"419 314 OFFCURVE",
"404 336 OFFCURVE",
"385 355 CURVE SMOOTH",
"366 374 OFFCURVE",
"343 389 OFFCURVE",
"318 400 CURVE SMOOTH",
"293 411 OFFCURVE",
"266 416 OFFCURVE",
"237 416 CURVE SMOOTH",
"227 416 OFFCURVE",
"217 416 OFFCURVE",
"208 415 CURVE SMOOTH",
"198 414 OFFCURVE",
"188 411 OFFCURVE",
"178 408 CURVE",
"178 483 LINE",
"179 484 OFFCURVE",
"179 486 OFFCURVE",
"179 487 CURVE",
"179 488 OFFCURVE",
"179 490 OFFCURVE",
"180 491 CURVE",
"180 492 OFFCURVE",
"180 493 OFFCURVE",
"181 493 CURVE",
"182 498 OFFCURVE",
"184 502 OFFCURVE",
"185 504 CURVE SMOOTH",
"188 509 OFFCURVE",
"191 513 OFFCURVE",
"196 518 CURVE SMOOTH",
"209 533 OFFCURVE",
"223 535 OFFCURVE",
"245 535 CURVE",
"251 534 LINE",
"255 532 LINE",
"270 528 OFFCURVE",
"281 522 OFFCURVE",
"286 514 CURVE SMOOTH",
"291 506 OFFCURVE",
"295 496 OFFCURVE",
"296 485 CURVE",
"297 483 OFFCURVE",
"297 480 OFFCURVE",
"297 477 CURVE SMOOTH",
"297 446 LINE",
"446 446 LINE",
"446 473 OFFCURVE",
"443 498 OFFCURVE",
"438 523 CURVE SMOOTH",
"433 547 OFFCURVE",
"424 569 OFFCURVE",
"412 590 CURVE SMOOTH",
"400 610 OFFCURVE",
"384 627 OFFCURVE",
"365 642 CURVE SMOOTH",
"345 657 OFFCURVE",
"321 668 OFFCURVE",
"293 676 CURVE SMOOTH",
"274 681 OFFCURVE",
"255 684 OFFCURVE",
"236 684 CURVE",
"218 683 LINE",
"193 680 OFFCURVE",
"169 674 OFFCURVE",
"147 663 CURVE SMOOTH",
"124 652 OFFCURVE",
"104 638 OFFCURVE",
"87 620 CURVE SMOOTH",
"69 601 OFFCURVE",
"55 580 OFFCURVE",
"45 556 CURVE",
"44 552 OFFCURVE",
"43 549 OFFCURVE",
"43 546 CURVE SMOOTH",
"43 539 OFFCURVE",
"48 535 OFFCURVE",
"59 535 CURVE SMOOTH",
"79 535 OFFCURVE",
"89 525 OFFCURVE",
"89 506 CURVE SMOOTH",
"89 446 LINE SMOOTH",
"89 426 OFFCURVE",
"79 416 OFFCURVE",
"59 416 CURVE SMOOTH",
"40 416 OFFCURVE",
"30 408 OFFCURVE",
"30 391 CURVE SMOOTH",
"30 260 OFFCURVE",
"29 330 OFFCURVE",
"29 208 CURVE SMOOTH",
"29 179 OFFCURVE",
"35 152 OFFCURVE",
"46 127 CURVE SMOOTH",
"57 102 OFFCURVE",
"71 80 OFFCURVE",
"90 61 CURVE SMOOTH",
"109 42 OFFCURVE",
"131 28 OFFCURVE",
"156 17 CURVE SMOOTH",
"181 6 OFFCURVE",
"208 0 OFFCURVE",
"237 0 CURVE SMOOTH"
);
},
{
nodes = (
"206 149 OFFCURVE",
"178 174 OFFCURVE",
"178 208 CURVE SMOOTH",
"178 242 OFFCURVE",
"206 268 OFFCURVE",
"237 268 CURVE SMOOTH",
"270 268 OFFCURVE",
"297 242 OFFCURVE",
"297 208 CURVE SMOOTH",
"297 174 OFFCURVE",
"270 149 OFFCURVE",
"237 149 CURVE SMOOTH"
);
}
);
width = 474;
}
);
unicode = 0036;
},
{
glyphname = seven;
layers = (
{
layerId = "4FF56D86-EDA3-44A7-BEE3-77B51CD88509";
paths = (
{
nodes = (
"215 0 LINE",
"416 535 LINE",
"416 684 LINE",
"27 684 LINE",
"27 535 LINE",
"245 535 LINE SMOOTH",
"250 535 OFFCURVE",
"253 532 OFFCURVE",
"258 532 CURVE",
"285 517 LINE",
"289 514 OFFCURVE",
"291 509 OFFCURVE",
"291 504 CURVE SMOOTH",
"291 499 OFFCURVE",
"290 494 OFFCURVE",
"288 489 CURVE SMOOTH",
"267 433 LINE SMOOTH",
"262 419 OFFCURVE",
"254 412 OFFCURVE",
"243 412 CURVE SMOOTH",
"239 412 OFFCURVE",
"234 413 OFFCURVE",
"229 415 CURVE",
"228 416 LINE",
"222 417 LINE",
"216 417 OFFCURVE",
"212 414 OFFCURVE",
"209 407 CURVE SMOOTH",
"57 0 LINE"
);
}
);
width = 436;
}
);
unicode = 0037;
},
{
glyphname = eight;
layers = (
{
layerId = "4FF56D86-EDA3-44A7-BEE3-77B51CD88509";
paths = (
{
nodes = (
"260 0 OFFCURVE",
"287 6 OFFCURVE",
"312 17 CURVE SMOOTH",
"337 28 OFFCURVE",
"360 42 OFFCURVE",
"379 61 CURVE SMOOTH",
"398 80 OFFCURVE",
"413 102 OFFCURVE",
"424 127 CURVE SMOOTH",
"435 152 OFFCURVE",
"440 179 OFFCURVE",
"440 208 CURVE SMOOTH",
"440 235 OFFCURVE",
"436 259 OFFCURVE",
"429 280 CURVE SMOOTH",
"421 301 OFFCURVE",
"408 321 OFFCURVE",
"391 342 CURVE",
"408 363 OFFCURVE",
"421 384 OFFCURVE",
"429 405 CURVE SMOOTH",
"436 426 OFFCURVE",
"440 449 OFFCURVE",
"440 476 CURVE SMOOTH",
"440 514 OFFCURVE",
"432 547 OFFCURVE",
"417 576 CURVE",
"401 604 OFFCURVE",
"381 627 OFFCURVE",
"356 645 CURVE SMOOTH",
"331 662 OFFCURVE",
"303 674 OFFCURVE",
"273 680 CURVE SMOOTH",
"258 683 OFFCURVE",
"243 684 OFFCURVE",
"229 684 CURVE SMOOTH",
"213 684 OFFCURVE",
"198 683 OFFCURVE",
"183 679 CURVE SMOOTH",
"153 672 OFFCURVE",
"125 659 OFFCURVE",
"100 639 CURVE SMOOTH",
"74 618 OFFCURVE",
"54 591 OFFCURVE",
"39 556 CURVE",
"38 552 OFFCURVE",
"37 549 OFFCURVE",
"37 546 CURVE SMOOTH",
"37 539 OFFCURVE",
"42 535 OFFCURVE",
"53 535 CURVE SMOOTH",
"73 535 OFFCURVE",
"83 525 OFFCURVE",
"83 506 CURVE SMOOTH",
"83 446 LINE SMOOTH",
"83 426 OFFCURVE",
"73 416 OFFCURVE",
"53 416 CURVE SMOOTH",
"42 416 OFFCURVE",
"37 412 OFFCURVE",
"37 405 CURVE",
"39 396 LINE",
"43 386 OFFCURVE",
"48 377 OFFCURVE",
"53 368 CURVE SMOOTH",
"58 359 OFFCURVE",
"65 351 OFFCURVE",
"72 342 CURVE",
"43 308 OFFCURVE",
"27 271 OFFCURVE",
"24 232 CURVE",
"23 212 LINE",
"23 180 OFFCURVE",
"30 149 OFFCURVE",
"43 121 CURVE SMOOTH",
"59 86 OFFCURVE",
"83 58 OFFCURVE",
"116 35 CURVE SMOOTH",
"149 12 OFFCURVE",
"187 0 OFFCURVE",
"231 0 CURVE SMOOTH"
);
},
{
nodes = (
"200 416 OFFCURVE",
"172 442 OFFCURVE",
"172 476 CURVE SMOOTH",
"172 510 OFFCURVE",
"200 535 OFFCURVE",
"231 535 CURVE SMOOTH",
"264 535 OFFCURVE",
"291 510 OFFCURVE",
"291 476 CURVE SMOOTH",
"291 443 OFFCURVE",
"265 416 OFFCURVE",
"231 416 CURVE SMOOTH"
);
},
{
nodes = (
"200 149 OFFCURVE",
"172 174 OFFCURVE",
"172 208 CURVE SMOOTH",
"172 242 OFFCURVE",
"200 268 OFFCURVE",
"231 268 CURVE SMOOTH",
"264 268 OFFCURVE",
"291 242 OFFCURVE",
"291 208 CURVE SMOOTH",
"291 174 OFFCURVE",
"264 149 OFFCURVE",
"231 149 CURVE SMOOTH"
);
}
);
width = 467;
}
);
unicode = 0038;
},
{
glyphname = nine;
layers = (
{
layerId = "4FF56D86-EDA3-44A7-BEE3-77B51CD88509";
paths = (
{
nodes = (
"235 0 LINE",
"245 1 LINE",
"270 2 OFFCURVE",
"293 8 OFFCURVE",
"315 17 CURVE SMOOTH",
"336 26 OFFCURVE",
"356 38 OFFCURVE",
"373 54 CURVE SMOOTH",
"390 69 OFFCURVE",
"405 87 OFFCURVE",
"417 108 CURVE SMOOTH",
"428 129 OFFCURVE",
"436 151 OFFCURVE",
"440 175 CURVE",
"442 185 LINE",
"442 392 OFFCURVE",
"443 277 OFFCURVE",
"443 487 CURVE",
"440 528 OFFCURVE",
"428 565 OFFCURVE",
"405 597 CURVE SMOOTH",
"382 629 OFFCURVE",
"352 653 OFFCURVE",
"316 668 CURVE",
"291 677 LINE",
"272 681 OFFCURVE",
"259 684 OFFCURVE",
"235 684 CURVE SMOOTH",
"195 684 OFFCURVE",
"159 674 OFFCURVE",
"126 654 CURVE SMOOTH",
"93 634 OFFCURVE",
"68 607 OFFCURVE",
"50 572 CURVE SMOOTH",
"49 569 OFFCURVE",
"47 567 OFFCURVE",
"46 565 CURVE SMOOTH",
"42 556 LINE",
"40 547 LINE",
"40 540 OFFCURVE",
"45 536 OFFCURVE",
"56 536 CURVE SMOOTH",
"76 536 OFFCURVE",
"86 526 OFFCURVE",
"86 506 CURVE SMOOTH",
"86 446 LINE SMOOTH",
"86 427 OFFCURVE",
"76 417 OFFCURVE",
"56 417 CURVE SMOOTH",
"45 417 OFFCURVE",
"40 413 OFFCURVE",
"40 406 CURVE SMOOTH",
"40 403 OFFCURVE",
"41 400 OFFCURVE",
"42 396 CURVE",
"50 377 OFFCURVE",
"61 359 OFFCURVE",
"74 344 CURVE SMOOTH",
"87 328 OFFCURVE",
"103 314 OFFCURVE",
"120 303 CURVE SMOOTH",
"137 292 OFFCURVE",
"155 283 OFFCURVE",
"174 277 CURVE SMOOTH",
"193 271 OFFCURVE",
"214 268 OFFCURVE",
"235 268 CURVE SMOOTH",
"255 268 OFFCURVE",
"275 271 OFFCURVE",
"294 277 CURVE",
"294 201 LINE",
"293 200 OFFCURVE",
"293 198 OFFCURVE",
"293 197 CURVE",
"293 195 OFFCURVE",
"293 193 OFFCURVE",
"292 192 CURVE",
"291 188 OFFCURVE",
"289 184 OFFCURVE",
"287 181 CURVE SMOOTH",
"285 178 OFFCURVE",
"283 174 OFFCURVE",
"280 171 CURVE SMOOTH",
"278 168 OFFCURVE",
"275 165 OFFCURVE",
"272 163 CURVE SMOOTH",
"263 156 LINE",
"258 154 LINE SMOOTH",
"250 151 OFFCURVE",
"242 149 OFFCURVE",
"235 149 CURVE SMOOTH",
"226 149 OFFCURVE",
"219 150 OFFCURVE",
"213 153 CURVE SMOOTH",
"211 154 LINE",
"199 158 OFFCURVE",
"191 164 OFFCURVE",
"186 172 CURVE SMOOTH",
"181 179 OFFCURVE",
"176 189 OFFCURVE",
"176 199 CURVE",
"175 201 OFFCURVE",
"175 204 OFFCURVE",
"175 208 CURVE SMOOTH",
"175 238 LINE",
"26 238 LINE",
"26 211 OFFCURVE",
"29 185 OFFCURVE",
"35 160 CURVE SMOOTH",
"41 135 OFFCURVE",
"50 113 OFFCURVE",
"63 93 CURVE",
"75 72 OFFCURVE",
"91 55 OFFCURVE",
"110 40 CURVE SMOOTH",
"129 25 OFFCURVE",
"151 15 OFFCURVE",
"177 8 CURVE",
"190 5 LINE",
"191 4 OFFCURVE",
"193 4 OFFCURVE",
"195 4 CURVE",
"197 4 OFFCURVE",
"199 4 OFFCURVE",
"201 3 CURVE SMOOTH",
"204 2 OFFCURVE",
"208 2 OFFCURVE",
"213 2 CURVE",
"217 1 LINE"
);
},
{
nodes = (
"202 417 OFFCURVE",
"175 442 OFFCURVE",
"175 476 CURVE SMOOTH",
"175 509 OFFCURVE",
"201 536 OFFCURVE",
"235 536 CURVE SMOOTH",
"266 536 OFFCURVE",
"294 510 OFFCURVE",
"294 476 CURVE SMOOTH",
"294 442 OFFCURVE",
"266 417 OFFCURVE",
"235 417 CURVE SMOOTH"
);
}
);
width = 472;
}
);
unicode = 0039;
},
{
glyphname = exclam;
layers = (
{
layerId = "4FF56D86-EDA3-44A7-BEE3-77B51CD88509";
paths = (
{
nodes = (
"183 0 LINE",
"183 149 LINE",
"34 149 LINE",
"34 0 LINE"
);
},
{
nodes = (
"183 209 LINE",
"183 684 LINE",
"34 684 LINE",
"34 565 LINE SMOOTH",
"34 546 OFFCURVE",
"44 536 OFFCURVE",
"64 536 CURVE SMOOTH",
"84 536 OFFCURVE",
"94 526 OFFCURVE",
"94 506 CURVE SMOOTH",
"94 447 LINE SMOOTH",
"94 427 OFFCURVE",
"84 417 OFFCURVE",
"64 417 CURVE SMOOTH",
"44 417 OFFCURVE",
"34 407 OFFCURVE",
"34 387 CURVE SMOOTH",
"34 209 LINE"
);
}
);
width = 221;
}
);
unicode = 0021;
},
{
glyphname = question;
layers = (
{
layerId = "4FF56D86-EDA3-44A7-BEE3-77B51CD88509";
paths = (
{
nodes = (
"281 0 LINE",
"281 148 LINE",
"132 148 LINE",
"132 0 LINE"
);
},
{
nodes = (
"281 208 LINE",
"281 276 LINE",
"318 287 OFFCURVE",
"348 305 OFFCURVE",
"373 332 CURVE SMOOTH",
"397 359 OFFCURVE",
"414 389 OFFCURVE",
"423 422 CURVE SMOOTH",
"428 440 OFFCURVE",
"430 457 OFFCURVE",
"430 475 CURVE SMOOTH",
"430 491 OFFCURVE",
"428 508 OFFCURVE",
"425 524 CURVE SMOOTH",
"417 559 OFFCURVE",
"400 590 OFFCURVE",
"373 618 CURVE SMOOTH",
"346 646 OFFCURVE",
"316 665 OFFCURVE",
"282 675 CURVE SMOOTH",
"261 681 OFFCURVE",
"240 684 OFFCURVE",
"220 684 CURVE SMOOTH",
"206 684 OFFCURVE",
"193 683 OFFCURVE",
"180 680 CURVE SMOOTH",
"146 673 OFFCURVE",
"115 658 OFFCURVE",
"88 635 CURVE SMOOTH",
"60 612 OFFCURVE",
"39 583 OFFCURVE",
"26 547 CURVE",
"25 543 LINE",
"25 541 OFFCURVE",
"26 539 OFFCURVE",
"29 538 CURVE SMOOTH",
"34 536 OFFCURVE",
"38 535 OFFCURVE",
"43 535 CURVE SMOOTH",
"63 535 OFFCURVE",
"73 525 OFFCURVE",
"73 505 CURVE SMOOTH",
"73 446 LINE",
"162 446 LINE",
"162 461 LINE",
"161 468 LINE",
"161 476 OFFCURVE",
"162 476 OFFCURVE",
"162 485 CURVE",
"163 495 OFFCURVE",
"167 504 OFFCURVE",
"172 512 CURVE SMOOTH",
"177 520 OFFCURVE",
"186 526 OFFCURVE",
"199 531 CURVE",
"207 533 LINE",
"212 535 OFFCURVE",
"217 535 OFFCURVE",
"222 535 CURVE SMOOTH",
"226 535 OFFCURVE",
"229 535 OFFCURVE",
"233 534 CURVE SMOOTH",
"238 533 OFFCURVE",
"242 531 OFFCURVE",
"244 530 CURVE SMOOTH",
"249 529 OFFCURVE",
"256 524 OFFCURVE",
"263 517 CURVE",
"266 516 OFFCURVE",
"268 513 OFFCURVE",
"271 508 CURVE",
"272 507 OFFCURVE",
"272 506 OFFCURVE",
"273 506 CURVE",
"273 505 OFFCURVE",
"273 504 OFFCURVE",
"274 503 CURVE",
"275 500 OFFCURVE",
"276 499 OFFCURVE",
"277 498 CURVE",
"277 497 OFFCURVE",
"277 496 OFFCURVE",
"278 496 CURVE",
"281 475 LINE",
"281 460 OFFCURVE",
"276 446 OFFCURVE",
"265 434 CURVE SMOOTH",
"254 422 OFFCURVE",
"239 416 OFFCURVE",
"221 416 CURVE SMOOTH",
"196 416 OFFCURVE",
"175 407 OFFCURVE",
"158 390 CURVE SMOOTH",
"141 373 OFFCURVE",
"132 352 OFFCURVE",
"132 327 CURVE SMOOTH",
"132 208 LINE"
);
}
);
width = 456;
}
);
unicode = 003F;
},
{
glyphname = colon;
layers = (
{
layerId = "4FF56D86-EDA3-44A7-BEE3-77B51CD88509";
paths = (
{
nodes = (
"163 74 OFFCURVE",
"201 112 OFFCURVE",
"201 159 CURVE SMOOTH",
"201 206 OFFCURVE",
"163 244 OFFCURVE",
"116 244 CURVE SMOOTH",
"68 244 OFFCURVE",
"32 205 OFFCURVE",
"32 159 CURVE SMOOTH",
"32 113 OFFCURVE",
"68 74 OFFCURVE",
"116 74 CURVE SMOOTH"
);
},
{
nodes = (
"163 476 OFFCURVE",
"201 514 OFFCURVE",
"201 561 CURVE SMOOTH",
"201 608 OFFCURVE",
"163 646 OFFCURVE",
"116 646 CURVE SMOOTH",
"68 646 OFFCURVE",
"32 607 OFFCURVE",
"32 561 CURVE SMOOTH",
"32 515 OFFCURVE",
"68 476 OFFCURVE",
"116 476 CURVE SMOOTH"
);
}
);
width = 229;
}
);
unicode = 003A;
},
{
glyphname = semicolon;
layers = (
{
layerId = "4FF56D86-EDA3-44A7-BEE3-77B51CD88509";
paths = (
{
nodes = (
"193 21 LINE",
"193 240 LINE",
"44 240 LINE",
"44 21 LINE"
);
},
{
nodes = (
"163 476 OFFCURVE",
"201 514 OFFCURVE",
"201 561 CURVE SMOOTH",
"201 608 OFFCURVE",
"163 646 OFFCURVE",
"116 646 CURVE SMOOTH",
"68 646 OFFCURVE",
"32 607 OFFCURVE",
"32 561 CURVE SMOOTH",
"32 515 OFFCURVE",
"68 476 OFFCURVE",
"116 476 CURVE SMOOTH"
);
}
);
width = 219;
}
);
unicode = 003B;
},
{
glyphname = period;
layers = (
{
layerId = "4FF56D86-EDA3-44A7-BEE3-77B51CD88509";
paths = (
{
nodes = (
"186 0 LINE",
"186 148 LINE",
"37 148 LINE",
"37 0 LINE"
);
}
);
width = 219;
}
);
unicode = 002E;
},
{
glyphname = comma;
layers = (
{
layerId = "4FF56D86-EDA3-44A7-BEE3-77B51CD88509";
paths = (
{
nodes = (
"186 -71 LINE",
"186 148 LINE",
"37 148 LINE",
"37 -71 LINE"
);
}
);
width = 219;
}
);
unicode = 002C;
},
{
glyphname = D;
layers = (
{
layerId = "4FF56D86-EDA3-44A7-BEE3-77B51CD88509";
paths = (
{
nodes = (
"187 149 LINE",
"187 535 LINE",
"246 535 LINE SMOOTH",
"280 535 OFFCURVE",
"305 508 OFFCURVE",
"306 483 CURVE",
"306 201 LINE",
"305 175 OFFCURVE",
"278 149 OFFCURVE",
"246 149 CURVE SMOOTH"
);
},
{
nodes = (
"246 0 LINE SMOOTH",
"286 0 OFFCURVE",
"323 10 OFFCURVE",
"356 31 CURVE SMOOTH",
"428 75 OFFCURVE",
"457 151 OFFCURVE",
"462 229 CURVE",
"464 285 LINE",
"463 304 OFFCURVE",
"463 323 OFFCURVE",
"463 342 CURVE SMOOTH",
"463 361 OFFCURVE",
"463 380 OFFCURVE",
"464 399 CURVE",
"462 456 LINE SMOOTH",
"461 475 OFFCURVE",
"458 493 OFFCURVE",
"454 512 CURVE SMOOTH",
"433 600 OFFCURVE",
"359 684 OFFCURVE",
"246 684 CURVE SMOOTH",
"38 684 LINE",
"38 627 LINE SMOOTH",
"38 607 OFFCURVE",
"48 597 OFFCURVE",
"68 597 CURVE SMOOTH",
"88 597 OFFCURVE",
"98 587 OFFCURVE",
"98 567 CURVE SMOOTH",
"98 508 LINE SMOOTH",
"98 488 OFFCURVE",
"88 478 OFFCURVE",
"68 478 CURVE SMOOTH",
"48 478 OFFCURVE",
"38 468 OFFCURVE",
"38 449 CURVE SMOOTH",
"38 0 LINE"
);
}
);
width = 486;
}
);
unicode = 0044;
},
{
glyphname = B;
layers = (
{
layerId = "4FF56D86-EDA3-44A7-BEE3-77B51CD88509";
paths = (
{
nodes = (
"240 0 LINE SMOOTH",
"354 0 OFFCURVE",
"448 93 OFFCURVE",
"448 208 CURVE SMOOTH",
"448 263 OFFCURVE",
"432 302 OFFCURVE",
"399 341 CURVE",
"433 381 OFFCURVE",
"448 420 OFFCURVE",
"448 475 CURVE SMOOTH",
"448 589 OFFCURVE",
"355 683 OFFCURVE",
"240 683 CURVE SMOOTH",
"32 683 LINE",
"32 564 LINE SMOOTH",
"32 545 OFFCURVE",
"42 535 OFFCURVE",
"61 535 CURVE SMOOTH",
"81 535 OFFCURVE",
"91 525 OFFCURVE",
"91 505 CURVE SMOOTH",
"91 445 LINE SMOOTH",
"91 426 OFFCURVE",
"81 416 OFFCURVE",
"61 416 CURVE SMOOTH",
"42 416 OFFCURVE",
"32 406 OFFCURVE",
"32 386 CURVE SMOOTH",
"32 0 LINE"
);
},
{
nodes = (
"180 148 LINE",
"180 267 LINE",
"240 267 LINE SMOOTH",
"273 267 OFFCURVE",
"299 242 OFFCURVE",
"299 208 CURVE SMOOTH",
"299 175 OFFCURVE",
"274 148 OFFCURVE",
"240 148 CURVE SMOOTH"
);
},
{
nodes = (
"180 416 LINE",
"180 535 LINE",
"240 535 LINE SMOOTH",
"274 535 OFFCURVE",
"299 508 OFFCURVE",
"299 475 CURVE SMOOTH",
"299 444 OFFCURVE",
"274 416 OFFCURVE",
"240 416 CURVE SMOOTH"
);
}
);
width = 474;
}
);
unicode = 0042;
},
{
glyphname = C;
layers = (
{
layerId = "4FF56D86-EDA3-44A7-BEE3-77B51CD88509";
paths = (
{
nodes = (
"248 0 OFFCURVE",
"259 1 OFFCURVE",
"270 3 CURVE SMOOTH",
"306 9 OFFCURVE",
"338 24 OFFCURVE",
"367 47 CURVE SMOOTH",
"384 60 OFFCURVE",
"397 74 OFFCURVE",
"408 89 CURVE SMOOTH",
"418 103 OFFCURVE",
"426 118 OFFCURVE",
"431 134 CURVE SMOOTH",
"436 149 OFFCURVE",
"440 166 OFFCURVE",
"442 183 CURVE SMOOTH",
"444 200 OFFCURVE",
"445 219 OFFCURVE",
"445 239 CURVE",
"296 239 LINE",
"296 224 OFFCURVE",
"296 209 OFFCURVE",
"295 196 CURVE SMOOTH",
"294 183 OFFCURVE",
"285 171 OFFCURVE",
"270 160 CURVE SMOOTH",
"260 153 OFFCURVE",
"249 149 OFFCURVE",
"238 149 CURVE",
"229 150 LINE SMOOTH",
"214 152 OFFCURVE",
"201 159 OFFCURVE",
"191 171 CURVE SMOOTH",
"181 183 OFFCURVE",
"176 196 OFFCURVE",
"176 209 CURVE SMOOTH",
"176 212 LINE",
"177 226 OFFCURVE",
"177 240 OFFCURVE",
"177 255 CURVE SMOOTH",
"177 376 LINE",
"176 402 LINE",
"177 429 LINE SMOOTH",
"178 448 OFFCURVE",
"179 465 OFFCURVE",
"181 482 CURVE SMOOTH",
"183 499 OFFCURVE",
"186 510 OFFCURVE",
"191 515 CURVE SMOOTH",
"201 526 OFFCURVE",
"214 533 OFFCURVE",
"229 536 CURVE",
"238 537 LINE",
"249 537 OFFCURVE",
"260 533 OFFCURVE",
"270 526 CURVE SMOOTH",
"285 515 OFFCURVE",
"294 503 OFFCURVE",
"295 490 CURVE SMOOTH",
"296 477 OFFCURVE",
"296 462 OFFCURVE",
"296 447 CURVE",
"445 447 LINE",
"445 474 OFFCURVE",
"442 499 OFFCURVE",
"437 524 CURVE SMOOTH",
"432 548 OFFCURVE",
"423 570 OFFCURVE",
"411 591 CURVE SMOOTH",
"399 611 OFFCURVE",
"383 628 OFFCURVE",
"364 643 CURVE SMOOTH",
"344 658 OFFCURVE",
"320 669 OFFCURVE",
"292 677 CURVE SMOOTH",
"273 682 OFFCURVE",
"254 685 OFFCURVE",
"235 685 CURVE",
"217 684 LINE",
"192 681 OFFCURVE",
"168 675 OFFCURVE",
"146 664 CURVE SMOOTH",
"124 653 OFFCURVE",
"104 639 OFFCURVE",
"87 621 CURVE SMOOTH",
"69 602 OFFCURVE",
"55 581 OFFCURVE",
"45 557 CURVE SMOOTH",
"43 553 OFFCURVE",
"42 549 OFFCURVE",
"42 546 CURVE SMOOTH",
"42 539 OFFCURVE",
"47 536 OFFCURVE",
"58 536 CURVE SMOOTH",
"78 536 OFFCURVE",
"88 526 OFFCURVE",
"88 506 CURVE SMOOTH",
"88 447 LINE SMOOTH",
"88 427 OFFCURVE",
"78 417 OFFCURVE",
"58 417 CURVE SMOOTH",
"38 417 OFFCURVE",
"28 407 OFFCURVE",
"28 387 CURVE SMOOTH",
"28 216 LINE SMOOTH",
"28 202 OFFCURVE",
"30 187 OFFCURVE",
"32 172 CURVE",
"39 136 OFFCURVE",
"54 104 OFFCURVE",
"77 76 CURVE SMOOTH",
"100 48 OFFCURVE",
"129 27 OFFCURVE",
"164 14 CURVE SMOOTH",
"188 5 OFFCURVE",
"213 0 OFFCURVE",
"237 0 CURVE SMOOTH"
);
}
);
width = 469;
}
);
unicode = 0043;
},
{
glyphname = A;
layers = (
{
layerId = "4FF56D86-EDA3-44A7-BEE3-77B51CD88509";
paths = (
{
nodes = (
"447 0 LINE",
"447 471 LINE",
"446 488 OFFCURVE",
"444 505 OFFCURVE",
"441 521 CURVE SMOOTH",
"438 537 OFFCURVE",
"432 553 OFFCURVE",
"425 569 CURVE SMOOTH",
"418 584 OFFCURVE",
"407 600 OFFCURVE",
"394 615 CURVE SMOOTH",
"369 644 OFFCURVE",
"339 663 OFFCURVE",
"305 674 CURVE SMOOTH",
"283 681 OFFCURVE",
"260 685 OFFCURVE",
"238 685 CURVE SMOOTH",
"227 685 OFFCURVE",
"215 684 OFFCURVE",
"204 682 CURVE SMOOTH",
"171 676 OFFCURVE",
"140 662 OFFCURVE",
"112 641 CURVE SMOOTH",
"83 620 OFFCURVE",
"62 591 OFFCURVE",
"47 556 CURVE SMOOTH",
"45 552 OFFCURVE",
"45 549 OFFCURVE",
"45 547 CURVE",
"45 540 OFFCURVE",
"50 536 OFFCURVE",
"61 536 CURVE SMOOTH",
"81 536 OFFCURVE",
"91 526 OFFCURVE",
"91 506 CURVE SMOOTH",
"91 446 LINE SMOOTH",
"91 426 OFFCURVE",
"81 416 OFFCURVE",
"61 416 CURVE SMOOTH",
"41 416 OFFCURVE",
"31 406 OFFCURVE",
"31 387 CURVE SMOOTH",
"31 0 LINE",
"180 0 LINE",
"180 149 LINE",
"298 149 LINE",
"298 0 LINE"
);
},
{
nodes = (
"298 297 LINE",
"180 297 LINE",
"180 433 LINE SMOOTH",
"180 444 OFFCURVE",
"180 456 OFFCURVE",
"179 467 CURVE",
"179 473 LINE SMOOTH",
"179 482 OFFCURVE",
"181 492 OFFCURVE",
"185 501 CURVE SMOOTH",
"191 514 OFFCURVE",
"198 523 OFFCURVE",
"206 528 CURVE SMOOTH",
"214 533 OFFCURVE",
"225 536 OFFCURVE",
"239 536 CURVE SMOOTH",
"253 536 OFFCURVE",
"264 533 OFFCURVE",
"272 528 CURVE SMOOTH",
"280 523 OFFCURVE",
"287 514 OFFCURVE",
"293 501 CURVE SMOOTH",
"297 491 OFFCURVE",
"300 481 OFFCURVE",
"300 471 CURVE SMOOTH",
"300 467 LINE",
"299 456 OFFCURVE",
"298 444 OFFCURVE",
"298 433 CURVE SMOOTH"
);
}
);
width = 481;
}
);
unicode = 0041;
},
{
glyphname = at;
layers = (
{
layerId = "4FF56D86-EDA3-44A7-BEE3-77B51CD88509";
paths = (
{
nodes = (
"528 -128 OFFCURVE",
"652 -60 OFFCURVE",
"719 44 CURVE",
"640 44 LINE",
"583 -21 OFFCURVE",
"501 -65 OFFCURVE",
"401 -65 CURVE SMOOTH",
"225 -65 OFFCURVE",
"83 78 OFFCURVE",
"83 253 CURVE SMOOTH",
"83 429 OFFCURVE",
"226 571 OFFCURVE",
"401 571 CURVE SMOOTH",
"577 571 OFFCURVE",
"719 428 OFFCURVE",
"719 253 CURVE SMOOTH",
"719 216 OFFCURVE",
"713 181 OFFCURVE",
"700 146 CURVE",
"567 146 LINE",
"567 422 LINE",
"468 422 LINE",
"468 407 LINE",
"447 416 OFFCURVE",
"422 422 OFFCURVE",
"397 422 CURVE SMOOTH",
"304 422 OFFCURVE",
"228 345 OFFCURVE",
"228 253 CURVE SMOOTH",
"228 160 OFFCURVE",
"305 84 OFFCURVE",
"397 84 CURVE SMOOTH",
"422 84 OFFCURVE",
"445 89 OFFCURVE",
"468 100 CURVE",
"468 84 LINE",
"743 84 LINE",
"769 149 OFFCURVE",
"782 190 OFFCURVE",
"782 253 CURVE SMOOTH",
"782 449 OFFCURVE",
"623 633 OFFCURVE",
"401 633 CURVE SMOOTH",
"193 633 OFFCURVE",
"21 466 OFFCURVE",
"21 253 CURVE SMOOTH",
"21 202 OFFCURVE",
"31 153 OFFCURVE",
"50 104 CURVE",
"106 -25 OFFCURVE",
"244 -128 OFFCURVE",
"401 -128 CURVE SMOOTH"
);
},
{
nodes = (
"354 176 OFFCURVE",
"322 213 OFFCURVE",
"322 253 CURVE SMOOTH",
"322 294 OFFCURVE",
"355 329 OFFCURVE",
"397 329 CURVE SMOOTH",
"430 329 OFFCURVE",
"456 309 OFFCURVE",
"468 281 CURVE",
"468 225 LINE",
"456 198 OFFCURVE",
"430 176 OFFCURVE",
"397 176 CURVE SMOOTH"
);
}
);
width = 807;
}
);
unicode = 0040;
},
{
glyphname = ordfeminine;
layers = (
{
layerId = "4FF56D86-EDA3-44A7-BEE3-77B51CD88509";
paths = (
{
nodes = (
"251 351 LINE",
"251 545 LINE",
"248 584 LINE",
"241 644 OFFCURVE",
"205 679 OFFCURVE",
"151 684 CURVE",
"29 684 LINE",
"30 608 LINE",
"145 607 LINE",
"162 604 OFFCURVE",
"168 603 OFFCURVE",
"172 560 CURVE",
"94 559 LINE",
"79 559 OFFCURVE",
"68 557 OFFCURVE",
"60 553 CURVE SMOOTH",
"35 539 OFFCURVE",
"33 517 OFFCURVE",
"33 517 CURVE",
"33 465 OFFCURVE",
"35 439 OFFCURVE",
"37 430 CURVE SMOOTH",
"45 391 OFFCURVE",
"69 363 OFFCURVE",
"112 351 CURVE"
);
},
{
nodes = (
"148 424 LINE",
"136 424 OFFCURVE",
"128 426 OFFCURVE",
"124 429 CURVE SMOOTH",
"116 435 OFFCURVE",
"112 441 OFFCURVE",
"111 448 CURVE",
"110 450 OFFCURVE",
"110 465 OFFCURVE",
"110 494 CURVE",
"172 495 LINE",
"172 426 LINE"
);
}
);
width = 268;
}
);
unicode = 00AA;
},
{
glyphname = quotedbl;
layers = (
{
layerId = "4FF56D86-EDA3-44A7-BEE3-77B51CD88509";
paths = (
{
nodes = (
"132 444 LINE",
"164 684 LINE",
"15 684 LINE",
"44 444 LINE"
);
},
{
nodes = (
"300 444 LINE",
"332 684 LINE",
"183 684 LINE",
"212 444 LINE"
);
}
);
width = 355;
}
);
unicode = 0022;
},
{
glyphname = quotesingle;
layers = (
{
layerId = "4FF56D86-EDA3-44A7-BEE3-77B51CD88509";
paths = (
{
nodes = (
"132 444 LINE",
"164 684 LINE",
"15 684 LINE",
"44 444 LINE"
);
}
);
width = 183;
}
);
unicode = 0027;
},
{
glyphname = bar;
layers = (
{
layerId = "4FF56D86-EDA3-44A7-BEE3-77B51CD88509";
paths = (
{
nodes = (
"295 -81 LINE",
"295 766 LINE",
"147 766 LINE",
"147 -81 LINE"
);
}
);
width = 430;
}
);
unicode = 007C;
},
{
glyphname = dollar;
layers = (
{
layerId = "4FF56D86-EDA3-44A7-BEE3-77B51CD88509";
paths = (
{
nodes = (
"266 0 OFFCURVE",
"293 6 OFFCURVE",
"318 17 CURVE SMOOTH",
"343 28 OFFCURVE",
"366 43 OFFCURVE",
"385 62 CURVE SMOOTH",
"404 81 OFFCURVE",
"419 103 OFFCURVE",
"430 128 CURVE SMOOTH",
"441 153 OFFCURVE",
"446 180 OFFCURVE",
"446 209 CURVE SMOOTH",
"446 238 OFFCURVE",
"441 265 OFFCURVE",
"430 290 CURVE SMOOTH",
"419 315 OFFCURVE",
"404 337 OFFCURVE",
"385 356 CURVE SMOOTH",
"366 375 OFFCURVE",
"343 390 OFFCURVE",
"318 401 CURVE SMOOTH",
"293 412 OFFCURVE",
"266 417 OFFCURVE",
"237 417 CURVE SMOOTH",
"218 417 OFFCURVE",
"203 424 OFFCURVE",
"192 438 CURVE SMOOTH",
"182 450 OFFCURVE",
"178 463 OFFCURVE",
"178 478 CURVE SMOOTH",
"178 485 OFFCURVE",
"178 484 OFFCURVE",
"180 491 CURVE SMOOTH",
"183 500 LINE",
"185 505 LINE SMOOTH",
"187 509 OFFCURVE",
"190 513 OFFCURVE",
"193 516 CURVE SMOOTH",
"195 518 OFFCURVE",
"194 518 OFFCURVE",
"196 518 CURVE",
"200 523 OFFCURVE",
"206 528 OFFCURVE",
"215 531 CURVE",
"218 533 OFFCURVE",
"221 534 OFFCURVE",
"226 534 CURVE",
"239 536 LINE",
"252 534 LINE",
"253 533 OFFCURVE",
"254 533 OFFCURVE",
"255 533 CURVE",
"257 533 OFFCURVE",
"257 533 OFFCURVE",
"259 531 CURVE",
"272 527 OFFCURVE",
"282 521 OFFCURVE",
"287 513 CURVE SMOOTH",
"292 505 OFFCURVE",
"295 496 OFFCURVE",
"296 486 CURVE",
"297 484 OFFCURVE",
"297 481 OFFCURVE",
"297 477 CURVE SMOOTH",
"297 446 LINE",
"446 446 LINE",
"446 473 OFFCURVE",
"443 498 OFFCURVE",
"438 523 CURVE SMOOTH",
"433 547 OFFCURVE",
"424 569 OFFCURVE",
"412 590 CURVE SMOOTH",
"400 610 OFFCURVE",
"384 628 OFFCURVE",
"365 643 CURVE SMOOTH",
"345 658 OFFCURVE",
"321 669 OFFCURVE",
"293 677 CURVE SMOOTH",
"274 682 OFFCURVE",
"255 685 OFFCURVE",
"236 685 CURVE",
"218 684 LINE",
"193 681 OFFCURVE",
"169 675 OFFCURVE",
"147 664 CURVE SMOOTH",
"125 653 OFFCURVE",
"105 639 OFFCURVE",
"88 621 CURVE SMOOTH",
"70 603 OFFCURVE",
"56 582 OFFCURVE",
"46 558 CURVE",
"45 551 LINE",
"45 546 OFFCURVE",
"47 542 OFFCURVE",
"53 538 CURVE",
"56 537 OFFCURVE",
"60 536 OFFCURVE",
"66 536 CURVE SMOOTH",
"85 536 OFFCURVE",
"95 526 OFFCURVE",
"95 506 CURVE SMOOTH",
"95 446 LINE SMOOTH",
"95 427 OFFCURVE",
"85 417 OFFCURVE",
"66 417 CURVE SMOOTH",
"61 417 OFFCURVE",
"57 416 OFFCURVE",
"53 414 CURVE SMOOTH",
"47 411 OFFCURVE",
"44 408 OFFCURVE",
"44 403 CURVE",
"46 395 LINE",
"54 376 OFFCURVE",
"65 358 OFFCURVE",
"78 343 CURVE SMOOTH",
"91 327 OFFCURVE",
"105 314 OFFCURVE",
"122 303 CURVE SMOOTH",
"139 292 OFFCURVE",
"157 283 OFFCURVE",
"177 277 CURVE SMOOTH",
"196 271 OFFCURVE",
"216 268 OFFCURVE",
"237 268 CURVE SMOOTH",
"254 268 OFFCURVE",
"268 262 OFFCURVE",
"280 251 CURVE",
"291 239 OFFCURVE",
"297 225 OFFCURVE",
"297 209 CURVE SMOOTH",
"297 192 OFFCURVE",
"291 178 OFFCURVE",
"280 167 CURVE SMOOTH",
"268 155 OFFCURVE",
"254 149 OFFCURVE",
"237 149 CURVE SMOOTH",
"221 149 OFFCURVE",
"207 155 OFFCURVE",
"196 167 CURVE",
"184 178 OFFCURVE",
"178 192 OFFCURVE",
"178 209 CURVE SMOOTH",
"178 238 LINE",
"29 238 LINE",
"29 209 LINE SMOOTH",
"29 180 OFFCURVE",
"35 153 OFFCURVE",
"46 128 CURVE SMOOTH",
"57 103 OFFCURVE",
"71 81 OFFCURVE",
"90 62 CURVE SMOOTH",
"109 43 OFFCURVE",
"131 28 OFFCURVE",
"156 17 CURVE SMOOTH",
"181 6 OFFCURVE",
"208 0 OFFCURVE",
"237 0 CURVE SMOOTH"
);
},
{
nodes = (
"310 649 LINE",
"310 766 LINE",
"162 766 LINE",
"162 649 LINE"
);
},
{
nodes = (
"310 -81 LINE",
"310 27 LINE",
"162 27 LINE",
"162 -81 LINE"
);
}
);
width = 480;
}
);
unicode = 0024;
},
{
glyphname = slash;
layers = (
{
layerId = "4FF56D86-EDA3-44A7-BEE3-77B51CD88509";
paths = (
{
nodes = (
"201 0 LINE",
"492 689 LINE",
"342 689 LINE",
"53 0 LINE"
);
}
);
width = 537;
}
);
unicode = 002F;
},
{
glyphname = Oslash;
layers = (
{
layerId = "4FF56D86-EDA3-44A7-BEE3-77B51CD88509";
paths = (
{
nodes = (
"250 1 OFFCURVE",
"265 3 OFFCURVE",
"281 6 CURVE SMOOTH",
"316 14 OFFCURVE",
"345 27 OFFCURVE",
"367 44 CURVE SMOOTH",
"388 61 OFFCURVE",
"407 86 OFFCURVE",
"423 118 CURVE SMOOTH",
"438 149 OFFCURVE",
"445 179 OFFCURVE",
"446 209 CURVE SMOOTH",
"447 239 OFFCURVE",
"447 270 OFFCURVE",
"447 302 CURVE SMOOTH",
"447 329 OFFCURVE",
"448 358 OFFCURVE",
"450 389 CURVE",
"450 411 LINE SMOOTH",
"450 435 OFFCURVE",
"449 459 OFFCURVE",
"446 483 CURVE SMOOTH",
"442 514 OFFCURVE",
"433 544 OFFCURVE",
"420 573 CURVE SMOOTH",
"407 601 OFFCURVE",
"385 625 OFFCURVE",
"356 646 CURVE SMOOTH",
"329 665 OFFCURVE",
"300 677 OFFCURVE",
"269 682 CURVE SMOOTH",
"258 684 OFFCURVE",
"246 685 OFFCURVE",
"235 685 CURVE SMOOTH",
"216 685 OFFCURVE",
"197 682 OFFCURVE",
"179 677 CURVE SMOOTH",
"150 668 OFFCURVE",
"123 654 OFFCURVE",
"99 633 CURVE SMOOTH",
"74 612 OFFCURVE",
"56 587 OFFCURVE",
"43 556 CURVE",
"41 547 LINE",
"41 540 OFFCURVE",
"46 536 OFFCURVE",
"57 536 CURVE SMOOTH",
"77 536 OFFCURVE",
"87 526 OFFCURVE",
"87 506 CURVE SMOOTH",
"87 447 LINE SMOOTH",
"87 427 OFFCURVE",
"77 417 OFFCURVE",
"57 417 CURVE SMOOTH",
"37 417 OFFCURVE",
"27 407 OFFCURVE",
"27 387 CURVE SMOOTH",
"27 209 LINE SMOOTH",
"27 176 OFFCURVE",
"34 145 OFFCURVE",
"49 117 CURVE",
"63 88 OFFCURVE",
"82 65 OFFCURVE",
"106 46 CURVE SMOOTH",
"129 27 OFFCURVE",
"156 14 OFFCURVE",
"187 7 CURVE SMOOTH",
"203 3 OFFCURVE",
"218 1 OFFCURVE",
"234 1 CURVE SMOOTH"
);
},
{
nodes = (
"226 150 LINE",
"217 151 OFFCURVE",
"208 155 OFFCURVE",
"201 160 CURVE SMOOTH",
"194 165 OFFCURVE",
"188 172 OFFCURVE",
"183 181 CURVE SMOOTH",
"178 190 OFFCURVE",
"176 199 OFFCURVE",
"176 209 CURVE SMOOTH",
"176 436 LINE SMOOTH",
"176 446 OFFCURVE",
"176 456 OFFCURVE",
"175 466 CURVE",
"175 473 LINE SMOOTH",
"175 480 OFFCURVE",
"176 486 OFFCURVE",
"177 493 CURVE SMOOTH",
"179 501 OFFCURVE",
"183 509 OFFCURVE",
"189 516 CURVE SMOOTH",
"194 523 OFFCURVE",
"203 528 OFFCURVE",
"216 533 CURVE SMOOTH",
"223 535 OFFCURVE",
"230 536 OFFCURVE",
"237 536 CURVE SMOOTH",
"244 536 LINE",
"253 534 OFFCURVE",
"262 530 OFFCURVE",
"270 525 CURVE SMOOTH",
"277 520 OFFCURVE",
"283 513 OFFCURVE",
"288 504 CURVE SMOOTH",
"293 495 OFFCURVE",
"295 486 OFFCURVE",
"295 476 CURVE SMOOTH",
"295 249 LINE SMOOTH",
"295 239 OFFCURVE",
"295 229 OFFCURVE",
"296 220 CURVE",
"296 212 LINE SMOOTH",
"296 205 OFFCURVE",
"295 199 OFFCURVE",
"294 193 CURVE SMOOTH",
"292 184 OFFCURVE",
"288 177 OFFCURVE",
"283 170 CURVE SMOOTH",
"277 163 OFFCURVE",
"268 158 OFFCURVE",
"255 153 CURVE SMOOTH",
"248 151 OFFCURVE",
"240 150 OFFCURVE",
"233 150 CURVE SMOOTH"
);
},
{
nodes = (
"178 -53 LINE",
"234 118 LINE",
"101 162 LINE",
"30 -53 LINE"
);
},
{
nodes = (
"385 577 LINE",
"436 731 LINE",
"286 731 LINE",
"249 617 LINE"
);
}
);
width = 475;
}
);
unicode = 00D8;
},
{
glyphname = oslash;
layers = (
{
layerId = "4FF56D86-EDA3-44A7-BEE3-77B51CD88509";
paths = (
{
nodes = (
"250 1 OFFCURVE",
"265 3 OFFCURVE",
"281 6 CURVE SMOOTH",
"316 14 OFFCURVE",
"345 27 OFFCURVE",
"367 44 CURVE SMOOTH",
"388 61 OFFCURVE",
"407 86 OFFCURVE",
"423 118 CURVE SMOOTH",
"438 149 OFFCURVE",
"445 179 OFFCURVE",
"446 209 CURVE SMOOTH",
"447 239 OFFCURVE",
"447 270 OFFCURVE",
"447 302 CURVE SMOOTH",
"447 329 OFFCURVE",
"448 358 OFFCURVE",
"450 389 CURVE",
"450 411 LINE SMOOTH",
"450 435 OFFCURVE",
"449 459 OFFCURVE",
"446 483 CURVE SMOOTH",
"442 514 OFFCURVE",
"433 544 OFFCURVE",
"420 573 CURVE SMOOTH",
"407 601 OFFCURVE",
"385 625 OFFCURVE",
"356 646 CURVE SMOOTH",
"329 665 OFFCURVE",
"300 677 OFFCURVE",
"269 682 CURVE SMOOTH",
"258 684 OFFCURVE",
"246 685 OFFCURVE",
"235 685 CURVE SMOOTH",
"216 685 OFFCURVE",
"197 682 OFFCURVE",
"179 677 CURVE SMOOTH",
"150 668 OFFCURVE",
"123 654 OFFCURVE",
"99 633 CURVE SMOOTH",
"74 612 OFFCURVE",
"56 587 OFFCURVE",
"43 556 CURVE",
"41 547 LINE",
"41 540 OFFCURVE",
"46 536 OFFCURVE",
"57 536 CURVE SMOOTH",
"77 536 OFFCURVE",
"87 526 OFFCURVE",
"87 506 CURVE SMOOTH",
"87 447 LINE SMOOTH",
"87 427 OFFCURVE",
"77 417 OFFCURVE",
"57 417 CURVE SMOOTH",
"37 417 OFFCURVE",
"27 407 OFFCURVE",
"27 387 CURVE SMOOTH",
"27 209 LINE SMOOTH",
"27 176 OFFCURVE",
"34 145 OFFCURVE",
"49 117 CURVE",
"63 88 OFFCURVE",
"82 65 OFFCURVE",
"106 46 CURVE SMOOTH",
"129 27 OFFCURVE",
"156 14 OFFCURVE",
"187 7 CURVE SMOOTH",
"203 3 OFFCURVE",
"218 1 OFFCURVE",
"234 1 CURVE SMOOTH"
);
},
{
nodes = (
"226 150 LINE",
"217 151 OFFCURVE",
"208 155 OFFCURVE",
"201 160 CURVE SMOOTH",
"194 165 OFFCURVE",
"188 172 OFFCURVE",
"183 181 CURVE SMOOTH",
"178 190 OFFCURVE",
"176 199 OFFCURVE",
"176 209 CURVE SMOOTH",
"176 436 LINE SMOOTH",
"176 446 OFFCURVE",
"176 456 OFFCURVE",
"175 466 CURVE",
"175 473 LINE SMOOTH",
"175 480 OFFCURVE",
"176 486 OFFCURVE",
"177 493 CURVE SMOOTH",
"179 501 OFFCURVE",
"183 509 OFFCURVE",
"189 516 CURVE SMOOTH",
"194 523 OFFCURVE",
"203 528 OFFCURVE",
"216 533 CURVE SMOOTH",
"223 535 OFFCURVE",
"230 536 OFFCURVE",
"237 536 CURVE SMOOTH",
"244 536 LINE",
"253 534 OFFCURVE",
"262 530 OFFCURVE",
"270 525 CURVE SMOOTH",
"277 520 OFFCURVE",
"283 513 OFFCURVE",
"288 504 CURVE SMOOTH",
"293 495 OFFCURVE",
"295 486 OFFCURVE",
"295 476 CURVE SMOOTH",
"295 249 LINE SMOOTH",
"295 239 OFFCURVE",
"295 229 OFFCURVE",
"296 220 CURVE",
"296 212 LINE SMOOTH",
"296 205 OFFCURVE",
"295 199 OFFCURVE",
"294 193 CURVE SMOOTH",
"292 184 OFFCURVE",
"288 177 OFFCURVE",
"283 170 CURVE SMOOTH",
"277 163 OFFCURVE",
"268 158 OFFCURVE",
"255 153 CURVE SMOOTH",
"248 151 OFFCURVE",
"240 150 OFFCURVE",
"233 150 CURVE SMOOTH"
);
},
{
nodes = (
"130 -107 LINE",
"412 769 LINE",
"341 769 LINE",
"61 -107 LINE"
);
}
);
width = 475;
}
);
unicode = 00F8;
},
{
glyphname = cent;
layers = (
{
layerId = "4FF56D86-EDA3-44A7-BEE3-77B51CD88509";
paths = (
{
nodes = (
"255 0 OFFCURVE",
"266 1 OFFCURVE",
"277 3 CURVE SMOOTH",
"313 9 OFFCURVE",
"345 24 OFFCURVE",
"374 47 CURVE SMOOTH",
"391 60 OFFCURVE",
"404 74 OFFCURVE",
"415 89 CURVE SMOOTH",
"425 103 OFFCURVE",
"433 118 OFFCURVE",
"438 134 CURVE SMOOTH",
"443 149 OFFCURVE",
"447 166 OFFCURVE",
"449 183 CURVE SMOOTH",
"451 200 OFFCURVE",
"452 219 OFFCURVE",
"452 239 CURVE",
"303 239 LINE",
"303 224 OFFCURVE",
"303 209 OFFCURVE",
"302 196 CURVE SMOOTH",
"301 183 OFFCURVE",
"292 171 OFFCURVE",
"277 160 CURVE SMOOTH",
"267 153 OFFCURVE",
"256 149 OFFCURVE",
"245 149 CURVE",
"236 150 LINE SMOOTH",
"221 152 OFFCURVE",
"208 159 OFFCURVE",
"198 171 CURVE SMOOTH",
"188 183 OFFCURVE",
"183 196 OFFCURVE",
"183 209 CURVE SMOOTH",
"183 212 LINE",
"184 226 OFFCURVE",
"184 240 OFFCURVE",
"184 255 CURVE SMOOTH",
"184 376 LINE",
"183 402 LINE",
"184 429 LINE SMOOTH",
"185 448 OFFCURVE",
"186 465 OFFCURVE",
"188 482 CURVE SMOOTH",
"190 499 OFFCURVE",
"193 510 OFFCURVE",
"198 515 CURVE SMOOTH",
"208 526 OFFCURVE",
"221 533 OFFCURVE",
"236 536 CURVE",
"245 537 LINE",
"256 537 OFFCURVE",
"267 533 OFFCURVE",
"277 526 CURVE SMOOTH",
"292 515 OFFCURVE",
"301 503 OFFCURVE",
"302 490 CURVE SMOOTH",
"303 477 OFFCURVE",
"303 462 OFFCURVE",
"303 447 CURVE",
"452 447 LINE",
"452 474 OFFCURVE",
"449 499 OFFCURVE",
"444 524 CURVE SMOOTH",
"439 548 OFFCURVE",
"430 570 OFFCURVE",
"418 591 CURVE SMOOTH",
"406 611 OFFCURVE",
"390 628 OFFCURVE",
"371 643 CURVE SMOOTH",
"351 658 OFFCURVE",
"327 669 OFFCURVE",
"299 677 CURVE SMOOTH",
"280 682 OFFCURVE",
"261 685 OFFCURVE",
"242 685 CURVE",
"224 684 LINE",
"199 681 OFFCURVE",
"175 675 OFFCURVE",
"153 664 CURVE SMOOTH",
"131 653 OFFCURVE",
"111 639 OFFCURVE",
"94 621 CURVE SMOOTH",
"76 602 OFFCURVE",
"62 581 OFFCURVE",
"52 557 CURVE SMOOTH",
"50 553 OFFCURVE",
"49 549 OFFCURVE",
"49 546 CURVE SMOOTH",
"49 539 OFFCURVE",
"54 536 OFFCURVE",
"65 536 CURVE SMOOTH",
"85 536 OFFCURVE",
"95 526 OFFCURVE",
"95 506 CURVE SMOOTH",
"95 447 LINE SMOOTH",
"95 427 OFFCURVE",
"85 417 OFFCURVE",
"65 417 CURVE SMOOTH",
"45 417 OFFCURVE",
"35 407 OFFCURVE",
"35 387 CURVE SMOOTH",
"35 216 LINE SMOOTH",
"35 202 OFFCURVE",
"37 187 OFFCURVE",
"39 172 CURVE",
"46 136 OFFCURVE",
"61 104 OFFCURVE",
"84 76 CURVE SMOOTH",
"107 48 OFFCURVE",
"136 27 OFFCURVE",
"171 14 CURVE SMOOTH",
"195 5 OFFCURVE",
"220 0 OFFCURVE",
"244 0 CURVE SMOOTH"
);
},
{
nodes = (
"322 -81 LINE",
"322 92 LINE",
"174 92 LINE",
"174 -81 LINE"
);
},
{
nodes = (
"322 627 LINE",
"322 766 LINE",
"174 766 LINE",
"174 627 LINE"
);
}
);
width = 476;
}
);
unicode = 00A2;
},
{
glyphname = hyphenminus;
layers = (
{
layerId = "4FF56D86-EDA3-44A7-BEE3-77B51CD88509";
paths = (
{
nodes = (
"267 284 LINE",
"267 432 LINE",
"34 432 LINE",
"34 284 LINE"
);
}
);
width = 299;
}
);
unicode = 002D;
},
{
glyphname = macron;
layers = (
{
layerId = "4FF56D86-EDA3-44A7-BEE3-77B51CD88509";
paths = (
{
nodes = (
"424 732 LINE",
"424 853 LINE",
"130 853 LINE",
"130 732 LINE"
);
}
);
width = 572;
}
);
unicode = 00AF;
},
{
glyphname = h;
layers = (
{
layerId = "4FF56D86-EDA3-44A7-BEE3-77B51CD88509";
paths = (
{
nodes = (
"450 0 LINE",
"450 684 LINE",
"301 684 LINE",
"301 326 LINE",
"182 326 LINE",
"182 684 LINE",
"34 684 LINE",
"34 297 LINE SMOOTH",
"34 278 OFFCURVE",
"44 268 OFFCURVE",
"64 268 CURVE SMOOTH",
"83 268 OFFCURVE",
"93 258 OFFCURVE",
"93 238 CURVE SMOOTH",
"93 179 LINE SMOOTH",
"93 156 OFFCURVE",
"85 149 OFFCURVE",
"64 149 CURVE SMOOTH",
"44 149 OFFCURVE",
"34 139 OFFCURVE",
"34 119 CURVE SMOOTH",
"34 0 LINE",
"182 0 LINE",
"182 177 LINE",
"301 177 LINE",
"301 0 LINE"
);
}
);
width = 485;
}
);
unicode = 0068;
},
{
glyphname = sterling;
layers = (
{
layerId = "4FF56D86-EDA3-44A7-BEE3-77B51CD88509";
paths = (
{
nodes = (
"335 0 LINE",
"335 148 LINE",
"186 148 LINE",
"186 444 LINE",
"184 444 LINE",
"184 453 LINE SMOOTH",
"184 467 OFFCURVE",
"186 481 OFFCURVE",
"190 495 CURVE SMOOTH",
"195 512 OFFCURVE",
"206 524 OFFCURVE",
"222 531 CURVE SMOOTH",
"229 534 OFFCURVE",
"237 536 OFFCURVE",
"244 536 CURVE SMOOTH",
"253 536 OFFCURVE",
"261 534 OFFCURVE",
"270 530 CURVE SMOOTH",
"281 525 OFFCURVE",
"289 520 OFFCURVE",
"294 514 CURVE SMOOTH",
"299 508 OFFCURVE",
"302 502 OFFCURVE",
"304 495 CURVE SMOOTH",
"306 488 OFFCURVE",
"307 480 OFFCURVE",
"307 472 CURVE",
"306 463 OFFCURVE",
"306 455 OFFCURVE",
"306 446 CURVE",
"455 446 LINE",
"455 468 OFFCURVE",
"454 489 OFFCURVE",
"452 508 CURVE SMOOTH",
"449 527 OFFCURVE",
"445 546 OFFCURVE",
"438 563 CURVE SMOOTH",
"431 580 OFFCURVE",
"421 595 OFFCURVE",
"409 610 CURVE SMOOTH",
"396 625 OFFCURVE",
"380 638 OFFCURVE",
"359 651 CURVE SMOOTH",
"325 673 OFFCURVE",
"288 684 OFFCURVE",
"247 684 CURVE SMOOTH",
"206 684 OFFCURVE",
"169 673 OFFCURVE",
"134 651 CURVE SMOOTH",
"114 638 OFFCURVE",
"98 625 OFFCURVE",
"85 610 CURVE SMOOTH",
"72 595 OFFCURVE",
"63 580 OFFCURVE",
"56 563 CURVE SMOOTH",
"49 546 OFFCURVE",
"45 527 OFFCURVE",
"43 508 CURVE SMOOTH",
"40 487 OFFCURVE",
"39 467 OFFCURVE",
"39 444 CURVE",
"38 444 LINE",
"38 325 LINE SMOOTH",
"38 305 OFFCURVE",
"48 295 OFFCURVE",
"67 295 CURVE SMOOTH",
"87 295 OFFCURVE",
"97 285 OFFCURVE",
"97 265 CURVE SMOOTH",
"97 206 LINE SMOOTH",
"97 186 OFFCURVE",
"87 176 OFFCURVE",
"67 176 CURVE SMOOTH",
"48 176 OFFCURVE",
"38 166 OFFCURVE",
"38 146 CURVE SMOOTH",
"38 0 LINE"
);
},
{
nodes = (
"378 194 LINE",
"378 342 LINE",
"148 342 LINE",
"148 194 LINE"
);
}
);
width = 487;
}
);
unicode = 00A3;
},
{
glyphname = exclamdown;
layers = (
{
layerId = "4FF56D86-EDA3-44A7-BEE3-77B51CD88509";
paths = (
{
nodes = (
"183 535 LINE",
"183 684 LINE",
"34 684 LINE",
"34 535 LINE"
);
},
{
nodes = (
"183 0 LINE",
"183 475 LINE",
"34 475 LINE",
"34 434 LINE SMOOTH",
"34 414 OFFCURVE",
"44 404 OFFCURVE",
"64 404 CURVE SMOOTH",
"84 404 OFFCURVE",
"94 394 OFFCURVE",
"94 374 CURVE SMOOTH",
"94 315 LINE SMOOTH",
"94 295 OFFCURVE",
"84 285 OFFCURVE",
"64 285 CURVE SMOOTH",
"44 285 OFFCURVE",
"34 275 OFFCURVE",
"34 256 CURVE SMOOTH",
"34 0 LINE"
);
}
);
width = 221;
}
);
unicode = 00A1;
},
{
glyphname = minus;
layers = (
{
layerId = "4FF56D86-EDA3-44A7-BEE3-77B51CD88509";
paths = (
{
nodes = (
"511 284 LINE",
"511 432 LINE",
"44 432 LINE",
"44 284 LINE"
);
}
);
width = 561;
}
);
unicode = 2212;
},
{
glyphname = bullet;
layers = (
{
layerId = "4FF56D86-EDA3-44A7-BEE3-77B51CD88509";
paths = (
{
nodes = (
"236 256 OFFCURVE",
"292 308 OFFCURVE",
"292 378 CURVE SMOOTH",
"292 444 OFFCURVE",
"240 500 OFFCURVE",
"170 500 CURVE SMOOTH",
"104 500 OFFCURVE",
"48 448 OFFCURVE",
"48 378 CURVE SMOOTH",
"48 312 OFFCURVE",
"100 256 OFFCURVE",
"170 256 CURVE SMOOTH"
);
}
);
width = 334;
}
);
unicode = 2022;
},
{
glyphname = equal;
layers = (
{
layerId = "4FF56D86-EDA3-44A7-BEE3-77B51CD88509";
paths = (
{
nodes = (
"439 394 LINE",
"439 542 LINE",
"37 542 LINE",
"37 394 LINE"
);
},
{
nodes = (
"439 190 LINE",
"439 338 LINE",
"37 338 LINE",
"37 190 LINE"
);
}
);
width = 478;
}
);
unicode = 003D;
},
{
glyphname = yen;
layers = (
{
layerId = "4FF56D86-EDA3-44A7-BEE3-77B51CD88509";
paths = (
{
nodes = (
"332 -67 LINE",
"332 354 LINE",
"352 361 OFFCURVE",
"370 371 OFFCURVE",
"386 384 CURVE SMOOTH",
"402 397 OFFCURVE",
"416 411 OFFCURVE",
"428 428 CURVE SMOOTH",
"439 444 OFFCURVE",
"448 462 OFFCURVE",
"455 481 CURVE SMOOTH",
"462 500 OFFCURVE",
"465 521 OFFCURVE",
"466 542 CURVE",
"467 629 LINE",
"467 665 LINE",
"466 705 OFFCURVE",
"466 746 OFFCURVE",
"466 787 CURVE",
"317 787 LINE",
"317 621 LINE SMOOTH",
"317 608 OFFCURVE",
"318 594 OFFCURVE",
"319 579 CURVE SMOOTH",
"320 563 LINE",
"320 553 OFFCURVE",
"319 544 OFFCURVE",
"317 536 CURVE SMOOTH",
"314 523 OFFCURVE",
"309 512 OFFCURVE",
"301 503 CURVE SMOOTH",
"292 494 OFFCURVE",
"278 489 OFFCURVE",
"258 489 CURVE SMOOTH",
"238 489 OFFCURVE",
"224 494 OFFCURVE",
"216 503 CURVE SMOOTH",
"207 512 OFFCURVE",
"202 523 OFFCURVE",
"199 536 CURVE SMOOTH",
"197 544 OFFCURVE",
"196 553 OFFCURVE",
"196 563 CURVE",
"197 579 LINE SMOOTH",
"198 594 OFFCURVE",
"199 608 OFFCURVE",
"199 621 CURVE SMOOTH",
"199 787 LINE",
"50 787 LINE",
"50 668 LINE SMOOTH",
"50 648 OFFCURVE",
"60 638 OFFCURVE",
"80 638 CURVE SMOOTH",
"99 638 OFFCURVE",
"109 628 OFFCURVE",
"109 608 CURVE SMOOTH",
"109 549 LINE SMOOTH",
"109 529 OFFCURVE",
"99 519 OFFCURVE",
"80 519 CURVE SMOOTH",
"73 519 OFFCURVE",
"67 517 OFFCURVE",
"62 513 CURVE SMOOTH",
"59 510 OFFCURVE",
"57 507 OFFCURVE",
"57 502 CURVE",
"58 488 LINE",
"59 483 OFFCURVE",
"61 478 OFFCURVE",
"63 473 CURVE SMOOTH",
"68 463 LINE",
"75 446 OFFCURVE",
"84 431 OFFCURVE",
"96 416 CURVE SMOOTH",
"108 401 OFFCURVE",
"121 388 OFFCURVE",
"136 379 CURVE SMOOTH",
"150 370 OFFCURVE",
"166 361 OFFCURVE",
"184 354 CURVE",
"184 -67 LINE"
);
},
{
nodes = (
"497 192 LINE",
"497 298 LINE",
"22 298 LINE",
"22 192 LINE"
);
},
{
nodes = (
"497 36 LINE",
"497 142 LINE",
"22 142 LINE",
"22 36 LINE"
);
}
);
width = 528;
}
);
unicode = 00A5;
},
{
glyphname = plus;
layers = (
{
layerId = "4FF56D86-EDA3-44A7-BEE3-77B51CD88509";
paths = (
{
nodes = (
"511 284 LINE",
"511 432 LINE",
"44 432 LINE",
"44 284 LINE"
);
},
{
nodes = (
"349 126 LINE",
"349 593 LINE",
"201 593 LINE",
"201 126 LINE"
);
}
);
width = 543;
}
);
unicode = 002B;
},
{
glyphname = bracketleft;
layers = (
{
layerId = "4FF56D86-EDA3-44A7-BEE3-77B51CD88509";
paths = (
{
nodes = (
"186 -81 LINE",
"186 766 LINE",
"38 766 LINE",
"38 -81 LINE"
);
},
{
nodes = (
"327 670 LINE",
"327 818 LINE",
"38 818 LINE",
"38 670 LINE"
);
},
{
nodes = (
"327 -113 LINE",
"327 35 LINE",
"38 35 LINE",
"38 -113 LINE"
);
}
);
width = 351;
}
);
unicode = 005B;
},
{
glyphname = bracketright;
layers = (
{
layerId = "4FF56D86-EDA3-44A7-BEE3-77B51CD88509";
paths = (
{
nodes = (
"327 -61 LINE",
"327 786 LINE",
"179 786 LINE",
"179 -61 LINE"
);
},
{
nodes = (
"327 -113 LINE",
"327 35 LINE",
"38 35 LINE",
"38 -113 LINE"
);
},
{
nodes = (
"327 670 LINE",
"327 818 LINE",
"38 818 LINE",
"38 670 LINE"
);
}
);
width = 351;
}
);
unicode = 005D;
},
{
glyphname = backslash;
layers = (
{
layerId = "4FF56D86-EDA3-44A7-BEE3-77B51CD88509";
paths = (
{
nodes = (
"492 0 LINE",
"203 689 LINE",
"53 689 LINE",
"344 0 LINE"
);
}
);
width = 537;
}
);
unicode = 005C;
},
{
glyphname = cedilla;
layers = (
{
layerId = "4FF56D86-EDA3-44A7-BEE3-77B51CD88509";
paths = (
{
nodes = (
"257 -234 OFFCURVE",
"297 -190 OFFCURVE",
"297 -140 CURVE SMOOTH",
"297 -113 LINE SMOOTH",
"297 -57 OFFCURVE",
"253 -18 OFFCURVE",
"207 -18 CURVE SMOOTH",
"181 -18 LINE",
"181 33 LINE",
"118 33 LINE",
"118 -86 LINE",
"207 -86 LINE SMOOTH",
"220 -86 OFFCURVE",
"234 -98 OFFCURVE",
"234 -113 CURVE SMOOTH",
"234 -140 LINE SMOOTH",
"234 -155 OFFCURVE",
"220 -166 OFFCURVE",
"207 -166 CURVE SMOOTH",
"194 -166 OFFCURVE",
"181 -155 OFFCURVE",
"181 -140 CURVE SMOOTH",
"181 -126 LINE",
"118 -126 LINE",
"118 -140 LINE SMOOTH",
"118 -189 OFFCURVE",
"158 -234 OFFCURVE",
"207 -234 CURVE SMOOTH"
);
}
);
width = 380;
}
);
unicode = 00B8;
},
{
glyphname = Ccedilla;
layers = (
{
layerId = "4FF56D86-EDA3-44A7-BEE3-77B51CD88509";
paths = (
{
nodes = (
"248 0 OFFCURVE",
"259 1 OFFCURVE",
"270 3 CURVE SMOOTH",
"306 9 OFFCURVE",
"338 24 OFFCURVE",
"367 47 CURVE SMOOTH",
"383 60 OFFCURVE",
"397 74 OFFCURVE",
"407 89 CURVE SMOOTH",
"417 103 OFFCURVE",
"425 118 OFFCURVE",
"431 134 CURVE SMOOTH",
"436 149 OFFCURVE",
"440 166 OFFCURVE",
"442 183 CURVE SMOOTH",
"444 200 OFFCURVE",
"445 219 OFFCURVE",
"445 239 CURVE",
"296 239 LINE",
"296 224 OFFCURVE",
"295 209 OFFCURVE",
"294 196 CURVE SMOOTH",
"293 183 OFFCURVE",
"285 171 OFFCURVE",
"270 160 CURVE SMOOTH",
"260 153 OFFCURVE",
"248 149 OFFCURVE",
"237 149 CURVE",
"228 150 LINE SMOOTH",
"213 152 OFFCURVE",
"201 159 OFFCURVE",
"191 171 CURVE SMOOTH",
"180 183 OFFCURVE",
"175 196 OFFCURVE",
"175 209 CURVE SMOOTH",
"175 212 LINE",
"176 226 OFFCURVE",
"177 240 OFFCURVE",
"177 255 CURVE SMOOTH",
"177 343 LINE SMOOTH",
"177 348 OFFCURVE",
"176 359 OFFCURVE",
"176 376 CURVE SMOOTH",
"176 393 OFFCURVE",
"176 410 OFFCURVE",
"177 429 CURVE",
"177 448 OFFCURVE",
"179 465 OFFCURVE",
"181 482 CURVE SMOOTH",
"183 499 OFFCURVE",
"186 510 OFFCURVE",
"191 515 CURVE SMOOTH",
"201 526 OFFCURVE",
"213 533 OFFCURVE",
"228 536 CURVE",
"237 537 LINE",
"248 537 OFFCURVE",
"260 533 OFFCURVE",
"270 526 CURVE SMOOTH",
"285 515 OFFCURVE",
"293 503 OFFCURVE",
"294 490 CURVE SMOOTH",
"295 477 OFFCURVE",
"296 462 OFFCURVE",
"296 447 CURVE",
"445 447 LINE",
"445 474 OFFCURVE",
"442 499 OFFCURVE",
"437 524 CURVE",
"431 548 OFFCURVE",
"423 570 OFFCURVE",
"411 591 CURVE SMOOTH",
"399 611 OFFCURVE",
"383 628 OFFCURVE",
"363 643 CURVE SMOOTH",
"343 658 OFFCURVE",
"320 669 OFFCURVE",
"292 677 CURVE SMOOTH",
"272 682 OFFCURVE",
"253 685 OFFCURVE",
"234 685 CURVE",
"216 684 LINE",
"191 681 OFFCURVE",
"168 675 OFFCURVE",
"146 664 CURVE SMOOTH",
"124 653 OFFCURVE",
"104 639 OFFCURVE",
"86 621 CURVE SMOOTH",
"68 602 OFFCURVE",
"55 581 OFFCURVE",
"45 557 CURVE SMOOTH",
"43 553 OFFCURVE",
"42 549 OFFCURVE",
"42 546 CURVE SMOOTH",
"42 539 OFFCURVE",
"47 536 OFFCURVE",
"58 536 CURVE SMOOTH",
"78 536 OFFCURVE",
"88 526 OFFCURVE",
"88 506 CURVE SMOOTH",
"88 447 LINE SMOOTH",
"88 427 OFFCURVE",
"78 417 OFFCURVE",
"58 417 CURVE SMOOTH",
"38 417 OFFCURVE",
"28 407 OFFCURVE",
"28 387 CURVE SMOOTH",
"28 280 LINE",
"27 226 LINE",
"27 208 OFFCURVE",
"28 190 OFFCURVE",
"32 172 CURVE",
"38 136 OFFCURVE",
"53 104 OFFCURVE",
"77 76 CURVE SMOOTH",
"100 48 OFFCURVE",
"129 27 OFFCURVE",
"164 14 CURVE SMOOTH",
"188 5 OFFCURVE",
"212 0 OFFCURVE",
"237 0 CURVE SMOOTH"
);
},
{
nodes = (
"341 -234 OFFCURVE",
"382 -190 OFFCURVE",
"382 -140 CURVE SMOOTH",
"382 -113 LINE SMOOTH",
"382 -57 OFFCURVE",
"337 -18 OFFCURVE",
"292 -18 CURVE SMOOTH",
"266 -18 LINE",
"266 33 LINE",
"203 33 LINE",
"203 -86 LINE",
"292 -86 LINE SMOOTH",
"305 -86 OFFCURVE",
"319 -98 OFFCURVE",
"319 -113 CURVE SMOOTH",
"319 -140 LINE SMOOTH",
"319 -155 OFFCURVE",
"305 -166 OFFCURVE",
"292 -166 CURVE SMOOTH",
"279 -166 OFFCURVE",
"266 -155 OFFCURVE",
"266 -140 CURVE SMOOTH",
"266 -126 LINE",
"203 -126 LINE",
"203 -140 LINE SMOOTH",
"203 -189 OFFCURVE",
"242 -234 OFFCURVE",
"292 -234 CURVE SMOOTH"
);
}
);
width = 469;
}
);
unicode = 00C7;
},
{
glyphname = ccedilla;
layers = (
{
layerId = "4FF56D86-EDA3-44A7-BEE3-77B51CD88509";
paths = (
{
nodes = (
"248 0 OFFCURVE",
"259 1 OFFCURVE",
"270 3 CURVE SMOOTH",
"306 9 OFFCURVE",
"338 24 OFFCURVE",
"367 47 CURVE SMOOTH",
"383 60 OFFCURVE",
"397 74 OFFCURVE",
"407 89 CURVE SMOOTH",
"417 103 OFFCURVE",
"425 118 OFFCURVE",
"431 134 CURVE SMOOTH",
"436 149 OFFCURVE",
"440 166 OFFCURVE",
"442 183 CURVE SMOOTH",
"444 200 OFFCURVE",
"445 219 OFFCURVE",
"445 239 CURVE",
"296 239 LINE",
"296 224 OFFCURVE",
"295 209 OFFCURVE",
"294 196 CURVE SMOOTH",
"293 183 OFFCURVE",
"285 171 OFFCURVE",
"270 160 CURVE SMOOTH",
"260 153 OFFCURVE",
"248 149 OFFCURVE",
"237 149 CURVE",
"228 150 LINE SMOOTH",
"213 152 OFFCURVE",
"201 159 OFFCURVE",
"191 171 CURVE SMOOTH",
"180 183 OFFCURVE",
"175 196 OFFCURVE",
"175 209 CURVE SMOOTH",
"175 212 LINE",
"176 226 OFFCURVE",
"177 240 OFFCURVE",
"177 255 CURVE SMOOTH",
"177 343 LINE SMOOTH",
"177 348 OFFCURVE",
"176 359 OFFCURVE",
"176 376 CURVE SMOOTH",
"176 393 OFFCURVE",
"176 410 OFFCURVE",
"177 429 CURVE",
"177 448 OFFCURVE",
"179 465 OFFCURVE",
"181 482 CURVE SMOOTH",
"183 499 OFFCURVE",
"186 510 OFFCURVE",
"191 515 CURVE SMOOTH",
"201 526 OFFCURVE",
"213 533 OFFCURVE",
"228 536 CURVE",
"237 537 LINE",
"248 537 OFFCURVE",
"260 533 OFFCURVE",
"270 526 CURVE SMOOTH",
"285 515 OFFCURVE",
"293 503 OFFCURVE",
"294 490 CURVE SMOOTH",
"295 477 OFFCURVE",
"296 462 OFFCURVE",
"296 447 CURVE",
"445 447 LINE",
"445 474 OFFCURVE",
"442 499 OFFCURVE",
"437 524 CURVE",
"431 548 OFFCURVE",
"423 570 OFFCURVE",
"411 591 CURVE SMOOTH",
"399 611 OFFCURVE",
"383 628 OFFCURVE",
"363 643 CURVE SMOOTH",
"343 658 OFFCURVE",
"320 669 OFFCURVE",
"292 677 CURVE SMOOTH",
"272 682 OFFCURVE",
"253 685 OFFCURVE",
"234 685 CURVE",
"216 684 LINE",
"191 681 OFFCURVE",
"168 675 OFFCURVE",
"146 664 CURVE SMOOTH",
"124 653 OFFCURVE",
"104 639 OFFCURVE",
"86 621 CURVE SMOOTH",
"68 602 OFFCURVE",
"55 581 OFFCURVE",
"45 557 CURVE SMOOTH",
"43 553 OFFCURVE",
"42 549 OFFCURVE",
"42 546 CURVE SMOOTH",
"42 539 OFFCURVE",
"47 536 OFFCURVE",
"58 536 CURVE SMOOTH",
"78 536 OFFCURVE",
"88 526 OFFCURVE",
"88 506 CURVE SMOOTH",
"88 447 LINE SMOOTH",
"88 427 OFFCURVE",
"78 417 OFFCURVE",
"58 417 CURVE SMOOTH",
"38 417 OFFCURVE",
"28 407 OFFCURVE",
"28 387 CURVE SMOOTH",
"28 280 LINE",
"27 226 LINE",
"27 208 OFFCURVE",
"28 190 OFFCURVE",
"32 172 CURVE",
"38 136 OFFCURVE",
"53 104 OFFCURVE",
"77 76 CURVE SMOOTH",
"100 48 OFFCURVE",
"129 27 OFFCURVE",
"164 14 CURVE SMOOTH",
"188 5 OFFCURVE",
"212 0 OFFCURVE",
"237 0 CURVE SMOOTH"
);
},
{
nodes = (
"341 -234 OFFCURVE",
"382 -190 OFFCURVE",
"382 -140 CURVE SMOOTH",
"382 -113 LINE SMOOTH",
"382 -57 OFFCURVE",
"337 -18 OFFCURVE",
"292 -18 CURVE SMOOTH",
"266 -18 LINE",
"266 33 LINE",
"203 33 LINE",
"203 -86 LINE",
"292 -86 LINE SMOOTH",
"305 -86 OFFCURVE",
"319 -98 OFFCURVE",
"319 -113 CURVE SMOOTH",
"319 -140 LINE SMOOTH",
"319 -155 OFFCURVE",
"305 -166 OFFCURVE",
"292 -166 CURVE SMOOTH",
"279 -166 OFFCURVE",
"266 -155 OFFCURVE",
"266 -140 CURVE SMOOTH",
"266 -126 LINE",
"203 -126 LINE",
"203 -140 LINE SMOOTH",
"203 -189 OFFCURVE",
"242 -234 OFFCURVE",
"292 -234 CURVE SMOOTH"
);
}
);
width = 469;
}
);
unicode = 00E7;
},
{
glyphname = underscore;
layers = (
{
layerId = "4FF56D86-EDA3-44A7-BEE3-77B51CD88509";
paths = (
{
nodes = (
"552 -173 LINE",
"552 -25 LINE",
"41 -25 LINE",
"41 -173 LINE"
);
}
);
width = 573;
}
);
unicode = 005F;
},
{
glyphname = questiondown;
layers = (
{
layerId = "4FF56D86-EDA3-44A7-BEE3-77B51CD88509";
paths = (
{
nodes = (
"327 542 LINE",
"327 690 LINE",
"178 690 LINE",
"178 542 LINE"
);
},
{
nodes = (
"251 6 OFFCURVE",
"266 8 OFFCURVE",
"280 11 CURVE SMOOTH",
"313 18 OFFCURVE",
"344 32 OFFCURVE",
"372 55 CURVE SMOOTH",
"399 78 OFFCURVE",
"420 107 OFFCURVE",
"433 143 CURVE",
"434 147 LINE",
"434 149 OFFCURVE",
"433 151 OFFCURVE",
"430 152 CURVE SMOOTH",
"425 154 OFFCURVE",
"421 155 OFFCURVE",
"416 155 CURVE SMOOTH",
"396 155 OFFCURVE",
"386 165 OFFCURVE",
"386 185 CURVE SMOOTH",
"386 244 LINE",
"297 244 LINE",
"297 239 OFFCURVE",
"297 234 OFFCURVE",
"298 229 CURVE",
"297 205 LINE",
"296 195 OFFCURVE",
"293 186 OFFCURVE",
"288 178 CURVE SMOOTH",
"283 170 OFFCURVE",
"273 164 OFFCURVE",
"260 159 CURVE",
"252 157 LINE",
"247 155 OFFCURVE",
"242 155 OFFCURVE",
"237 155 CURVE SMOOTH",
"233 155 OFFCURVE",
"230 155 OFFCURVE",
"226 156 CURVE SMOOTH",
"221 157 OFFCURVE",
"217 159 OFFCURVE",
"215 160 CURVE SMOOTH",
"210 161 OFFCURVE",
"203 166 OFFCURVE",
"196 173 CURVE",
"193 174 OFFCURVE",
"191 177 OFFCURVE",
"188 182 CURVE",
"187 183 OFFCURVE",
"187 184 OFFCURVE",
"187 185 CURVE",
"186 185 OFFCURVE",
"186 186 OFFCURVE",
"185 187 CURVE",
"184 190 OFFCURVE",
"183 191 OFFCURVE",
"182 192 CURVE",
"182 195 LINE",
"181 195 OFFCURVE",
"181 196 OFFCURVE",
"181 197 CURVE",
"180 198 OFFCURVE",
"180 200 OFFCURVE",
"180 202 CURVE",
"178 215 LINE",
"178 230 OFFCURVE",
"184 244 OFFCURVE",
"195 256 CURVE SMOOTH",
"206 268 OFFCURVE",
"220 274 OFFCURVE",
"238 274 CURVE SMOOTH",
"263 274 OFFCURVE",
"284 283 OFFCURVE",
"301 300 CURVE SMOOTH",
"318 317 OFFCURVE",
"327 338 OFFCURVE",
"327 363 CURVE SMOOTH",
"327 482 LINE",
"178 482 LINE",
"178 414 LINE",
"141 403 OFFCURVE",
"111 385 OFFCURVE",
"87 358 CURVE SMOOTH",
"62 331 OFFCURVE",
"46 302 OFFCURVE",
"37 269 CURVE SMOOTH",
"32 251 OFFCURVE",
"30 233 OFFCURVE",
"30 214 CURVE SMOOTH",
"30 199 OFFCURVE",
"31 183 OFFCURVE",
"35 167 CURVE",
"42 132 OFFCURVE",
"59 100 OFFCURVE",
"86 72 CURVE SMOOTH",
"113 44 OFFCURVE",
"143 25 OFFCURVE",
"178 15 CURVE SMOOTH",
"198 9 OFFCURVE",
"217 6 OFFCURVE",
"237 6 CURVE SMOOTH"
);
}
);
width = 456;
}
);
unicode = 00BF;
},
{
glyphname = percent;
layers = (
{
layerId = "4FF56D86-EDA3-44A7-BEE3-77B51CD88509";
paths = (
{
nodes = (
"662 0 OFFCURVE",
"683 4 OFFCURVE",
"702 12 CURVE SMOOTH",
"720 19 OFFCURVE",
"735 30 OFFCURVE",
"748 43 CURVE SMOOTH",
"760 56 OFFCURVE",
"769 72 OFFCURVE",
"776 91 CURVE SMOOTH",
"782 109 OFFCURVE",
"785 129 OFFCURVE",
"786 151 CURVE",
"786 270 LINE SMOOTH",
"786 298 OFFCURVE",
"782 326 OFFCURVE",
"775 353 CURVE SMOOTH",
"767 380 OFFCURVE",
"749 404 OFFCURVE",
"722 425 CURVE",
"722 426 LINE",
"697 443 OFFCURVE",
"669 452 OFFCURVE",
"639 452 CURVE SMOOTH",
"610 452 OFFCURVE",
"584 444 OFFCURVE",
"559 429 CURVE SMOOTH",
"534 414 OFFCURVE",
"516 392 OFFCURVE",
"505 363 CURVE",
"505 364 LINE",
"502 357 OFFCURVE",
"501 351 OFFCURVE",
"501 346 CURVE SMOOTH",
"501 333 OFFCURVE",
"510 327 OFFCURVE",
"529 327 CURVE",
"530 326 LINE",
"530 289 LINE",
"530 288 OFFCURVE",
"530 288 OFFCURVE",
"529 288 CURVE",
"506 288 OFFCURVE",
"494 276 OFFCURVE",
"494 253 CURVE SMOOTH",
"494 143 LINE SMOOTH",
"494 122 OFFCURVE",
"498 103 OFFCURVE",
"506 86 CURVE",
"513 68 OFFCURVE",
"524 53 OFFCURVE",
"537 40 CURVE SMOOTH",
"550 27 OFFCURVE",
"565 18 OFFCURVE",
"583 11 CURVE SMOOTH",
"600 4 OFFCURVE",
"619 0 OFFCURVE",
"638 0 CURVE SMOOTH"
);
},
{
nodes = (
"636 124 LINE",
"633 124 OFFCURVE",
"630 125 OFFCURVE",
"627 127 CURVE SMOOTH",
"621 131 OFFCURVE",
"618 136 OFFCURVE",
"618 143 CURVE SMOOTH",
"618 300 LINE",
"619 314 LINE",
"620 319 OFFCURVE",
"625 323 OFFCURVE",
"632 326 CURVE",
"638 327 LINE",
"642 327 OFFCURVE",
"646 326 OFFCURVE",
"650 324 CURVE SMOOTH",
"655 320 OFFCURVE",
"658 314 OFFCURVE",
"658 307 CURVE SMOOTH",
"658 157 LINE",
"659 147 LINE",
"658 138 LINE SMOOTH",
"657 132 OFFCURVE",
"653 128 OFFCURVE",
"646 126 CURVE"
);
},
{
nodes = (
"186 232 OFFCURVE",
"207 236 OFFCURVE",
"226 244 CURVE SMOOTH",
"244 251 OFFCURVE",
"259 262 OFFCURVE",
"272 276 CURVE SMOOTH",
"284 289 OFFCURVE",
"293 305 OFFCURVE",
"300 324 CURVE SMOOTH",
"307 342 OFFCURVE",
"310 362 OFFCURVE",
"310 384 CURVE SMOOTH",
"310 503 LINE SMOOTH",
"310 531 OFFCURVE",
"306 559 OFFCURVE",
"299 586 CURVE SMOOTH",
"291 613 OFFCURVE",
"273 637 OFFCURVE",
"246 658 CURVE",
"222 675 OFFCURVE",
"194 684 OFFCURVE",
"163 684 CURVE SMOOTH",
"134 684 OFFCURVE",
"108 676 OFFCURVE",
"83 661 CURVE SMOOTH",
"58 646 OFFCURVE",
"40 624 OFFCURVE",
"29 595 CURVE",
"30 596 LINE",
"27 589 OFFCURVE",
"25 583 OFFCURVE",
"25 578 CURVE SMOOTH",
"25 566 OFFCURVE",
"34 560 OFFCURVE",
"53 560 CURVE",
"54 560 OFFCURVE",
"55 559 OFFCURVE",
"55 558 CURVE",
"55 522 LINE",
"55 521 OFFCURVE",
"54 521 OFFCURVE",
"53 521 CURVE",
"30 521 OFFCURVE",
"18 509 OFFCURVE",
"18 485 CURVE SMOOTH",
"18 376 LINE SMOOTH",
"18 355 OFFCURVE",
"22 336 OFFCURVE",
"30 319 CURVE",
"37 301 OFFCURVE",
"48 286 OFFCURVE",
"61 273 CURVE SMOOTH",
"74 260 OFFCURVE",
"89 250 OFFCURVE",
"107 243 CURVE SMOOTH",
"124 236 OFFCURVE",
"143 232 OFFCURVE",
"162 232 CURVE SMOOTH"
);
},
{
nodes = (
"161 356 LINE",
"157 356 OFFCURVE",
"154 358 OFFCURVE",
"151 360 CURVE SMOOTH",
"146 364 OFFCURVE",
"143 369 OFFCURVE",
"143 376 CURVE SMOOTH",
"143 532 LINE",
"144 546 LINE",
"145 552 OFFCURVE",
"150 556 OFFCURVE",
"157 559 CURVE",
"162 560 LINE",
"166 560 OFFCURVE",
"170 559 OFFCURVE",
"174 557 CURVE SMOOTH",
"179 553 OFFCURVE",
"182 547 OFFCURVE",
"182 539 CURVE SMOOTH",
"182 389 LINE",
"183 379 LINE",
"182 371 LINE SMOOTH",
"181 365 OFFCURVE",
"177 361 OFFCURVE",
"170 358 CURVE"
);
},
{
nodes = (
"375 0 LINE",
"572 684 LINE",
"440 684 LINE",
"244 0 LINE"
);
}
);
width = 809;
}
);
unicode = 0025;
},
{
glyphname = AE;
layers = (
{
layerId = "4FF56D86-EDA3-44A7-BEE3-77B51CD88509";
paths = (
{
nodes = (
"691 0 LINE",
"691 149 LINE",
"447 153 LINE",
"447 268 LINE",
"655 268 LINE",
"655 417 LINE",
"447 417 LINE",
"447 428 LINE SMOOTH",
"447 443 OFFCURVE",
"447 457 OFFCURVE",
"446 471 CURVE",
"446 482 LINE",
"449 493 LINE",
"454 508 OFFCURVE",
"460 519 OFFCURVE",
"469 526 CURVE SMOOTH",
"478 533 OFFCURVE",
"490 536 OFFCURVE",
"506 536 CURVE SMOOTH",
"691 536 LINE",
"691 684 LINE",
"506 684 LINE SMOOTH",
"464 684 OFFCURVE",
"425 672 OFFCURVE",
"390 649 CURVE SMOOTH",
"384 645 OFFCURVE",
"378 641 OFFCURVE",
"372 636 CURVE",
"352 653 OFFCURVE",
"330 666 OFFCURVE",
"305 674 CURVE SMOOTH",
"283 681 OFFCURVE",
"260 685 OFFCURVE",
"238 685 CURVE SMOOTH",
"227 685 OFFCURVE",
"215 684 OFFCURVE",
"204 682 CURVE SMOOTH",
"171 676 OFFCURVE",
"140 662 OFFCURVE",
"112 641 CURVE SMOOTH",
"83 620 OFFCURVE",
"62 591 OFFCURVE",
"47 556 CURVE SMOOTH",
"45 552 OFFCURVE",
"45 549 OFFCURVE",
"45 547 CURVE",
"45 540 OFFCURVE",
"50 536 OFFCURVE",
"61 536 CURVE SMOOTH",
"81 536 OFFCURVE",
"91 526 OFFCURVE",
"91 506 CURVE SMOOTH",
"91 446 LINE SMOOTH",
"91 426 OFFCURVE",
"81 416 OFFCURVE",
"61 416 CURVE SMOOTH",
"41 416 OFFCURVE",
"31 406 OFFCURVE",
"31 387 CURVE SMOOTH",
"31 0 LINE",
"180 0 LINE",
"180 149 LINE",
"298 149 LINE",
"298 0 LINE"
);
},
{
nodes = (
"298 297 LINE",
"180 297 LINE",
"180 433 LINE SMOOTH",
"180 444 OFFCURVE",
"180 456 OFFCURVE",
"179 467 CURVE",
"179 473 LINE SMOOTH",
"179 482 OFFCURVE",
"181 492 OFFCURVE",
"185 501 CURVE SMOOTH",
"191 514 OFFCURVE",
"198 523 OFFCURVE",
"206 528 CURVE SMOOTH",
"214 533 OFFCURVE",
"225 536 OFFCURVE",
"239 536 CURVE SMOOTH",
"253 536 OFFCURVE",
"264 533 OFFCURVE",
"272 528 CURVE SMOOTH",
"280 523 OFFCURVE",
"287 514 OFFCURVE",
"293 501 CURVE SMOOTH",
"297 491 OFFCURVE",
"300 481 OFFCURVE",
"300 471 CURVE SMOOTH",
"300 467 LINE",
"299 456 OFFCURVE",
"298 444 OFFCURVE",
"298 433 CURVE SMOOTH"
);
}
);
width = 724;
}
);
unicode = 00C6;
},
{
glyphname = ae;
layers = (
{
layerId = "4FF56D86-EDA3-44A7-BEE3-77B51CD88509";
paths = (
{
nodes = (
"691 0 LINE",
"691 149 LINE",
"447 153 LINE",
"447 268 LINE",
"655 268 LINE",
"655 417 LINE",
"447 417 LINE",
"447 428 LINE SMOOTH",
"447 443 OFFCURVE",
"447 457 OFFCURVE",
"446 471 CURVE",
"446 482 LINE",
"449 493 LINE",
"454 508 OFFCURVE",
"460 519 OFFCURVE",
"469 526 CURVE SMOOTH",
"478 533 OFFCURVE",
"490 536 OFFCURVE",
"506 536 CURVE SMOOTH",
"691 536 LINE",
"691 684 LINE",
"506 684 LINE SMOOTH",
"464 684 OFFCURVE",
"425 672 OFFCURVE",
"390 649 CURVE SMOOTH",
"384 645 OFFCURVE",
"378 641 OFFCURVE",
"372 636 CURVE",
"352 653 OFFCURVE",
"330 666 OFFCURVE",
"305 674 CURVE SMOOTH",
"283 681 OFFCURVE",
"260 685 OFFCURVE",
"238 685 CURVE SMOOTH",
"227 685 OFFCURVE",
"215 684 OFFCURVE",
"204 682 CURVE SMOOTH",
"171 676 OFFCURVE",
"140 662 OFFCURVE",
"112 641 CURVE SMOOTH",
"83 620 OFFCURVE",
"62 591 OFFCURVE",
"47 556 CURVE SMOOTH",
"45 552 OFFCURVE",
"45 549 OFFCURVE",
"45 547 CURVE",
"45 540 OFFCURVE",
"50 536 OFFCURVE",
"61 536 CURVE SMOOTH",
"81 536 OFFCURVE",
"91 526 OFFCURVE",
"91 506 CURVE SMOOTH",
"91 446 LINE SMOOTH",
"91 426 OFFCURVE",
"81 416 OFFCURVE",
"61 416 CURVE SMOOTH",
"41 416 OFFCURVE",
"31 406 OFFCURVE",
"31 387 CURVE SMOOTH",
"31 0 LINE",
"180 0 LINE",
"180 149 LINE",
"298 149 LINE",
"298 0 LINE"
);
},
{
nodes = (
"298 297 LINE",
"180 297 LINE",
"180 433 LINE SMOOTH",
"180 444 OFFCURVE",
"180 456 OFFCURVE",
"179 467 CURVE",
"179 473 LINE SMOOTH",
"179 482 OFFCURVE",
"181 492 OFFCURVE",
"185 501 CURVE SMOOTH",
"191 514 OFFCURVE",
"198 523 OFFCURVE",
"206 528 CURVE SMOOTH",
"214 533 OFFCURVE",
"225 536 OFFCURVE",
"239 536 CURVE SMOOTH",
"253 536 OFFCURVE",
"264 533 OFFCURVE",
"272 528 CURVE SMOOTH",
"280 523 OFFCURVE",
"287 514 OFFCURVE",
"293 501 CURVE SMOOTH",
"297 491 OFFCURVE",
"300 481 OFFCURVE",
"300 471 CURVE SMOOTH",
"300 467 LINE",
"299 456 OFFCURVE",
"298 444 OFFCURVE",
"298 433 CURVE SMOOTH"
);
}
);
width = 724;
}
);
unicode = 00E6;
},
{
glyphname = germandbls;
layers = (
{
layerId = "4FF56D86-EDA3-44A7-BEE3-77B51CD88509";
paths = (
{
nodes = (
"232 0 LINE",
"260 0 OFFCURVE",
"287 6 OFFCURVE",
"312 17 CURVE SMOOTH",
"337 28 OFFCURVE",
"360 42 OFFCURVE",
"379 61 CURVE SMOOTH",
"398 80 OFFCURVE",
"413 102 OFFCURVE",
"424 127 CURVE SMOOTH",
"435 152 OFFCURVE",
"440 179 OFFCURVE",
"440 208 CURVE SMOOTH",
"440 235 OFFCURVE",
"436 259 OFFCURVE",
"429 280 CURVE SMOOTH",
"421 301 OFFCURVE",
"408 321 OFFCURVE",
"391 342 CURVE",
"408 363 OFFCURVE",
"421 384 OFFCURVE",
"429 405 CURVE SMOOTH",
"436 426 OFFCURVE",
"440 449 OFFCURVE",
"440 476 CURVE SMOOTH",
"440 514 OFFCURVE",
"432 547 OFFCURVE",
"417 576 CURVE",
"401 604 OFFCURVE",
"381 627 OFFCURVE",
"356 645 CURVE SMOOTH",
"331 662 OFFCURVE",
"303 674 OFFCURVE",
"273 680 CURVE SMOOTH",
"258 683 OFFCURVE",
"243 684 OFFCURVE",
"229 684 CURVE SMOOTH",
"213 684 OFFCURVE",
"198 683 OFFCURVE",
"183 679 CURVE SMOOTH",
"153 672 OFFCURVE",
"125 659 OFFCURVE",
"100 639 CURVE SMOOTH",
"74 618 OFFCURVE",
"54 591 OFFCURVE",
"39 556 CURVE",
"38 552 OFFCURVE",
"37 549 OFFCURVE",
"37 546 CURVE SMOOTH",
"37 539 OFFCURVE",
"42 535 OFFCURVE",
"53 535 CURVE SMOOTH",
"73 535 OFFCURVE",
"83 525 OFFCURVE",
"83 506 CURVE SMOOTH",
"83 446 LINE SMOOTH",
"83 426 OFFCURVE",
"73 416 OFFCURVE",
"53 416 CURVE SMOOTH",
"42 416 OFFCURVE",
"36 411 OFFCURVE",
"36 402 CURVE",
"37 396 LINE",
"36 271 LINE",
"37 0 LINE",
"185 0 LINE",
"185 268 LINE",
"232 268 LINE",
"248 267 OFFCURVE",
"262 261 OFFCURVE",
"273 250 CURVE SMOOTH",
"285 239 OFFCURVE",
"291 225 OFFCURVE",
"291 208 CURVE SMOOTH",
"291 191 OFFCURVE",
"285 177 OFFCURVE",
"274 166 CURVE SMOOTH",
"262 155 OFFCURVE",
"248 149 OFFCURVE",
"232 149 CURVE"
);
},
{
nodes = (
"200 416 OFFCURVE",
"172 442 OFFCURVE",
"172 476 CURVE SMOOTH",
"172 510 OFFCURVE",
"200 535 OFFCURVE",
"231 535 CURVE SMOOTH",
"264 535 OFFCURVE",
"291 510 OFFCURVE",
"291 476 CURVE SMOOTH",
"291 443 OFFCURVE",
"265 416 OFFCURVE",
"231 416 CURVE SMOOTH"
);
}
);
width = 467;
}
);
unicode = 00DF;
},
{
glyphname = section;
layers = (
{
layerId = "4FF56D86-EDA3-44A7-BEE3-77B51CD88509";
paths = (
{
nodes = (
"260 -109 OFFCURVE",
"287 -103 OFFCURVE",
"312 -92 CURVE SMOOTH",
"337 -81 OFFCURVE",
"360 -66 OFFCURVE",
"379 -47 CURVE SMOOTH",
"398 -28 OFFCURVE",
"413 -6 OFFCURVE",
"424 19 CURVE SMOOTH",
"435 44 OFFCURVE",
"440 71 OFFCURVE",
"440 100 CURVE SMOOTH",
"440 125 OFFCURVE",
"436 150 OFFCURVE",
"427 173 CURVE SMOOTH",
"418 196 OFFCURVE",
"406 216 OFFCURVE",
"391 234 CURVE",
"406 253 OFFCURVE",
"417 273 OFFCURVE",
"425 295 CURVE SMOOTH",
"433 317 OFFCURVE",
"437 339 OFFCURVE",
"438 362 CURVE",
"438 371 LINE SMOOTH",
"438 391 OFFCURVE",
"435 410 OFFCURVE",
"430 429 CURVE",
"423 451 OFFCURVE",
"413 471 OFFCURVE",
"400 490 CURVE SMOOTH",
"381 520 OFFCURVE",
"353 543 OFFCURVE",
"317 558 CURVE",
"291 570 OFFCURVE",
"262 576 OFFCURVE",
"231 576 CURVE SMOOTH",
"212 576 OFFCURVE",
"197 583 OFFCURVE",
"186 597 CURVE SMOOTH",
"176 609 OFFCURVE",
"172 622 OFFCURVE",
"172 637 CURVE SMOOTH",
"172 642 LINE",
"177 659 LINE",
"179 664 LINE SMOOTH",
"181 668 OFFCURVE",
"184 672 OFFCURVE",
"187 675 CURVE SMOOTH",
"189 677 OFFCURVE",
"188 677 OFFCURVE",
"190 677 CURVE",
"195 683 OFFCURVE",
"201 687 OFFCURVE",
"209 690 CURVE",
"212 692 OFFCURVE",
"215 693 OFFCURVE",
"220 693 CURVE",
"233 695 LINE",
"246 693 LINE",
"251 691 OFFCURVE",
"249 694 OFFCURVE",
"253 690 CURVE",
"266 686 OFFCURVE",
"276 680 OFFCURVE",
"281 672 CURVE SMOOTH",
"286 664 OFFCURVE",
"289 655 OFFCURVE",
"290 645 CURVE",
"291 644 OFFCURVE",
"291 641 OFFCURVE",
"291 636 CURVE SMOOTH",
"291 605 LINE",
"440 605 LINE",
"440 632 OFFCURVE",
"437 657 OFFCURVE",
"432 682 CURVE SMOOTH",
"427 706 OFFCURVE",
"418 728 OFFCURVE",
"406 749 CURVE SMOOTH",
"394 769 OFFCURVE",
"378 787 OFFCURVE",
"359 802 CURVE SMOOTH",
"339 817 OFFCURVE",
"315 828 OFFCURVE",
"287 836 CURVE SMOOTH",
"268 841 OFFCURVE",
"249 844 OFFCURVE",
"230 844 CURVE",
"212 843 LINE",
"187 840 OFFCURVE",
"163 834 OFFCURVE",
"141 823 CURVE SMOOTH",
"119 812 OFFCURVE",
"99 798 OFFCURVE",
"82 780 CURVE SMOOTH",
"64 762 OFFCURVE",
"50 741 OFFCURVE",
"40 717 CURVE",
"39 711 LINE",
"39 705 OFFCURVE",
"42 701 OFFCURVE",
"47 697 CURVE",
"51 696 OFFCURVE",
"55 695 OFFCURVE",
"60 695 CURVE SMOOTH",
"79 695 OFFCURVE",
"89 685 OFFCURVE",
"89 665 CURVE SMOOTH",
"89 605 LINE SMOOTH",
"89 586 OFFCURVE",
"79 576 OFFCURVE",
"60 576 CURVE SMOOTH",
"55 576 OFFCURVE",
"51 575 OFFCURVE",
"47 573 CURVE SMOOTH",
"41 570 OFFCURVE",
"38 567 OFFCURVE",
"38 562 CURVE",
"40 554 LINE",
"47 537 OFFCURVE",
"58 519 OFFCURVE",
"72 502 CURVE",
"59 487 OFFCURVE",
"48 469 OFFCURVE",
"40 449 CURVE",
"31 436 OFFCURVE",
"26 412 OFFCURVE",
"25 377 CURVE",
"25 368 LINE SMOOTH",
"25 337 OFFCURVE",
"30 310 OFFCURVE",
"40 286 CURVE SMOOTH",
"55 248 OFFCURVE",
"80 218 OFFCURVE",
"113 196 CURVE SMOOTH",
"144 174 OFFCURVE",
"184 160 OFFCURVE",
"226 160 CURVE",
"227 159 OFFCURVE",
"229 159 OFFCURVE",
"231 159 CURVE",
"248 159 OFFCURVE",
"262 153 OFFCURVE",
"274 142 CURVE",
"285 130 OFFCURVE",
"291 116 OFFCURVE",
"291 100 CURVE SMOOTH",
"291 83 OFFCURVE",
"285 69 OFFCURVE",
"274 58 CURVE SMOOTH",
"262 46 OFFCURVE",
"248 40 OFFCURVE",
"231 40 CURVE SMOOTH",
"215 40 OFFCURVE",
"201 46 OFFCURVE",
"190 58 CURVE",
"178 69 OFFCURVE",
"172 83 OFFCURVE",
"172 100 CURVE SMOOTH",
"172 129 LINE",
"23 129 LINE",
"23 100 LINE SMOOTH",
"23 71 OFFCURVE",
"29 44 OFFCURVE",
"40 19 CURVE SMOOTH",
"51 -6 OFFCURVE",
"65 -28 OFFCURVE",
"84 -47 CURVE SMOOTH",
"103 -66 OFFCURVE",
"125 -81 OFFCURVE",
"150 -92 CURVE SMOOTH",
"175 -103 OFFCURVE",
"202 -109 OFFCURVE",
"231 -109 CURVE SMOOTH"
);
},
{
nodes = (
"230 308 OFFCURVE",
"229 308 OFFCURVE",
"228 309 CURVE",
"213 310 OFFCURVE",
"200 316 OFFCURVE",
"189 327 CURVE SMOOTH",
"175 341 OFFCURVE",
"172 354 OFFCURVE",
"172 374 CURVE",
"177 391 LINE",
"179 396 LINE SMOOTH",
"181 400 OFFCURVE",
"184 404 OFFCURVE",
"187 407 CURVE SMOOTH",
"189 409 OFFCURVE",
"188 409 OFFCURVE",
"190 409 CURVE",
"195 415 OFFCURVE",
"201 419 OFFCURVE",
"209 422 CURVE",
"212 424 OFFCURVE",
"215 425 OFFCURVE",
"220 425 CURVE",
"233 427 LINE",
"246 425 LINE",
"251 423 OFFCURVE",
"249 426 OFFCURVE",
"253 422 CURVE",
"255 422 OFFCURVE",
"257 421 OFFCURVE",
"260 420 CURVE SMOOTH",
"274 412 OFFCURVE",
"284 400 OFFCURVE",
"289 384 CURVE",
"289 383 OFFCURVE",
"289 382 OFFCURVE",
"290 381 CURVE",
"290 376 LINE",
"291 375 OFFCURVE",
"291 372 OFFCURVE",
"291 368 CURVE SMOOTH",
"291 351 OFFCURVE",
"285 337 OFFCURVE",
"274 326 CURVE SMOOTH",
"262 314 OFFCURVE",
"248 308 OFFCURVE",
"231 308 CURVE"
);
}
);
width = 477;
}
);
unicode = 00A7;
},
{
glyphname = ordmasculine;
layers = (
{
layerId = "4FF56D86-EDA3-44A7-BEE3-77B51CD88509";
paths = (
{
nodes = (
"146 346 LINE",
"159 347 OFFCURVE",
"171 351 OFFCURVE",
"183 357 CURVE SMOOTH",
"194 362 OFFCURVE",
"205 370 OFFCURVE",
"214 379 CURVE SMOOTH",
"223 388 OFFCURVE",
"230 399 OFFCURVE",
"235 412 CURVE",
"241 433 OFFCURVE",
"244 458 OFFCURVE",
"245 485 CURVE",
"245 544 LINE",
"244 571 OFFCURVE",
"241 596 OFFCURVE",
"235 617 CURVE",
"230 630 OFFCURVE",
"223 641 OFFCURVE",
"214 650 CURVE SMOOTH",
"205 659 OFFCURVE",
"194 667 OFFCURVE",
"183 673 CURVE",
"171 678 OFFCURVE",
"159 682 OFFCURVE",
"146 683 CURVE",
"137 683 LINE SMOOTH",
"126 683 OFFCURVE",
"116 682 OFFCURVE",
"106 679 CURVE SMOOTH",
"92 675 OFFCURVE",
"80 669 OFFCURVE",
"70 662 CURVE SMOOTH",
"59 654 OFFCURVE",
"51 645 OFFCURVE",
"45 635 CURVE SMOOTH",
"38 624 OFFCURVE",
"34 613 OFFCURVE",
"31 600 CURVE SMOOTH",
"28 587 OFFCURVE",
"27 574 OFFCURVE",
"27 560 CURVE SMOOTH",
"27 485 OFFCURVE",
"28 442 OFFCURVE",
"31 429 CURVE SMOOTH",
"34 416 OFFCURVE",
"38 405 OFFCURVE",
"45 395 CURVE",
"51 384 OFFCURVE",
"59 375 OFFCURVE",
"70 368 CURVE",
"80 360 OFFCURVE",
"92 354 OFFCURVE",
"106 350 CURVE SMOOTH",
"116 347 OFFCURVE",
"126 346 OFFCURVE",
"137 346 CURVE SMOOTH"
);
},
{
nodes = (
"135 423 LINE SMOOTH",
"129 423 OFFCURVE",
"123 424 OFFCURVE",
"118 428 CURVE SMOOTH",
"110 434 OFFCURVE",
"106 440 OFFCURVE",
"105 447 CURVE SMOOTH",
"104 454 OFFCURVE",
"104 491 OFFCURVE",
"104 560 CURVE SMOOTH",
"104 568 OFFCURVE",
"104 575 OFFCURVE",
"105 582 CURVE SMOOTH",
"106 589 OFFCURVE",
"110 595 OFFCURVE",
"118 601 CURVE SMOOTH",
"123 605 OFFCURVE",
"129 606 OFFCURVE",
"135 606 CURVE SMOOTH",
"140 606 LINE",
"147 605 OFFCURVE",
"154 601 OFFCURVE",
"159 595 CURVE SMOOTH",
"162 592 OFFCURVE",
"164 587 OFFCURVE",
"165 578 CURVE SMOOTH",
"166 569 OFFCURVE",
"166 560 OFFCURVE",
"166 550 CURVE SMOOTH",
"166 479 LINE SMOOTH",
"166 469 OFFCURVE",
"166 460 OFFCURVE",
"165 451 CURVE SMOOTH",
"164 442 OFFCURVE",
"162 437 OFFCURVE",
"159 434 CURVE SMOOTH",
"154 428 OFFCURVE",
"147 424 OFFCURVE",
"140 423 CURVE"
);
}
);
width = 268;
}
);
unicode = 00BA;
},
{
glyphname = ogonekmod;
layers = (
{
layerId = "4FF56D86-EDA3-44A7-BEE3-77B51CD88509";
paths = (
{
nodes = (
"216 -234 OFFCURVE",
"257 -191 OFFCURVE",
"257 -140 CURVE SMOOTH",
"257 -126 LINE",
"194 -126 LINE",
"194 -151 OFFCURVE",
"190 -166 OFFCURVE",
"168 -166 CURVE SMOOTH",
"155 -166 OFFCURVE",
"141 -155 OFFCURVE",
"141 -140 CURVE SMOOTH",
"141 -113 LINE SMOOTH",
"141 -98 OFFCURVE",
"155 -86 OFFCURVE",
"168 -86 CURVE SMOOTH",
"257 -86 LINE",
"257 33 LINE",
"194 33 LINE",
"194 -18 LINE",
"168 -18 LINE SMOOTH",
"121 -18 OFFCURVE",
"78 -59 OFFCURVE",
"78 -113 CURVE SMOOTH",
"78 -140 LINE SMOOTH",
"78 -191 OFFCURVE",
"119 -234 OFFCURVE",
"168 -234 CURVE SMOOTH"
);
}
);
width = 257;
}
);
unicode = 02DB;
},
{
glyphname = aogonek;
layers = (
{
layerId = "4FF56D86-EDA3-44A7-BEE3-77B51CD88509";
paths = (
{
nodes = (
"447 0 LINE",
"447 471 LINE",
"446 488 OFFCURVE",
"444 505 OFFCURVE",
"441 521 CURVE SMOOTH",
"438 537 OFFCURVE",
"432 553 OFFCURVE",
"425 569 CURVE SMOOTH",
"418 584 OFFCURVE",
"407 600 OFFCURVE",
"394 615 CURVE SMOOTH",
"369 644 OFFCURVE",
"339 663 OFFCURVE",
"305 674 CURVE SMOOTH",
"283 681 OFFCURVE",
"260 685 OFFCURVE",
"238 685 CURVE SMOOTH",
"227 685 OFFCURVE",
"215 684 OFFCURVE",
"204 682 CURVE SMOOTH",
"171 676 OFFCURVE",
"140 662 OFFCURVE",
"112 641 CURVE SMOOTH",
"83 620 OFFCURVE",
"62 591 OFFCURVE",
"47 556 CURVE SMOOTH",
"45 552 OFFCURVE",
"45 549 OFFCURVE",
"45 547 CURVE",
"45 540 OFFCURVE",
"50 536 OFFCURVE",
"61 536 CURVE SMOOTH",
"81 536 OFFCURVE",
"91 526 OFFCURVE",
"91 506 CURVE SMOOTH",
"91 446 LINE SMOOTH",
"91 426 OFFCURVE",
"81 416 OFFCURVE",
"61 416 CURVE SMOOTH",
"41 416 OFFCURVE",
"31 406 OFFCURVE",
"31 387 CURVE SMOOTH",
"31 0 LINE",
"180 0 LINE",
"180 149 LINE",
"298 149 LINE",
"298 0 LINE"
);
},
{
nodes = (
"298 297 LINE",
"180 297 LINE",
"180 433 LINE SMOOTH",
"180 444 OFFCURVE",
"180 456 OFFCURVE",
"179 467 CURVE",
"179 473 LINE SMOOTH",
"179 482 OFFCURVE",
"181 492 OFFCURVE",
"185 501 CURVE SMOOTH",
"191 514 OFFCURVE",
"198 523 OFFCURVE",
"206 528 CURVE SMOOTH",
"214 533 OFFCURVE",
"225 536 OFFCURVE",
"239 536 CURVE SMOOTH",
"253 536 OFFCURVE",
"264 533 OFFCURVE",
"272 528 CURVE SMOOTH",
"280 523 OFFCURVE",
"287 514 OFFCURVE",
"293 501 CURVE SMOOTH",
"297 491 OFFCURVE",
"300 481 OFFCURVE",
"300 471 CURVE SMOOTH",
"300 467 LINE",
"299 456 OFFCURVE",
"298 444 OFFCURVE",
"298 433 CURVE SMOOTH"
);
},
{
nodes = (
"405 -234 OFFCURVE",
"446 -191 OFFCURVE",
"446 -140 CURVE SMOOTH",
"446 -126 LINE",
"383 -126 LINE",
"383 -151 OFFCURVE",
"379 -166 OFFCURVE",
"357 -166 CURVE SMOOTH",
"344 -166 OFFCURVE",
"330 -155 OFFCURVE",
"330 -140 CURVE SMOOTH",
"330 -113 LINE SMOOTH",
"330 -98 OFFCURVE",
"344 -86 OFFCURVE",
"357 -86 CURVE SMOOTH",
"446 -86 LINE",
"446 33 LINE",
"383 33 LINE",
"383 -18 LINE",
"357 -18 LINE SMOOTH",
"310 -18 OFFCURVE",
"267 -59 OFFCURVE",
"267 -113 CURVE SMOOTH",
"267 -140 LINE SMOOTH",
"267 -191 OFFCURVE",
"308 -234 OFFCURVE",
"357 -234 CURVE SMOOTH"
);
}
);
width = 481;
}
);
unicode = 0105;
},
{
glyphname = Aogonek;
layers = (
{
layerId = "4FF56D86-EDA3-44A7-BEE3-77B51CD88509";
paths = (
{
nodes = (
"447 0 LINE",
"447 471 LINE",
"446 488 OFFCURVE",
"444 505 OFFCURVE",
"441 521 CURVE SMOOTH",
"438 537 OFFCURVE",
"432 553 OFFCURVE",
"425 569 CURVE SMOOTH",
"418 584 OFFCURVE",
"407 600 OFFCURVE",
"394 615 CURVE SMOOTH",
"369 644 OFFCURVE",
"339 663 OFFCURVE",
"305 674 CURVE SMOOTH",
"283 681 OFFCURVE",
"260 685 OFFCURVE",
"238 685 CURVE SMOOTH",
"227 685 OFFCURVE",
"215 684 OFFCURVE",
"204 682 CURVE SMOOTH",
"171 676 OFFCURVE",
"140 662 OFFCURVE",
"112 641 CURVE SMOOTH",
"83 620 OFFCURVE",
"62 591 OFFCURVE",
"47 556 CURVE SMOOTH",
"45 552 OFFCURVE",
"45 549 OFFCURVE",
"45 547 CURVE",
"45 540 OFFCURVE",
"50 536 OFFCURVE",
"61 536 CURVE SMOOTH",
"81 536 OFFCURVE",
"91 526 OFFCURVE",
"91 506 CURVE SMOOTH",
"91 446 LINE SMOOTH",
"91 426 OFFCURVE",
"81 416 OFFCURVE",
"61 416 CURVE SMOOTH",
"41 416 OFFCURVE",
"31 406 OFFCURVE",
"31 387 CURVE SMOOTH",
"31 0 LINE",
"180 0 LINE",
"180 149 LINE",
"298 149 LINE",
"298 0 LINE"
);
},
{
nodes = (
"298 297 LINE",
"180 297 LINE",
"180 433 LINE SMOOTH",
"180 444 OFFCURVE",
"180 456 OFFCURVE",
"179 467 CURVE",
"179 473 LINE SMOOTH",
"179 482 OFFCURVE",
"181 492 OFFCURVE",
"185 501 CURVE SMOOTH",
"191 514 OFFCURVE",
"198 523 OFFCURVE",
"206 528 CURVE SMOOTH",
"214 533 OFFCURVE",
"225 536 OFFCURVE",
"239 536 CURVE SMOOTH",
"253 536 OFFCURVE",
"264 533 OFFCURVE",
"272 528 CURVE SMOOTH",
"280 523 OFFCURVE",
"287 514 OFFCURVE",
"293 501 CURVE SMOOTH",
"297 491 OFFCURVE",
"300 481 OFFCURVE",
"300 471 CURVE SMOOTH",
"300 467 LINE",
"299 456 OFFCURVE",
"298 444 OFFCURVE",
"298 433 CURVE SMOOTH"
);
},
{
nodes = (
"405 -234 OFFCURVE",
"446 -191 OFFCURVE",
"446 -140 CURVE SMOOTH",
"446 -126 LINE",
"383 -126 LINE",
"383 -151 OFFCURVE",
"379 -166 OFFCURVE",
"357 -166 CURVE SMOOTH",
"344 -166 OFFCURVE",
"330 -155 OFFCURVE",
"330 -140 CURVE SMOOTH",
"330 -113 LINE SMOOTH",
"330 -98 OFFCURVE",
"344 -86 OFFCURVE",
"357 -86 CURVE SMOOTH",
"446 -86 LINE",
"446 33 LINE",
"383 33 LINE",
"383 -18 LINE",
"357 -18 LINE SMOOTH",
"310 -18 OFFCURVE",
"267 -59 OFFCURVE",
"267 -113 CURVE SMOOTH",
"267 -140 LINE SMOOTH",
"267 -191 OFFCURVE",
"308 -234 OFFCURVE",
"357 -234 CURVE SMOOTH"
);
}
);
width = 481;
}
);
unicode = 0104;
},
{
glyphname = paragraph;
layers = (
{
layerId = "4FF56D86-EDA3-44A7-BEE3-77B51CD88509";
paths = (
{
nodes = (
"711 -165 LINE",
"711 536 LINE",
"781 536 LINE",
"781 684 LINE",
"240 684 LINE SMOOTH",
"126 684 OFFCURVE",
"32 591 OFFCURVE",
"32 476 CURVE SMOOTH",
"32 362 OFFCURVE",
"125 268 OFFCURVE",
"240 268 CURVE SMOOTH",
"299 268 LINE",
"299 -165 LINE",
"448 -165 LINE",
"448 536 LINE",
"563 536 LINE",
"563 474 LINE SMOOTH",
"563 454 OFFCURVE",
"573 444 OFFCURVE",
"592 444 CURVE SMOOTH",
"612 444 OFFCURVE",
"622 434 OFFCURVE",
"622 414 CURVE SMOOTH",
"622 355 LINE SMOOTH",
"622 335 OFFCURVE",
"612 325 OFFCURVE",
"592 325 CURVE SMOOTH",
"573 325 OFFCURVE",
"563 315 OFFCURVE",
"563 296 CURVE SMOOTH",
"563 -165 LINE"
);
}
);
width = 833;
}
);
unicode = 00B6;
},
{
glyphname = dieresis;
layers = (
{
layerId = "4FF56D86-EDA3-44A7-BEE3-77B51CD88509";
paths = (
{
nodes = (
"220 737 OFFCURVE",
"250 766 OFFCURVE",
"250 801 CURVE SMOOTH",
"250 836 OFFCURVE",
"220 865 OFFCURVE",
"186 865 CURVE SMOOTH",
"152 865 OFFCURVE",
"122 836 OFFCURVE",
"122 801 CURVE SMOOTH",
"122 766 OFFCURVE",
"152 737 OFFCURVE",
"186 737 CURVE SMOOTH"
);
},
{
nodes = (
"427 736 OFFCURVE",
"457 765 OFFCURVE",
"457 800 CURVE SMOOTH",
"457 835 OFFCURVE",
"427 864 OFFCURVE",
"393 864 CURVE SMOOTH",
"359 864 OFFCURVE",
"329 835 OFFCURVE",
"329 800 CURVE SMOOTH",
"329 765 OFFCURVE",
"359 736 OFFCURVE",
"393 736 CURVE SMOOTH"
);
}
);
width = 579;
}
);
unicode = 00A8;
},
{
glyphname = circumflexmod;
layers = (
{
layerId = "4FF56D86-EDA3-44A7-BEE3-77B51CD88509";
paths = (
{
nodes = (
"209 716 LINE",
"268 851 LINE",
"154 851 LINE",
"95 716 LINE"
);
},
{
nodes = (
"472 716 LINE",
"414 851 LINE",
"299 851 LINE",
"358 716 LINE"
);
}
);
width = 683;
}
);
unicode = 02C6;
},
{
glyphname = acute;
layers = (
{
layerId = "4FF56D86-EDA3-44A7-BEE3-77B51CD88509";
paths = (
{
nodes = (
"248 726 LINE",
"317 856 LINE",
"206 856 LINE",
"147 726 LINE"
);
}
);
width = 453;
}
);
unicode = 00B4;
},
{
glyphname = aacute;
layers = (
{
layerId = "4FF56D86-EDA3-44A7-BEE3-77B51CD88509";
paths = (
{
nodes = (
"447 0 LINE",
"447 471 LINE",
"446 488 OFFCURVE",
"444 505 OFFCURVE",
"441 521 CURVE SMOOTH",
"438 537 OFFCURVE",
"432 553 OFFCURVE",
"425 569 CURVE SMOOTH",
"418 584 OFFCURVE",
"407 600 OFFCURVE",
"394 615 CURVE SMOOTH",
"369 644 OFFCURVE",
"339 663 OFFCURVE",
"305 674 CURVE SMOOTH",
"283 681 OFFCURVE",
"260 685 OFFCURVE",
"238 685 CURVE SMOOTH",
"227 685 OFFCURVE",
"215 684 OFFCURVE",
"204 682 CURVE SMOOTH",
"171 676 OFFCURVE",
"140 662 OFFCURVE",
"112 641 CURVE SMOOTH",
"83 620 OFFCURVE",
"62 591 OFFCURVE",
"47 556 CURVE SMOOTH",
"45 552 OFFCURVE",
"45 549 OFFCURVE",
"45 547 CURVE",
"45 540 OFFCURVE",
"50 536 OFFCURVE",
"61 536 CURVE SMOOTH",
"81 536 OFFCURVE",
"91 526 OFFCURVE",
"91 506 CURVE SMOOTH",
"91 446 LINE SMOOTH",
"91 426 OFFCURVE",
"81 416 OFFCURVE",
"61 416 CURVE SMOOTH",
"41 416 OFFCURVE",
"31 406 OFFCURVE",
"31 387 CURVE SMOOTH",
"31 0 LINE",
"180 0 LINE",
"180 149 LINE",
"298 149 LINE",
"298 0 LINE"
);
},
{
nodes = (
"298 297 LINE",
"180 297 LINE",
"180 433 LINE SMOOTH",
"180 444 OFFCURVE",
"180 456 OFFCURVE",
"179 467 CURVE",
"179 473 LINE SMOOTH",
"179 482 OFFCURVE",
"181 492 OFFCURVE",
"185 501 CURVE SMOOTH",
"191 514 OFFCURVE",
"198 523 OFFCURVE",
"206 528 CURVE SMOOTH",
"214 533 OFFCURVE",
"225 536 OFFCURVE",
"239 536 CURVE SMOOTH",
"253 536 OFFCURVE",
"264 533 OFFCURVE",
"272 528 CURVE SMOOTH",
"280 523 OFFCURVE",
"287 514 OFFCURVE",
"293 501 CURVE SMOOTH",
"297 491 OFFCURVE",
"300 481 OFFCURVE",
"300 471 CURVE SMOOTH",
"300 467 LINE",
"299 456 OFFCURVE",
"298 444 OFFCURVE",
"298 433 CURVE SMOOTH"
);
},
{
nodes = (
"282 726 LINE",
"351 856 LINE",
"240 856 LINE",
"181 726 LINE"
);
}
);
width = 481;
}
);
unicode = 00E1;
},
{
glyphname = iacute;
layers = (
{
layerId = "4FF56D86-EDA3-44A7-BEE3-77B51CD88509";
paths = (
{
nodes = (
"185 0 LINE",
"185 684 LINE",
"37 684 LINE",
"37 565 LINE SMOOTH",
"37 545 OFFCURVE",
"47 535 OFFCURVE",
"66 535 CURVE SMOOTH",
"86 535 OFFCURVE",
"96 525 OFFCURVE",
"96 505 CURVE SMOOTH",
"96 446 LINE SMOOTH",
"96 426 OFFCURVE",
"86 416 OFFCURVE",
"66 416 CURVE SMOOTH",
"47 416 OFFCURVE",
"37 406 OFFCURVE",
"37 387 CURVE SMOOTH",
"37 0 LINE"
);
},
{
nodes = (
"123 726 LINE",
"192 856 LINE",
"81 856 LINE",
"22 726 LINE"
);
}
);
width = 224;
}
);
unicode = 00ED;
},
{
glyphname = Iacute;
layers = (
{
layerId = "4FF56D86-EDA3-44A7-BEE3-77B51CD88509";
paths = (
{
nodes = (
"185 0 LINE",
"185 684 LINE",
"37 684 LINE",
"37 565 LINE SMOOTH",
"37 545 OFFCURVE",
"47 535 OFFCURVE",
"66 535 CURVE SMOOTH",
"86 535 OFFCURVE",
"96 525 OFFCURVE",
"96 505 CURVE SMOOTH",
"96 446 LINE SMOOTH",
"96 426 OFFCURVE",
"86 416 OFFCURVE",
"66 416 CURVE SMOOTH",
"47 416 OFFCURVE",
"37 406 OFFCURVE",
"37 387 CURVE SMOOTH",
"37 0 LINE"
);
},
{
nodes = (
"123 726 LINE",
"192 856 LINE",
"81 856 LINE",
"22 726 LINE"
);
}
);
width = 224;
}
);
unicode = 00CD;
},
{
glyphname = uacute;
layers = (
{
layerId = "4FF56D86-EDA3-44A7-BEE3-77B51CD88509";
paths = (
{
nodes = (
"238 0 LINE",
"259 0 OFFCURVE",
"280 4 OFFCURVE",
"302 11 CURVE SMOOTH",
"328 19 OFFCURVE",
"352 33 OFFCURVE",
"373 52 CURVE SMOOTH",
"397 73 OFFCURVE",
"414 96 OFFCURVE",
"425 121 CURVE SMOOTH",
"435 146 OFFCURVE",
"442 172 OFFCURVE",
"445 199 CURVE SMOOTH",
"447 216 OFFCURVE",
"448 233 OFFCURVE",
"448 250 CURVE",
"447 280 LINE SMOOTH",
"446 307 OFFCURVE",
"445 333 OFFCURVE",
"445 358 CURVE SMOOTH",
"445 685 LINE",
"296 685 LINE",
"296 258 LINE SMOOTH",
"296 246 OFFCURVE",
"297 234 OFFCURVE",
"298 223 CURVE",
"298 215 LINE SMOOTH",
"298 207 OFFCURVE",
"297 197 OFFCURVE",
"293 188 CURVE SMOOTH",
"288 174 OFFCURVE",
"281 164 OFFCURVE",
"273 158 CURVE SMOOTH",
"264 152 OFFCURVE",
"252 149 OFFCURVE",
"237 149 CURVE SMOOTH",
"222 149 OFFCURVE",
"210 152 OFFCURVE",
"202 158 CURVE SMOOTH",
"193 164 OFFCURVE",
"186 174 OFFCURVE",
"181 188 CURVE SMOOTH",
"177 197 OFFCURVE",
"176 207 OFFCURVE",
"176 215 CURVE SMOOTH",
"176 223 LINE",
"177 234 OFFCURVE",
"178 246 OFFCURVE",
"178 258 CURVE SMOOTH",
"178 685 LINE",
"29 685 LINE",
"29 566 LINE SMOOTH",
"29 546 OFFCURVE",
"39 536 OFFCURVE",
"59 536 CURVE SMOOTH",
"78 536 OFFCURVE",
"88 526 OFFCURVE",
"88 506 CURVE SMOOTH",
"88 447 LINE SMOOTH",
"88 427 OFFCURVE",
"78 417 OFFCURVE",
"59 417 CURVE SMOOTH",
"39 417 OFFCURVE",
"29 407 OFFCURVE",
"29 387 CURVE SMOOTH",
"29 366 OFFCURVE",
"29 341 OFFCURVE",
"28 314 CURVE SMOOTH",
"27 279 LINE",
"29 229 LINE",
"31 200 OFFCURVE",
"36 171 OFFCURVE",
"43 144 CURVE SMOOTH",
"50 117 OFFCURVE",
"63 93 OFFCURVE",
"80 73 CURVE SMOOTH",
"99 51 OFFCURVE",
"121 34 OFFCURVE",
"146 22 CURVE SMOOTH",
"171 10 OFFCURVE",
"196 3 OFFCURVE",
"223 1 CURVE SMOOTH"
);
},
{
nodes = (
"248 726 LINE",
"317 856 LINE",
"206 856 LINE",
"147 726 LINE"
);
}
);
width = 475;
}
);
unicode = 00FA;
},
{
glyphname = Uacute;
layers = (
{
layerId = "4FF56D86-EDA3-44A7-BEE3-77B51CD88509";
paths = (
{
nodes = (
"238 0 LINE",
"259 0 OFFCURVE",
"280 4 OFFCURVE",
"302 11 CURVE SMOOTH",
"328 19 OFFCURVE",
"352 33 OFFCURVE",
"373 52 CURVE SMOOTH",
"397 73 OFFCURVE",
"414 96 OFFCURVE",
"425 121 CURVE SMOOTH",
"435 146 OFFCURVE",
"442 172 OFFCURVE",
"445 199 CURVE SMOOTH",
"447 216 OFFCURVE",
"448 233 OFFCURVE",
"448 250 CURVE",
"447 280 LINE SMOOTH",
"446 307 OFFCURVE",
"445 333 OFFCURVE",
"445 358 CURVE SMOOTH",
"445 685 LINE",
"296 685 LINE",
"296 258 LINE SMOOTH",
"296 246 OFFCURVE",
"297 234 OFFCURVE",
"298 223 CURVE",
"298 215 LINE SMOOTH",
"298 207 OFFCURVE",
"297 197 OFFCURVE",
"293 188 CURVE SMOOTH",
"288 174 OFFCURVE",
"281 164 OFFCURVE",
"273 158 CURVE SMOOTH",
"264 152 OFFCURVE",
"252 149 OFFCURVE",
"237 149 CURVE SMOOTH",
"222 149 OFFCURVE",
"210 152 OFFCURVE",
"202 158 CURVE SMOOTH",
"193 164 OFFCURVE",
"186 174 OFFCURVE",
"181 188 CURVE SMOOTH",
"177 197 OFFCURVE",
"176 207 OFFCURVE",
"176 215 CURVE SMOOTH",
"176 223 LINE",
"177 234 OFFCURVE",
"178 246 OFFCURVE",
"178 258 CURVE SMOOTH",
"178 685 LINE",
"29 685 LINE",
"29 566 LINE SMOOTH",
"29 546 OFFCURVE",
"39 536 OFFCURVE",
"59 536 CURVE SMOOTH",
"78 536 OFFCURVE",
"88 526 OFFCURVE",
"88 506 CURVE SMOOTH",
"88 447 LINE SMOOTH",
"88 427 OFFCURVE",
"78 417 OFFCURVE",
"59 417 CURVE SMOOTH",
"39 417 OFFCURVE",
"29 407 OFFCURVE",
"29 387 CURVE SMOOTH",
"29 366 OFFCURVE",
"29 341 OFFCURVE",
"28 314 CURVE SMOOTH",
"27 279 LINE",
"29 229 LINE",
"31 200 OFFCURVE",
"36 171 OFFCURVE",
"43 144 CURVE SMOOTH",
"50 117 OFFCURVE",
"63 93 OFFCURVE",
"80 73 CURVE SMOOTH",
"99 51 OFFCURVE",
"121 34 OFFCURVE",
"146 22 CURVE SMOOTH",
"171 10 OFFCURVE",
"196 3 OFFCURVE",
"223 1 CURVE SMOOTH"
);
},
{
nodes = (
"248 726 LINE",
"317 856 LINE",
"206 856 LINE",
"147 726 LINE"
);
}
);
width = 475;
}
);
unicode = 00DA;
},
{
glyphname = eacute;
layers = (
{
layerId = "4FF56D86-EDA3-44A7-BEE3-77B51CD88509";
paths = (
{
nodes = (
"423 0 LINE",
"423 149 LINE",
"238 149 LINE SMOOTH",
"222 149 OFFCURVE",
"210 152 OFFCURVE",
"201 159 CURVE SMOOTH",
"192 166 OFFCURVE",
"186 177 OFFCURVE",
"181 192 CURVE SMOOTH",
"178 202 OFFCURVE",
"177 212 OFFCURVE",
"177 222 CURVE SMOOTH",
"177 231 LINE",
"178 243 OFFCURVE",
"179 255 OFFCURVE",
"179 268 CURVE",
"387 268 LINE",
"387 417 LINE",
"179 417 LINE",
"179 430 OFFCURVE",
"178 442 OFFCURVE",
"177 455 CURVE",
"177 464 LINE SMOOTH",
"177 473 OFFCURVE",
"178 483 OFFCURVE",
"181 493 CURVE SMOOTH",
"186 508 OFFCURVE",
"192 519 OFFCURVE",
"201 526 CURVE SMOOTH",
"210 533 OFFCURVE",
"222 536 OFFCURVE",
"238 536 CURVE SMOOTH",
"423 536 LINE",
"423 684 LINE",
"238 684 LINE SMOOTH",
"196 684 OFFCURVE",
"158 673 OFFCURVE",
"123 650 CURVE SMOOTH",
"88 627 OFFCURVE",
"62 595 OFFCURVE",
"46 556 CURVE",
"44 547 LINE",
"44 540 OFFCURVE",
"49 536 OFFCURVE",
"60 536 CURVE SMOOTH",
"79 536 OFFCURVE",
"89 526 OFFCURVE",
"89 506 CURVE SMOOTH",
"89 446 LINE SMOOTH",
"89 427 OFFCURVE",
"79 417 OFFCURVE",
"60 417 CURVE SMOOTH",
"40 417 OFFCURVE",
"30 407 OFFCURVE",
"30 387 CURVE SMOOTH",
"30 252 LINE",
"31 228 OFFCURVE",
"32 206 OFFCURVE",
"34 185 CURVE SMOOTH",
"36 164 OFFCURVE",
"39 147 OFFCURVE",
"43 136 CURVE SMOOTH",
"58 95 OFFCURVE",
"84 62 OFFCURVE",
"119 37 CURVE SMOOTH",
"154 12 OFFCURVE",
"194 0 OFFCURVE",
"238 0 CURVE SMOOTH"
);
},
{
nodes = (
"239 726 LINE",
"308 856 LINE",
"197 856 LINE",
"138 726 LINE"
);
}
);
width = 457;
}
);
unicode = 00E9;
},
{
glyphname = Eacute;
layers = (
{
layerId = "4FF56D86-EDA3-44A7-BEE3-77B51CD88509";
paths = (
{
nodes = (
"423 0 LINE",
"423 149 LINE",
"238 149 LINE SMOOTH",
"222 149 OFFCURVE",
"210 152 OFFCURVE",
"201 159 CURVE SMOOTH",
"192 166 OFFCURVE",
"186 177 OFFCURVE",
"181 192 CURVE SMOOTH",
"178 202 OFFCURVE",
"177 212 OFFCURVE",
"177 222 CURVE SMOOTH",
"177 231 LINE",
"178 243 OFFCURVE",
"179 255 OFFCURVE",
"179 268 CURVE",
"387 268 LINE",
"387 417 LINE",
"179 417 LINE",
"179 430 OFFCURVE",
"178 442 OFFCURVE",
"177 455 CURVE",
"177 464 LINE SMOOTH",
"177 473 OFFCURVE",
"178 483 OFFCURVE",
"181 493 CURVE SMOOTH",
"186 508 OFFCURVE",
"192 519 OFFCURVE",
"201 526 CURVE SMOOTH",
"210 533 OFFCURVE",
"222 536 OFFCURVE",
"238 536 CURVE SMOOTH",
"423 536 LINE",
"423 684 LINE",
"238 684 LINE SMOOTH",
"196 684 OFFCURVE",
"158 673 OFFCURVE",
"123 650 CURVE SMOOTH",
"88 627 OFFCURVE",
"62 595 OFFCURVE",
"46 556 CURVE",
"44 547 LINE",
"44 540 OFFCURVE",
"49 536 OFFCURVE",
"60 536 CURVE SMOOTH",
"79 536 OFFCURVE",
"89 526 OFFCURVE",
"89 506 CURVE SMOOTH",
"89 446 LINE SMOOTH",
"89 427 OFFCURVE",
"79 417 OFFCURVE",
"60 417 CURVE SMOOTH",
"40 417 OFFCURVE",
"30 407 OFFCURVE",
"30 387 CURVE SMOOTH",
"30 252 LINE",
"31 228 OFFCURVE",
"32 206 OFFCURVE",
"34 185 CURVE SMOOTH",
"36 164 OFFCURVE",
"39 147 OFFCURVE",
"43 136 CURVE SMOOTH",
"58 95 OFFCURVE",
"84 62 OFFCURVE",
"119 37 CURVE SMOOTH",
"154 12 OFFCURVE",
"194 0 OFFCURVE",
"238 0 CURVE SMOOTH"
);
},
{
nodes = (
"239 726 LINE",
"308 856 LINE",
"197 856 LINE",
"138 726 LINE"
);
}
);
width = 457;
}
);
unicode = 00C9;
},
{
glyphname = acircumflex;
layers = (
{
layerId = "4FF56D86-EDA3-44A7-BEE3-77B51CD88509";
paths = (
{
nodes = (
"447 0 LINE",
"447 471 LINE",
"446 488 OFFCURVE",
"444 505 OFFCURVE",
"441 521 CURVE SMOOTH",
"438 537 OFFCURVE",
"432 553 OFFCURVE",
"425 569 CURVE SMOOTH",
"418 584 OFFCURVE",
"407 600 OFFCURVE",
"394 615 CURVE SMOOTH",
"369 644 OFFCURVE",
"339 663 OFFCURVE",
"305 674 CURVE SMOOTH",
"283 681 OFFCURVE",
"260 685 OFFCURVE",
"238 685 CURVE SMOOTH",
"227 685 OFFCURVE",
"215 684 OFFCURVE",
"204 682 CURVE SMOOTH",
"171 676 OFFCURVE",
"140 662 OFFCURVE",
"112 641 CURVE SMOOTH",
"83 620 OFFCURVE",
"62 591 OFFCURVE",
"47 556 CURVE SMOOTH",
"45 552 OFFCURVE",
"45 549 OFFCURVE",
"45 547 CURVE",
"45 540 OFFCURVE",
"50 536 OFFCURVE",
"61 536 CURVE SMOOTH",
"81 536 OFFCURVE",
"91 526 OFFCURVE",
"91 506 CURVE SMOOTH",
"91 446 LINE SMOOTH",
"91 426 OFFCURVE",
"81 416 OFFCURVE",
"61 416 CURVE SMOOTH",
"41 416 OFFCURVE",
"31 406 OFFCURVE",
"31 387 CURVE SMOOTH",
"31 0 LINE",
"180 0 LINE",
"180 149 LINE",
"298 149 LINE",
"298 0 LINE"
);
},
{
nodes = (
"298 297 LINE",
"180 297 LINE",
"180 433 LINE SMOOTH",
"180 444 OFFCURVE",
"180 456 OFFCURVE",
"179 467 CURVE",
"179 473 LINE SMOOTH",
"179 482 OFFCURVE",
"181 492 OFFCURVE",
"185 501 CURVE SMOOTH",
"191 514 OFFCURVE",
"198 523 OFFCURVE",
"206 528 CURVE SMOOTH",
"214 533 OFFCURVE",
"225 536 OFFCURVE",
"239 536 CURVE SMOOTH",
"253 536 OFFCURVE",
"264 533 OFFCURVE",
"272 528 CURVE SMOOTH",
"280 523 OFFCURVE",
"287 514 OFFCURVE",
"293 501 CURVE SMOOTH",
"297 491 OFFCURVE",
"300 481 OFFCURVE",
"300 471 CURVE SMOOTH",
"300 467 LINE",
"299 456 OFFCURVE",
"298 444 OFFCURVE",
"298 433 CURVE SMOOTH"
);
},
{
nodes = (
"166 716 LINE",
"225 851 LINE",
"111 851 LINE",
"52 716 LINE"
);
},
{
nodes = (
"429 716 LINE",
"371 851 LINE",
"256 851 LINE",
"315 716 LINE"
);
}
);
width = 481;
}
);
unicode = 00E2;
},
{
glyphname = Acircumflex;
layers = (
{
layerId = "4FF56D86-EDA3-44A7-BEE3-77B51CD88509";
paths = (
{
nodes = (
"447 0 LINE",
"447 471 LINE",
"446 488 OFFCURVE",
"444 505 OFFCURVE",
"441 521 CURVE SMOOTH",
"438 537 OFFCURVE",
"432 553 OFFCURVE",
"425 569 CURVE SMOOTH",
"418 584 OFFCURVE",
"407 600 OFFCURVE",
"394 615 CURVE SMOOTH",
"369 644 OFFCURVE",
"339 663 OFFCURVE",
"305 674 CURVE SMOOTH",
"283 681 OFFCURVE",
"260 685 OFFCURVE",
"238 685 CURVE SMOOTH",
"227 685 OFFCURVE",
"215 684 OFFCURVE",
"204 682 CURVE SMOOTH",
"171 676 OFFCURVE",
"140 662 OFFCURVE",
"112 641 CURVE SMOOTH",
"83 620 OFFCURVE",
"62 591 OFFCURVE",
"47 556 CURVE SMOOTH",
"45 552 OFFCURVE",
"45 549 OFFCURVE",
"45 547 CURVE",
"45 540 OFFCURVE",
"50 536 OFFCURVE",
"61 536 CURVE SMOOTH",
"81 536 OFFCURVE",
"91 526 OFFCURVE",
"91 506 CURVE SMOOTH",
"91 446 LINE SMOOTH",
"91 426 OFFCURVE",
"81 416 OFFCURVE",
"61 416 CURVE SMOOTH",
"41 416 OFFCURVE",
"31 406 OFFCURVE",
"31 387 CURVE SMOOTH",
"31 0 LINE",
"180 0 LINE",
"180 149 LINE",
"298 149 LINE",
"298 0 LINE"
);
},
{
nodes = (
"298 297 LINE",
"180 297 LINE",
"180 433 LINE SMOOTH",
"180 444 OFFCURVE",
"180 456 OFFCURVE",
"179 467 CURVE",
"179 473 LINE SMOOTH",
"179 482 OFFCURVE",
"181 492 OFFCURVE",
"185 501 CURVE SMOOTH",
"191 514 OFFCURVE",
"198 523 OFFCURVE",
"206 528 CURVE SMOOTH",
"214 533 OFFCURVE",
"225 536 OFFCURVE",
"239 536 CURVE SMOOTH",
"253 536 OFFCURVE",
"264 533 OFFCURVE",
"272 528 CURVE SMOOTH",
"280 523 OFFCURVE",
"287 514 OFFCURVE",
"293 501 CURVE SMOOTH",
"297 491 OFFCURVE",
"300 481 OFFCURVE",
"300 471 CURVE SMOOTH",
"300 467 LINE",
"299 456 OFFCURVE",
"298 444 OFFCURVE",
"298 433 CURVE SMOOTH"
);
},
{
nodes = (
"166 716 LINE",
"225 851 LINE",
"111 851 LINE",
"52 716 LINE"
);
},
{
nodes = (
"429 716 LINE",
"371 851 LINE",
"256 851 LINE",
"315 716 LINE"
);
}
);
width = 481;
}
);
unicode = 00C2;
},
{
glyphname = ecircumflex;
layers = (
{
layerId = "4FF56D86-EDA3-44A7-BEE3-77B51CD88509";
paths = (
{
nodes = (
"423 0 LINE",
"423 149 LINE",
"238 149 LINE SMOOTH",
"222 149 OFFCURVE",
"210 152 OFFCURVE",
"201 159 CURVE SMOOTH",
"192 166 OFFCURVE",
"186 177 OFFCURVE",
"181 192 CURVE SMOOTH",
"178 202 OFFCURVE",
"177 212 OFFCURVE",
"177 222 CURVE SMOOTH",
"177 231 LINE",
"178 243 OFFCURVE",
"179 255 OFFCURVE",
"179 268 CURVE",
"387 268 LINE",
"387 417 LINE",
"179 417 LINE",
"179 430 OFFCURVE",
"178 442 OFFCURVE",
"177 455 CURVE",
"177 464 LINE SMOOTH",
"177 473 OFFCURVE",
"178 483 OFFCURVE",
"181 493 CURVE SMOOTH",
"186 508 OFFCURVE",
"192 519 OFFCURVE",
"201 526 CURVE SMOOTH",
"210 533 OFFCURVE",
"222 536 OFFCURVE",
"238 536 CURVE SMOOTH",
"423 536 LINE",
"423 684 LINE",
"238 684 LINE SMOOTH",
"196 684 OFFCURVE",
"158 673 OFFCURVE",
"123 650 CURVE SMOOTH",
"88 627 OFFCURVE",
"62 595 OFFCURVE",
"46 556 CURVE",
"44 547 LINE",
"44 540 OFFCURVE",
"49 536 OFFCURVE",
"60 536 CURVE SMOOTH",
"79 536 OFFCURVE",
"89 526 OFFCURVE",
"89 506 CURVE SMOOTH",
"89 446 LINE SMOOTH",
"89 427 OFFCURVE",
"79 417 OFFCURVE",
"60 417 CURVE SMOOTH",
"40 417 OFFCURVE",
"30 407 OFFCURVE",
"30 387 CURVE SMOOTH",
"30 252 LINE",
"31 228 OFFCURVE",
"32 206 OFFCURVE",
"34 185 CURVE SMOOTH",
"36 164 OFFCURVE",
"39 147 OFFCURVE",
"43 136 CURVE SMOOTH",
"58 95 OFFCURVE",
"84 62 OFFCURVE",
"119 37 CURVE SMOOTH",
"154 12 OFFCURVE",
"194 0 OFFCURVE",
"238 0 CURVE SMOOTH"
);
},
{
nodes = (
"154 716 LINE",
"213 851 LINE",
"99 851 LINE",
"40 716 LINE"
);
},
{
nodes = (
"417 716 LINE",
"359 851 LINE",
"244 851 LINE",
"303 716 LINE"
);
}
);
width = 457;
}
);
unicode = 00EA;
},
{
glyphname = Aacute;
layers = (
{
layerId = "4FF56D86-EDA3-44A7-BEE3-77B51CD88509";
paths = (
{
nodes = (
"447 0 LINE",
"447 471 LINE",
"446 488 OFFCURVE",
"444 505 OFFCURVE",
"441 521 CURVE SMOOTH",
"438 537 OFFCURVE",
"432 553 OFFCURVE",
"425 569 CURVE SMOOTH",
"418 584 OFFCURVE",
"407 600 OFFCURVE",
"394 615 CURVE SMOOTH",
"369 644 OFFCURVE",
"339 663 OFFCURVE",
"305 674 CURVE SMOOTH",
"283 681 OFFCURVE",
"260 685 OFFCURVE",
"238 685 CURVE SMOOTH",
"227 685 OFFCURVE",
"215 684 OFFCURVE",
"204 682 CURVE SMOOTH",
"171 676 OFFCURVE",
"140 662 OFFCURVE",
"112 641 CURVE SMOOTH",
"83 620 OFFCURVE",
"62 591 OFFCURVE",
"47 556 CURVE SMOOTH",
"45 552 OFFCURVE",
"45 549 OFFCURVE",
"45 547 CURVE",
"45 540 OFFCURVE",
"50 536 OFFCURVE",
"61 536 CURVE SMOOTH",
"81 536 OFFCURVE",
"91 526 OFFCURVE",
"91 506 CURVE SMOOTH",
"91 446 LINE SMOOTH",
"91 426 OFFCURVE",
"81 416 OFFCURVE",
"61 416 CURVE SMOOTH",
"41 416 OFFCURVE",
"31 406 OFFCURVE",
"31 387 CURVE SMOOTH",
"31 0 LINE",
"180 0 LINE",
"180 149 LINE",
"298 149 LINE",
"298 0 LINE"
);
},
{
nodes = (
"298 297 LINE",
"180 297 LINE",
"180 433 LINE SMOOTH",
"180 444 OFFCURVE",
"180 456 OFFCURVE",
"179 467 CURVE",
"179 473 LINE SMOOTH",
"179 482 OFFCURVE",
"181 492 OFFCURVE",
"185 501 CURVE SMOOTH",
"191 514 OFFCURVE",
"198 523 OFFCURVE",
"206 528 CURVE SMOOTH",
"214 533 OFFCURVE",
"225 536 OFFCURVE",
"239 536 CURVE SMOOTH",
"253 536 OFFCURVE",
"264 533 OFFCURVE",
"272 528 CURVE SMOOTH",
"280 523 OFFCURVE",
"287 514 OFFCURVE",
"293 501 CURVE SMOOTH",
"297 491 OFFCURVE",
"300 481 OFFCURVE",
"300 471 CURVE SMOOTH",
"300 467 LINE",
"299 456 OFFCURVE",
"298 444 OFFCURVE",
"298 433 CURVE SMOOTH"
);
},
{
nodes = (
"282 726 LINE",
"351 856 LINE",
"240 856 LINE",
"181 726 LINE"
);
}
);
width = 481;
}
);
unicode = 00C1;
},
{
glyphname = grave;
layers = (
{
layerId = "4FF56D86-EDA3-44A7-BEE3-77B51CD88509";
paths = (
{
nodes = (
"317 724 LINE",
"258 854 LINE",
"147 854 LINE",
"216 724 LINE"
);
}
);
width = 453;
}
);
unicode = 0060;
},
{
glyphname = agrave;
layers = (
{
layerId = "4FF56D86-EDA3-44A7-BEE3-77B51CD88509";
paths = (
{
nodes = (
"447 0 LINE",
"447 471 LINE",
"446 488 OFFCURVE",
"444 505 OFFCURVE",
"441 521 CURVE SMOOTH",
"438 537 OFFCURVE",
"432 553 OFFCURVE",
"425 569 CURVE SMOOTH",
"418 584 OFFCURVE",
"407 600 OFFCURVE",
"394 615 CURVE SMOOTH",
"369 644 OFFCURVE",
"339 663 OFFCURVE",
"305 674 CURVE SMOOTH",
"283 681 OFFCURVE",
"260 685 OFFCURVE",
"238 685 CURVE SMOOTH",
"227 685 OFFCURVE",
"215 684 OFFCURVE",
"204 682 CURVE SMOOTH",
"171 676 OFFCURVE",
"140 662 OFFCURVE",
"112 641 CURVE SMOOTH",
"83 620 OFFCURVE",
"62 591 OFFCURVE",
"47 556 CURVE SMOOTH",
"45 552 OFFCURVE",
"45 549 OFFCURVE",
"45 547 CURVE",
"45 540 OFFCURVE",
"50 536 OFFCURVE",
"61 536 CURVE SMOOTH",
"81 536 OFFCURVE",
"91 526 OFFCURVE",
"91 506 CURVE SMOOTH",
"91 446 LINE SMOOTH",
"91 426 OFFCURVE",
"81 416 OFFCURVE",
"61 416 CURVE SMOOTH",
"41 416 OFFCURVE",
"31 406 OFFCURVE",
"31 387 CURVE SMOOTH",
"31 0 LINE",
"180 0 LINE",
"180 149 LINE",
"298 149 LINE",
"298 0 LINE"
);
},
{
nodes = (
"298 297 LINE",
"180 297 LINE",
"180 433 LINE SMOOTH",
"180 444 OFFCURVE",
"180 456 OFFCURVE",
"179 467 CURVE",
"179 473 LINE SMOOTH",
"179 482 OFFCURVE",
"181 492 OFFCURVE",
"185 501 CURVE SMOOTH",
"191 514 OFFCURVE",
"198 523 OFFCURVE",
"206 528 CURVE SMOOTH",
"214 533 OFFCURVE",
"225 536 OFFCURVE",
"239 536 CURVE SMOOTH",
"253 536 OFFCURVE",
"264 533 OFFCURVE",
"272 528 CURVE SMOOTH",
"280 523 OFFCURVE",
"287 514 OFFCURVE",
"293 501 CURVE SMOOTH",
"297 491 OFFCURVE",
"300 481 OFFCURVE",
"300 471 CURVE SMOOTH",
"300 467 LINE",
"299 456 OFFCURVE",
"298 444 OFFCURVE",
"298 433 CURVE SMOOTH"
);
},
{
nodes = (
"325 724 LINE",
"266 854 LINE",
"155 854 LINE",
"224 724 LINE"
);
}
);
width = 481;
}
);
unicode = 00E0;
},
{
glyphname = Agrave;
layers = (
{
layerId = "4FF56D86-EDA3-44A7-BEE3-77B51CD88509";
paths = (
{
nodes = (
"447 0 LINE",
"447 471 LINE",
"446 488 OFFCURVE",
"444 505 OFFCURVE",
"441 521 CURVE SMOOTH",
"438 537 OFFCURVE",
"432 553 OFFCURVE",
"425 569 CURVE SMOOTH",
"418 584 OFFCURVE",
"407 600 OFFCURVE",
"394 615 CURVE SMOOTH",
"369 644 OFFCURVE",
"339 663 OFFCURVE",
"305 674 CURVE SMOOTH",
"283 681 OFFCURVE",
"260 685 OFFCURVE",
"238 685 CURVE SMOOTH",
"227 685 OFFCURVE",
"215 684 OFFCURVE",
"204 682 CURVE SMOOTH",
"171 676 OFFCURVE",
"140 662 OFFCURVE",
"112 641 CURVE SMOOTH",
"83 620 OFFCURVE",
"62 591 OFFCURVE",
"47 556 CURVE SMOOTH",
"45 552 OFFCURVE",
"45 549 OFFCURVE",
"45 547 CURVE",
"45 540 OFFCURVE",
"50 536 OFFCURVE",
"61 536 CURVE SMOOTH",
"81 536 OFFCURVE",
"91 526 OFFCURVE",
"91 506 CURVE SMOOTH",
"91 446 LINE SMOOTH",
"91 426 OFFCURVE",
"81 416 OFFCURVE",
"61 416 CURVE SMOOTH",
"41 416 OFFCURVE",
"31 406 OFFCURVE",
"31 387 CURVE SMOOTH",
"31 0 LINE",
"180 0 LINE",
"180 149 LINE",
"298 149 LINE",
"298 0 LINE"
);
},
{
nodes = (
"298 297 LINE",
"180 297 LINE",
"180 433 LINE SMOOTH",
"180 444 OFFCURVE",
"180 456 OFFCURVE",
"179 467 CURVE",
"179 473 LINE SMOOTH",
"179 482 OFFCURVE",
"181 492 OFFCURVE",
"185 501 CURVE SMOOTH",
"191 514 OFFCURVE",
"198 523 OFFCURVE",
"206 528 CURVE SMOOTH",
"214 533 OFFCURVE",
"225 536 OFFCURVE",
"239 536 CURVE SMOOTH",
"253 536 OFFCURVE",
"264 533 OFFCURVE",
"272 528 CURVE SMOOTH",
"280 523 OFFCURVE",
"287 514 OFFCURVE",
"293 501 CURVE SMOOTH",
"297 491 OFFCURVE",
"300 481 OFFCURVE",
"300 471 CURVE SMOOTH",
"300 467 LINE",
"299 456 OFFCURVE",
"298 444 OFFCURVE",
"298 433 CURVE SMOOTH"
);
},
{
nodes = (
"325 724 LINE",
"266 854 LINE",
"155 854 LINE",
"224 724 LINE"
);
}
);
width = 481;
}
);
unicode = 00C0;
},
{
glyphname = egrave;
layers = (
{
layerId = "4FF56D86-EDA3-44A7-BEE3-77B51CD88509";
paths = (
{
nodes = (
"423 0 LINE",
"423 149 LINE",
"238 149 LINE SMOOTH",
"222 149 OFFCURVE",
"210 152 OFFCURVE",
"201 159 CURVE SMOOTH",
"192 166 OFFCURVE",
"186 177 OFFCURVE",
"181 192 CURVE SMOOTH",
"178 202 OFFCURVE",
"177 212 OFFCURVE",
"177 222 CURVE SMOOTH",
"177 231 LINE",
"178 243 OFFCURVE",
"179 255 OFFCURVE",
"179 268 CURVE",
"387 268 LINE",
"387 417 LINE",
"179 417 LINE",
"179 430 OFFCURVE",
"178 442 OFFCURVE",
"177 455 CURVE",
"177 464 LINE SMOOTH",
"177 473 OFFCURVE",
"178 483 OFFCURVE",
"181 493 CURVE SMOOTH",
"186 508 OFFCURVE",
"192 519 OFFCURVE",
"201 526 CURVE SMOOTH",
"210 533 OFFCURVE",
"222 536 OFFCURVE",
"238 536 CURVE SMOOTH",
"423 536 LINE",
"423 684 LINE",
"238 684 LINE SMOOTH",
"196 684 OFFCURVE",
"158 673 OFFCURVE",
"123 650 CURVE SMOOTH",
"88 627 OFFCURVE",
"62 595 OFFCURVE",
"46 556 CURVE",
"44 547 LINE",
"44 540 OFFCURVE",
"49 536 OFFCURVE",
"60 536 CURVE SMOOTH",
"79 536 OFFCURVE",
"89 526 OFFCURVE",
"89 506 CURVE SMOOTH",
"89 446 LINE SMOOTH",
"89 427 OFFCURVE",
"79 417 OFFCURVE",
"60 417 CURVE SMOOTH",
"40 417 OFFCURVE",
"30 407 OFFCURVE",
"30 387 CURVE SMOOTH",
"30 252 LINE",
"31 228 OFFCURVE",
"32 206 OFFCURVE",
"34 185 CURVE SMOOTH",
"36 164 OFFCURVE",
"39 147 OFFCURVE",
"43 136 CURVE SMOOTH",
"58 95 OFFCURVE",
"84 62 OFFCURVE",
"119 37 CURVE SMOOTH",
"154 12 OFFCURVE",
"194 0 OFFCURVE",
"238 0 CURVE SMOOTH"
);
},
{
nodes = (
"314 724 LINE",
"255 854 LINE",
"144 854 LINE",
"213 724 LINE"
);
}
);
width = 457;
}
);
unicode = 00E8;
},
{
glyphname = Egrave;
layers = (
{
layerId = "4FF56D86-EDA3-44A7-BEE3-77B51CD88509";
paths = (
{
nodes = (
"423 0 LINE",
"423 149 LINE",
"238 149 LINE SMOOTH",
"222 149 OFFCURVE",
"210 152 OFFCURVE",
"201 159 CURVE SMOOTH",
"192 166 OFFCURVE",
"186 177 OFFCURVE",
"181 192 CURVE SMOOTH",
"178 202 OFFCURVE",
"177 212 OFFCURVE",
"177 222 CURVE SMOOTH",
"177 231 LINE",
"178 243 OFFCURVE",
"179 255 OFFCURVE",
"179 268 CURVE",
"387 268 LINE",
"387 417 LINE",
"179 417 LINE",
"179 430 OFFCURVE",
"178 442 OFFCURVE",
"177 455 CURVE",
"177 464 LINE SMOOTH",
"177 473 OFFCURVE",
"178 483 OFFCURVE",
"181 493 CURVE SMOOTH",
"186 508 OFFCURVE",
"192 519 OFFCURVE",
"201 526 CURVE SMOOTH",
"210 533 OFFCURVE",
"222 536 OFFCURVE",
"238 536 CURVE SMOOTH",
"423 536 LINE",
"423 684 LINE",
"238 684 LINE SMOOTH",
"196 684 OFFCURVE",
"158 673 OFFCURVE",
"123 650 CURVE SMOOTH",
"88 627 OFFCURVE",
"62 595 OFFCURVE",
"46 556 CURVE",
"44 547 LINE",
"44 540 OFFCURVE",
"49 536 OFFCURVE",
"60 536 CURVE SMOOTH",
"79 536 OFFCURVE",
"89 526 OFFCURVE",
"89 506 CURVE SMOOTH",
"89 446 LINE SMOOTH",
"89 427 OFFCURVE",
"79 417 OFFCURVE",
"60 417 CURVE SMOOTH",
"40 417 OFFCURVE",
"30 407 OFFCURVE",
"30 387 CURVE SMOOTH",
"30 252 LINE",
"31 228 OFFCURVE",
"32 206 OFFCURVE",
"34 185 CURVE SMOOTH",
"36 164 OFFCURVE",
"39 147 OFFCURVE",
"43 136 CURVE SMOOTH",
"58 95 OFFCURVE",
"84 62 OFFCURVE",
"119 37 CURVE SMOOTH",
"154 12 OFFCURVE",
"194 0 OFFCURVE",
"238 0 CURVE SMOOTH"
);
},
{
nodes = (
"314 724 LINE",
"255 854 LINE",
"144 854 LINE",
"213 724 LINE"
);
}
);
width = 457;
}
);
unicode = 00C8;
},
{
glyphname = cacute;
layers = (
{
layerId = "4FF56D86-EDA3-44A7-BEE3-77B51CD88509";
paths = (
{
nodes = (
"248 0 OFFCURVE",
"259 1 OFFCURVE",
"270 3 CURVE SMOOTH",
"306 9 OFFCURVE",
"338 24 OFFCURVE",
"367 47 CURVE SMOOTH",
"383 60 OFFCURVE",
"397 74 OFFCURVE",
"407 89 CURVE SMOOTH",
"417 103 OFFCURVE",
"425 118 OFFCURVE",
"431 134 CURVE SMOOTH",
"436 149 OFFCURVE",
"440 166 OFFCURVE",
"442 183 CURVE SMOOTH",
"444 200 OFFCURVE",
"445 219 OFFCURVE",
"445 239 CURVE",
"296 239 LINE",
"296 224 OFFCURVE",
"295 209 OFFCURVE",
"294 196 CURVE SMOOTH",
"293 183 OFFCURVE",
"285 171 OFFCURVE",
"270 160 CURVE SMOOTH",
"260 153 OFFCURVE",
"248 149 OFFCURVE",
"237 149 CURVE",
"228 150 LINE SMOOTH",
"213 152 OFFCURVE",
"201 159 OFFCURVE",
"191 171 CURVE SMOOTH",
"180 183 OFFCURVE",
"175 196 OFFCURVE",
"175 209 CURVE SMOOTH",
"175 212 LINE",
"176 226 OFFCURVE",
"177 240 OFFCURVE",
"177 255 CURVE SMOOTH",
"177 343 LINE SMOOTH",
"177 348 OFFCURVE",
"176 359 OFFCURVE",
"176 376 CURVE SMOOTH",
"176 393 OFFCURVE",
"176 410 OFFCURVE",
"177 429 CURVE",
"177 448 OFFCURVE",
"179 465 OFFCURVE",
"181 482 CURVE SMOOTH",
"183 499 OFFCURVE",
"186 510 OFFCURVE",
"191 515 CURVE SMOOTH",
"201 526 OFFCURVE",
"213 533 OFFCURVE",
"228 536 CURVE",
"237 537 LINE",
"248 537 OFFCURVE",
"260 533 OFFCURVE",
"270 526 CURVE SMOOTH",
"285 515 OFFCURVE",
"293 503 OFFCURVE",
"294 490 CURVE SMOOTH",
"295 477 OFFCURVE",
"296 462 OFFCURVE",
"296 447 CURVE",
"445 447 LINE",
"445 474 OFFCURVE",
"442 499 OFFCURVE",
"437 524 CURVE",
"431 548 OFFCURVE",
"423 570 OFFCURVE",
"411 591 CURVE SMOOTH",
"399 611 OFFCURVE",
"383 628 OFFCURVE",
"363 643 CURVE SMOOTH",
"343 658 OFFCURVE",
"320 669 OFFCURVE",
"292 677 CURVE SMOOTH",
"272 682 OFFCURVE",
"253 685 OFFCURVE",
"234 685 CURVE",
"216 684 LINE",
"191 681 OFFCURVE",
"168 675 OFFCURVE",
"146 664 CURVE SMOOTH",
"124 653 OFFCURVE",
"104 639 OFFCURVE",
"86 621 CURVE SMOOTH",
"68 602 OFFCURVE",
"55 581 OFFCURVE",
"45 557 CURVE SMOOTH",
"43 553 OFFCURVE",
"42 549 OFFCURVE",
"42 546 CURVE SMOOTH",
"42 539 OFFCURVE",
"47 536 OFFCURVE",
"58 536 CURVE SMOOTH",
"78 536 OFFCURVE",
"88 526 OFFCURVE",
"88 506 CURVE SMOOTH",
"88 447 LINE SMOOTH",
"88 427 OFFCURVE",
"78 417 OFFCURVE",
"58 417 CURVE SMOOTH",
"38 417 OFFCURVE",
"28 407 OFFCURVE",
"28 387 CURVE SMOOTH",
"28 280 LINE",
"27 226 LINE",
"27 208 OFFCURVE",
"28 190 OFFCURVE",
"32 172 CURVE",
"38 136 OFFCURVE",
"53 104 OFFCURVE",
"77 76 CURVE SMOOTH",
"100 48 OFFCURVE",
"129 27 OFFCURVE",
"164 14 CURVE SMOOTH",
"188 5 OFFCURVE",
"212 0 OFFCURVE",
"237 0 CURVE SMOOTH"
);
},
{
nodes = (
"250 726 LINE",
"319 856 LINE",
"208 856 LINE",
"149 726 LINE"
);
}
);
width = 469;
}
);
unicode = 0107;
},
{
glyphname = Cacute;
layers = (
{
layerId = "4FF56D86-EDA3-44A7-BEE3-77B51CD88509";
paths = (
{
nodes = (
"248 0 OFFCURVE",
"259 1 OFFCURVE",
"270 3 CURVE SMOOTH",
"306 9 OFFCURVE",
"338 24 OFFCURVE",
"367 47 CURVE SMOOTH",
"383 60 OFFCURVE",
"397 74 OFFCURVE",
"407 89 CURVE SMOOTH",
"417 103 OFFCURVE",
"425 118 OFFCURVE",
"431 134 CURVE SMOOTH",
"436 149 OFFCURVE",
"440 166 OFFCURVE",
"442 183 CURVE SMOOTH",
"444 200 OFFCURVE",
"445 219 OFFCURVE",
"445 239 CURVE",
"296 239 LINE",
"296 224 OFFCURVE",
"295 209 OFFCURVE",
"294 196 CURVE SMOOTH",
"293 183 OFFCURVE",
"285 171 OFFCURVE",
"270 160 CURVE SMOOTH",
"260 153 OFFCURVE",
"248 149 OFFCURVE",
"237 149 CURVE",
"228 150 LINE SMOOTH",
"213 152 OFFCURVE",
"201 159 OFFCURVE",
"191 171 CURVE SMOOTH",
"180 183 OFFCURVE",
"175 196 OFFCURVE",
"175 209 CURVE SMOOTH",
"175 212 LINE",
"176 226 OFFCURVE",
"177 240 OFFCURVE",
"177 255 CURVE SMOOTH",
"177 343 LINE SMOOTH",
"177 348 OFFCURVE",
"176 359 OFFCURVE",
"176 376 CURVE SMOOTH",
"176 393 OFFCURVE",
"176 410 OFFCURVE",
"177 429 CURVE",
"177 448 OFFCURVE",
"179 465 OFFCURVE",
"181 482 CURVE SMOOTH",
"183 499 OFFCURVE",
"186 510 OFFCURVE",
"191 515 CURVE SMOOTH",
"201 526 OFFCURVE",
"213 533 OFFCURVE",
"228 536 CURVE",
"237 537 LINE",
"248 537 OFFCURVE",
"260 533 OFFCURVE",
"270 526 CURVE SMOOTH",
"285 515 OFFCURVE",
"293 503 OFFCURVE",
"294 490 CURVE SMOOTH",
"295 477 OFFCURVE",
"296 462 OFFCURVE",
"296 447 CURVE",
"445 447 LINE",
"445 474 OFFCURVE",
"442 499 OFFCURVE",
"437 524 CURVE",
"431 548 OFFCURVE",
"423 570 OFFCURVE",
"411 591 CURVE SMOOTH",
"399 611 OFFCURVE",
"383 628 OFFCURVE",
"363 643 CURVE SMOOTH",
"343 658 OFFCURVE",
"320 669 OFFCURVE",
"292 677 CURVE SMOOTH",
"272 682 OFFCURVE",
"253 685 OFFCURVE",
"234 685 CURVE",
"216 684 LINE",
"191 681 OFFCURVE",
"168 675 OFFCURVE",
"146 664 CURVE SMOOTH",
"124 653 OFFCURVE",
"104 639 OFFCURVE",
"86 621 CURVE SMOOTH",
"68 602 OFFCURVE",
"55 581 OFFCURVE",
"45 557 CURVE SMOOTH",
"43 553 OFFCURVE",
"42 549 OFFCURVE",
"42 546 CURVE SMOOTH",
"42 539 OFFCURVE",
"47 536 OFFCURVE",
"58 536 CURVE SMOOTH",
"78 536 OFFCURVE",
"88 526 OFFCURVE",
"88 506 CURVE SMOOTH",
"88 447 LINE SMOOTH",
"88 427 OFFCURVE",
"78 417 OFFCURVE",
"58 417 CURVE SMOOTH",
"38 417 OFFCURVE",
"28 407 OFFCURVE",
"28 387 CURVE SMOOTH",
"28 280 LINE",
"27 226 LINE",
"27 208 OFFCURVE",
"28 190 OFFCURVE",
"32 172 CURVE",
"38 136 OFFCURVE",
"53 104 OFFCURVE",
"77 76 CURVE SMOOTH",
"100 48 OFFCURVE",
"129 27 OFFCURVE",
"164 14 CURVE SMOOTH",
"188 5 OFFCURVE",
"212 0 OFFCURVE",
"237 0 CURVE SMOOTH"
);
},
{
nodes = (
"250 726 LINE",
"319 856 LINE",
"208 856 LINE",
"149 726 LINE"
);
}
);
width = 469;
}
);
unicode = 0106;
},
{
glyphname = ccircumflex;
layers = (
{
layerId = "4FF56D86-EDA3-44A7-BEE3-77B51CD88509";
paths = (
{
nodes = (
"248 0 OFFCURVE",
"259 1 OFFCURVE",
"270 3 CURVE SMOOTH",
"306 9 OFFCURVE",
"338 24 OFFCURVE",
"367 47 CURVE SMOOTH",
"383 60 OFFCURVE",
"397 74 OFFCURVE",
"407 89 CURVE SMOOTH",
"417 103 OFFCURVE",
"425 118 OFFCURVE",
"431 134 CURVE SMOOTH",
"436 149 OFFCURVE",
"440 166 OFFCURVE",
"442 183 CURVE SMOOTH",
"444 200 OFFCURVE",
"445 219 OFFCURVE",
"445 239 CURVE",
"296 239 LINE",
"296 224 OFFCURVE",
"295 209 OFFCURVE",
"294 196 CURVE SMOOTH",
"293 183 OFFCURVE",
"285 171 OFFCURVE",
"270 160 CURVE SMOOTH",
"260 153 OFFCURVE",
"248 149 OFFCURVE",
"237 149 CURVE",
"228 150 LINE SMOOTH",
"213 152 OFFCURVE",
"201 159 OFFCURVE",
"191 171 CURVE SMOOTH",
"180 183 OFFCURVE",
"175 196 OFFCURVE",
"175 209 CURVE SMOOTH",
"175 212 LINE",
"176 226 OFFCURVE",
"177 240 OFFCURVE",
"177 255 CURVE SMOOTH",
"177 343 LINE SMOOTH",
"177 348 OFFCURVE",
"176 359 OFFCURVE",
"176 376 CURVE SMOOTH",
"176 393 OFFCURVE",
"176 410 OFFCURVE",
"177 429 CURVE",
"177 448 OFFCURVE",
"179 465 OFFCURVE",
"181 482 CURVE SMOOTH",
"183 499 OFFCURVE",
"186 510 OFFCURVE",
"191 515 CURVE SMOOTH",
"201 526 OFFCURVE",
"213 533 OFFCURVE",
"228 536 CURVE",
"237 537 LINE",
"248 537 OFFCURVE",
"260 533 OFFCURVE",
"270 526 CURVE SMOOTH",
"285 515 OFFCURVE",
"293 503 OFFCURVE",
"294 490 CURVE SMOOTH",
"295 477 OFFCURVE",
"296 462 OFFCURVE",
"296 447 CURVE",
"445 447 LINE",
"445 474 OFFCURVE",
"442 499 OFFCURVE",
"437 524 CURVE",
"431 548 OFFCURVE",
"423 570 OFFCURVE",
"411 591 CURVE SMOOTH",
"399 611 OFFCURVE",
"383 628 OFFCURVE",
"363 643 CURVE SMOOTH",
"343 658 OFFCURVE",
"320 669 OFFCURVE",
"292 677 CURVE SMOOTH",
"272 682 OFFCURVE",
"253 685 OFFCURVE",
"234 685 CURVE",
"216 684 LINE",
"191 681 OFFCURVE",
"168 675 OFFCURVE",
"146 664 CURVE SMOOTH",
"124 653 OFFCURVE",
"104 639 OFFCURVE",
"86 621 CURVE SMOOTH",
"68 602 OFFCURVE",
"55 581 OFFCURVE",
"45 557 CURVE SMOOTH",
"43 553 OFFCURVE",
"42 549 OFFCURVE",
"42 546 CURVE SMOOTH",
"42 539 OFFCURVE",
"47 536 OFFCURVE",
"58 536 CURVE SMOOTH",
"78 536 OFFCURVE",
"88 526 OFFCURVE",
"88 506 CURVE SMOOTH",
"88 447 LINE SMOOTH",
"88 427 OFFCURVE",
"78 417 OFFCURVE",
"58 417 CURVE SMOOTH",
"38 417 OFFCURVE",
"28 407 OFFCURVE",
"28 387 CURVE SMOOTH",
"28 280 LINE",
"27 226 LINE",
"27 208 OFFCURVE",
"28 190 OFFCURVE",
"32 172 CURVE",
"38 136 OFFCURVE",
"53 104 OFFCURVE",
"77 76 CURVE SMOOTH",
"100 48 OFFCURVE",
"129 27 OFFCURVE",
"164 14 CURVE SMOOTH",
"188 5 OFFCURVE",
"212 0 OFFCURVE",
"237 0 CURVE SMOOTH"
);
},
{
nodes = (
"160 716 LINE",
"219 851 LINE",
"105 851 LINE",
"46 716 LINE"
);
},
{
nodes = (
"423 716 LINE",
"365 851 LINE",
"250 851 LINE",
"309 716 LINE"
);
}
);
width = 469;
}
);
unicode = 0109;
},
{
glyphname = Ccircumflex;
layers = (
{
layerId = "4FF56D86-EDA3-44A7-BEE3-77B51CD88509";
paths = (
{
nodes = (
"248 0 OFFCURVE",
"259 1 OFFCURVE",
"270 3 CURVE SMOOTH",
"306 9 OFFCURVE",
"338 24 OFFCURVE",
"367 47 CURVE SMOOTH",
"383 60 OFFCURVE",
"397 74 OFFCURVE",
"407 89 CURVE SMOOTH",
"417 103 OFFCURVE",
"425 118 OFFCURVE",
"431 134 CURVE SMOOTH",
"436 149 OFFCURVE",
"440 166 OFFCURVE",
"442 183 CURVE SMOOTH",
"444 200 OFFCURVE",
"445 219 OFFCURVE",
"445 239 CURVE",
"296 239 LINE",
"296 224 OFFCURVE",
"295 209 OFFCURVE",
"294 196 CURVE SMOOTH",
"293 183 OFFCURVE",
"285 171 OFFCURVE",
"270 160 CURVE SMOOTH",
"260 153 OFFCURVE",
"248 149 OFFCURVE",
"237 149 CURVE",
"228 150 LINE SMOOTH",
"213 152 OFFCURVE",
"201 159 OFFCURVE",
"191 171 CURVE SMOOTH",
"180 183 OFFCURVE",
"175 196 OFFCURVE",
"175 209 CURVE SMOOTH",
"175 212 LINE",
"176 226 OFFCURVE",
"177 240 OFFCURVE",
"177 255 CURVE SMOOTH",
"177 343 LINE SMOOTH",
"177 348 OFFCURVE",
"176 359 OFFCURVE",
"176 376 CURVE SMOOTH",
"176 393 OFFCURVE",
"176 410 OFFCURVE",
"177 429 CURVE",
"177 448 OFFCURVE",
"179 465 OFFCURVE",
"181 482 CURVE SMOOTH",
"183 499 OFFCURVE",
"186 510 OFFCURVE",
"191 515 CURVE SMOOTH",
"201 526 OFFCURVE",
"213 533 OFFCURVE",
"228 536 CURVE",
"237 537 LINE",
"248 537 OFFCURVE",
"260 533 OFFCURVE",
"270 526 CURVE SMOOTH",
"285 515 OFFCURVE",
"293 503 OFFCURVE",
"294 490 CURVE SMOOTH",
"295 477 OFFCURVE",
"296 462 OFFCURVE",
"296 447 CURVE",
"445 447 LINE",
"445 474 OFFCURVE",
"442 499 OFFCURVE",
"437 524 CURVE",
"431 548 OFFCURVE",
"423 570 OFFCURVE",
"411 591 CURVE SMOOTH",
"399 611 OFFCURVE",
"383 628 OFFCURVE",
"363 643 CURVE SMOOTH",
"343 658 OFFCURVE",
"320 669 OFFCURVE",
"292 677 CURVE SMOOTH",
"272 682 OFFCURVE",
"253 685 OFFCURVE",
"234 685 CURVE",
"216 684 LINE",
"191 681 OFFCURVE",
"168 675 OFFCURVE",
"146 664 CURVE SMOOTH",
"124 653 OFFCURVE",
"104 639 OFFCURVE",
"86 621 CURVE SMOOTH",
"68 602 OFFCURVE",
"55 581 OFFCURVE",
"45 557 CURVE SMOOTH",
"43 553 OFFCURVE",
"42 549 OFFCURVE",
"42 546 CURVE SMOOTH",
"42 539 OFFCURVE",
"47 536 OFFCURVE",
"58 536 CURVE SMOOTH",
"78 536 OFFCURVE",
"88 526 OFFCURVE",
"88 506 CURVE SMOOTH",
"88 447 LINE SMOOTH",
"88 427 OFFCURVE",
"78 417 OFFCURVE",
"58 417 CURVE SMOOTH",
"38 417 OFFCURVE",
"28 407 OFFCURVE",
"28 387 CURVE SMOOTH",
"28 280 LINE",
"27 226 LINE",
"27 208 OFFCURVE",
"28 190 OFFCURVE",
"32 172 CURVE",
"38 136 OFFCURVE",
"53 104 OFFCURVE",
"77 76 CURVE SMOOTH",
"100 48 OFFCURVE",
"129 27 OFFCURVE",
"164 14 CURVE SMOOTH",
"188 5 OFFCURVE",
"212 0 OFFCURVE",
"237 0 CURVE SMOOTH"
);
},
{
nodes = (
"160 716 LINE",
"219 851 LINE",
"105 851 LINE",
"46 716 LINE"
);
},
{
nodes = (
"423 716 LINE",
"365 851 LINE",
"250 851 LINE",
"309 716 LINE"
);
}
);
width = 469;
}
);
unicode = 0108;
},
{
glyphname = idieresis;
layers = (
{
layerId = "4FF56D86-EDA3-44A7-BEE3-77B51CD88509";
paths = (
{
nodes = (
"185 0 LINE",
"185 684 LINE",
"37 684 LINE",
"37 565 LINE SMOOTH",
"37 545 OFFCURVE",
"47 535 OFFCURVE",
"66 535 CURVE SMOOTH",
"86 535 OFFCURVE",
"96 525 OFFCURVE",
"96 505 CURVE SMOOTH",
"96 446 LINE SMOOTH",
"96 426 OFFCURVE",
"86 416 OFFCURVE",
"66 416 CURVE SMOOTH",
"47 416 OFFCURVE",
"37 406 OFFCURVE",
"37 387 CURVE SMOOTH",
"37 0 LINE"
);
},
{
nodes = (
"43 737 OFFCURVE",
"73 766 OFFCURVE",
"73 801 CURVE SMOOTH",
"73 835 OFFCURVE",
"44 865 OFFCURVE",
"9 865 CURVE SMOOTH",
"-26 865 OFFCURVE",
"-55 835 OFFCURVE",
"-55 801 CURVE SMOOTH",
"-55 766 OFFCURVE",
"-25 737 OFFCURVE",
"9 737 CURVE SMOOTH"
);
},
{
nodes = (
"250 736 OFFCURVE",
"280 765 OFFCURVE",
"280 800 CURVE SMOOTH",
"280 834 OFFCURVE",
"251 864 OFFCURVE",
"216 864 CURVE SMOOTH",
"182 864 OFFCURVE",
"152 835 OFFCURVE",
"152 800 CURVE SMOOTH",
"152 765 OFFCURVE",
"182 736 OFFCURVE",
"216 736 CURVE SMOOTH"
);
}
);
width = 224;
}
);
unicode = 00EF;
},
{
glyphname = Idieresis;
layers = (
{
layerId = "4FF56D86-EDA3-44A7-BEE3-77B51CD88509";
paths = (
{
nodes = (
"185 0 LINE",
"185 684 LINE",
"37 684 LINE",
"37 565 LINE SMOOTH",
"37 545 OFFCURVE",
"47 535 OFFCURVE",
"66 535 CURVE SMOOTH",
"86 535 OFFCURVE",
"96 525 OFFCURVE",
"96 505 CURVE SMOOTH",
"96 446 LINE SMOOTH",
"96 426 OFFCURVE",
"86 416 OFFCURVE",
"66 416 CURVE SMOOTH",
"47 416 OFFCURVE",
"37 406 OFFCURVE",
"37 387 CURVE SMOOTH",
"37 0 LINE"
);
},
{
nodes = (
"43 737 OFFCURVE",
"73 766 OFFCURVE",
"73 801 CURVE SMOOTH",
"73 835 OFFCURVE",
"44 865 OFFCURVE",
"9 865 CURVE SMOOTH",
"-26 865 OFFCURVE",
"-55 835 OFFCURVE",
"-55 801 CURVE SMOOTH",
"-55 766 OFFCURVE",
"-25 737 OFFCURVE",
"9 737 CURVE SMOOTH"
);
},
{
nodes = (
"250 736 OFFCURVE",
"280 765 OFFCURVE",
"280 800 CURVE SMOOTH",
"280 834 OFFCURVE",
"251 864 OFFCURVE",
"216 864 CURVE SMOOTH",
"182 864 OFFCURVE",
"152 835 OFFCURVE",
"152 800 CURVE SMOOTH",
"152 765 OFFCURVE",
"182 736 OFFCURVE",
"216 736 CURVE SMOOTH"
);
}
);
width = 224;
}
);
unicode = 00CF;
},
{
glyphname = adieresis;
layers = (
{
layerId = "4FF56D86-EDA3-44A7-BEE3-77B51CD88509";
paths = (
{
nodes = (
"447 0 LINE",
"447 471 LINE",
"446 488 OFFCURVE",
"444 505 OFFCURVE",
"441 521 CURVE SMOOTH",
"438 537 OFFCURVE",
"432 553 OFFCURVE",
"425 569 CURVE SMOOTH",
"418 584 OFFCURVE",
"407 600 OFFCURVE",
"394 615 CURVE SMOOTH",
"369 644 OFFCURVE",
"339 663 OFFCURVE",
"305 674 CURVE SMOOTH",
"283 681 OFFCURVE",
"260 685 OFFCURVE",
"238 685 CURVE SMOOTH",
"227 685 OFFCURVE",
"215 684 OFFCURVE",
"204 682 CURVE SMOOTH",
"171 676 OFFCURVE",
"140 662 OFFCURVE",
"112 641 CURVE SMOOTH",
"83 620 OFFCURVE",
"62 591 OFFCURVE",
"47 556 CURVE SMOOTH",
"45 552 OFFCURVE",
"45 549 OFFCURVE",
"45 547 CURVE",
"45 540 OFFCURVE",
"50 536 OFFCURVE",
"61 536 CURVE SMOOTH",
"81 536 OFFCURVE",
"91 526 OFFCURVE",
"91 506 CURVE SMOOTH",
"91 446 LINE SMOOTH",
"91 426 OFFCURVE",
"81 416 OFFCURVE",
"61 416 CURVE SMOOTH",
"41 416 OFFCURVE",
"31 406 OFFCURVE",
"31 387 CURVE SMOOTH",
"31 0 LINE",
"180 0 LINE",
"180 149 LINE",
"298 149 LINE",
"298 0 LINE"
);
},
{
nodes = (
"298 297 LINE",
"180 297 LINE",
"180 433 LINE SMOOTH",
"180 444 OFFCURVE",
"180 456 OFFCURVE",
"179 467 CURVE",
"179 473 LINE SMOOTH",
"179 482 OFFCURVE",
"181 492 OFFCURVE",
"185 501 CURVE SMOOTH",
"191 514 OFFCURVE",
"198 523 OFFCURVE",
"206 528 CURVE SMOOTH",
"214 533 OFFCURVE",
"225 536 OFFCURVE",
"239 536 CURVE SMOOTH",
"253 536 OFFCURVE",
"264 533 OFFCURVE",
"272 528 CURVE SMOOTH",
"280 523 OFFCURVE",
"287 514 OFFCURVE",
"293 501 CURVE SMOOTH",
"297 491 OFFCURVE",
"300 481 OFFCURVE",
"300 471 CURVE SMOOTH",
"300 467 LINE",
"299 456 OFFCURVE",
"298 444 OFFCURVE",
"298 433 CURVE SMOOTH"
);
},
{
nodes = (
"171 737 OFFCURVE",
"201 766 OFFCURVE",
"201 801 CURVE SMOOTH",
"201 836 OFFCURVE",
"171 865 OFFCURVE",
"137 865 CURVE SMOOTH",
"103 865 OFFCURVE",
"73 836 OFFCURVE",
"73 801 CURVE SMOOTH",
"73 766 OFFCURVE",
"103 737 OFFCURVE",
"137 737 CURVE SMOOTH"
);
},
{
nodes = (
"378 736 OFFCURVE",
"408 765 OFFCURVE",
"408 800 CURVE SMOOTH",
"408 835 OFFCURVE",
"378 864 OFFCURVE",
"344 864 CURVE SMOOTH",
"310 864 OFFCURVE",
"280 835 OFFCURVE",
"280 800 CURVE SMOOTH",
"280 765 OFFCURVE",
"310 736 OFFCURVE",
"344 736 CURVE SMOOTH"
);
}
);
width = 481;
}
);
unicode = 00E4;
},
